<?xml version="1.0" standalone="no"?>
<!DOCTYPE svg PUBLIC "-//W3C//DTD SVG 20010904//EN"
 "http://www.w3.org/TR/2001/REC-SVG-20010904/DTD/svg10.dtd">
<svg version="1.0" xmlns="http://www.w3.org/2000/svg"
 width="260.000000pt" height="260.000000pt" viewBox="0 0 260.000000 260.000000"
 preserveAspectRatio="xMidYMid meet">
<metadata>
Created by potrace 1.14, written by Peter Selinger 2001-2017
</metadata>
<g transform="translate(0.000000,260.000000) scale(0.100000,-0.100000)"
fill="#000000" stroke="none">
<path d="M1307 2593 c-4 -3 -7 -15 -7 -25 0 -10 -7 -21 -15 -24 -8 -4 -13 -9
-11 -13 3 -4 -4 -20 -15 -37 -10 -16 -19 -37 -19 -47 0 -10 -4 -16 -9 -13 -5
3 -12 -1 -15 -10 -3 -8 -2 -13 3 -10 5 3 1 -10 -7 -29 -9 -19 -20 -31 -25 -28
-6 4 -8 -3 -4 -17 4 -16 1 -23 -13 -27 -12 -3 -17 -13 -15 -29 1 -17 -3 -24
-14 -24 -12 0 -16 -8 -15 -27 1 -16 -7 -38 -18 -50 -11 -12 -17 -26 -13 -32 3
-6 -1 -11 -9 -11 -10 0 -16 -9 -16 -24 0 -14 -5 -28 -12 -32 -7 -4 -8 -3 -4 4
4 7 2 12 -3 12 -15 0 -14 -27 2 -33 10 -4 10 -6 0 -6 -7 -1 -13 -8 -13 -16 0
-8 -5 -15 -11 -15 -5 0 -7 6 -3 13 4 7 3 9 -2 4 -10 -9 -11 -14 -13 -52 0 -14
-6 -24 -13 -23 -7 2 -13 -6 -13 -17 0 -11 -9 -28 -20 -38 -11 -10 -15 -16 -8
-13 6 4 15 2 18 -4 4 -6 1 -9 -6 -8 -7 2 -15 -6 -17 -16 -2 -11 -14 -28 -26
-37 -11 -10 -16 -18 -9 -19 7 0 10 -7 7 -15 -3 -8 -11 -13 -17 -12 -7 1 -12
-7 -12 -18 -1 -11 -6 -19 -13 -18 -7 2 -12 -2 -12 -7 0 -6 5 -10 11 -10 6 0 3
-7 -6 -16 -9 -9 -14 -23 -11 -31 3 -8 2 -11 -4 -8 -11 7 -29 -25 -23 -43 3 -7
-1 -11 -8 -10 -7 2 -15 -6 -17 -17 -2 -11 -11 -24 -19 -28 -11 -7 -12 -12 -2
-23 10 -12 10 -15 -2 -12 -9 2 -13 -4 -11 -19 2 -16 -2 -23 -12 -23 -9 0 -16
-9 -16 -20 0 -11 -4 -20 -9 -20 -5 0 -11 -14 -15 -31 -4 -20 -10 -28 -18 -23
-10 6 -11 4 0 -7 6 -7 12 -18 12 -24 0 -5 -5 -3 -10 5 -7 12 -11 8 -16 -17 -4
-18 -12 -33 -19 -33 -8 0 -11 -8 -8 -20 4 -13 0 -20 -10 -20 -8 0 -17 -10 -20
-22 -6 -22 -6 -22 8 -4 8 11 15 15 15 8 0 -7 -8 -17 -19 -23 -11 -8 -17 -20
-14 -33 4 -17 3 -18 -6 -6 -6 8 -11 11 -12 5 -2 -31 -9 -50 -18 -53 -6 -2 -11
-17 -11 -32 0 -16 -4 -32 -10 -35 -6 -3 -7 1 -4 9 3 9 2 16 -3 16 -10 0 -11
-7 -14 -56 -1 -17 -6 -23 -15 -20 -10 4 -14 -3 -14 -25 0 -17 -4 -28 -9 -24
-13 8 -22 -10 -23 -45 -1 -18 -6 -30 -15 -30 -7 0 -12 -3 -12 -7 4 -25 -3 -43
-17 -43 -8 0 -13 -4 -9 -9 3 -5 -2 -16 -10 -24 -8 -9 -15 -23 -15 -31 0 -9 -5
-16 -11 -16 -8 0 -7 -5 1 -16 11 -13 10 -16 -6 -20 -11 -3 -21 -15 -21 -27 -1
-12 -7 -23 -13 -25 -5 -2 -10 -12 -10 -23 0 -10 -7 -19 -15 -19 -8 0 -15 -5
-15 -11 0 -6 6 -7 13 -2 6 4 4 -5 -6 -20 -10 -15 -15 -33 -11 -40 4 -7 4 -9 0
-5 -13 11 -33 -15 -28 -36 3 -13 1 -17 -6 -12 -13 8 -19 -4 -25 -49 -3 -16
-10 -29 -16 -27 -6 1 -11 -6 -11 -17 0 -10 -7 -24 -15 -31 -8 -7 -15 -21 -15
-31 0 -11 -7 -19 -15 -19 -8 0 -15 -5 -15 -11 0 -5 6 -7 13 -3 12 8 -11 -26
-26 -37 -4 -3 -9 -16 -10 -27 -1 -12 -5 -22 -10 -22 -4 0 -5 -4 -2 -10 3 -5
-1 -10 -9 -10 -9 0 -13 -7 -11 -19 2 -11 -3 -22 -11 -25 -8 -3 -14 -10 -14
-16 0 -6 6 -8 12 -5 7 4 5 0 -6 -9 -10 -8 -16 -22 -13 -30 4 -9 1 -18 -5 -22
-7 -4 -8 -3 -4 4 4 7 2 12 -3 12 -12 0 -14 -11 -13 -48 1 -20 -1 -22 -13 -12
-13 10 -15 8 -15 -14 0 -14 -6 -26 -13 -26 -7 0 -13 -9 -14 -19 -2 -19 7 -20
203 -21 195 -1 204 0 204 19 0 10 7 22 16 25 8 3 12 11 9 17 -4 5 1 16 11 24
11 7 15 17 11 21 -4 4 3 14 15 22 13 7 16 11 6 8 -11 -3 -15 1 -14 12 2 9 9
17 17 17 9 0 13 9 11 23 -2 15 2 22 12 22 10 0 16 9 16 21 0 12 8 28 17 36 10
8 12 12 6 8 -7 -3 -13 -2 -13 4 0 5 10 13 21 16 16 5 18 9 9 15 -7 4 -9 13 -6
19 4 6 12 9 17 6 5 -4 9 5 9 19 0 14 4 25 9 24 5 -2 9 2 9 7 0 6 -5 9 -11 7
-6 -2 -3 6 7 17 10 11 23 18 28 15 6 -4 5 4 -2 16 -8 15 -8 20 -1 16 6 -4 12
-2 12 3 1 6 2 16 3 21 0 6 7 14 14 19 7 4 14 18 15 29 1 12 7 22 14 22 7 0 13
5 13 10 0 6 -5 10 -12 10 -6 0 -4 6 7 13 10 8 15 19 11 25 -3 6 -1 14 5 18 8
5 9 3 4 -7 -6 -10 -5 -11 4 -3 7 6 13 21 14 33 1 11 8 21 15 21 9 0 12 7 9 20
-3 12 0 20 8 20 18 0 26 25 12 39 -9 10 -9 12 3 9 10 -2 14 3 12 15 -2 9 4 20
13 23 8 3 15 13 15 21 0 9 8 22 18 29 15 12 15 15 2 24 -10 6 -11 10 -2 10 6
0 12 6 12 14 0 7 7 19 15 26 8 7 15 21 15 31 0 11 7 19 16 19 8 0 13 4 10 9
-9 15 5 42 18 34 6 -4 4 2 -4 12 -8 10 -10 16 -4 12 7 -4 15 0 18 9 3 8 11 12
17 8 8 -4 9 -3 5 5 -4 6 -12 9 -17 6 -15 -10 -10 2 8 21 10 9 18 24 18 33 0 9
6 15 13 14 16 -4 16 9 0 26 -11 10 -10 12 2 9 11 -2 14 4 12 22 -3 24 -2 24
13 5 12 -16 14 -17 9 -2 -3 9 -1 17 5 17 6 0 8 7 4 15 -3 9 2 21 12 28 9 7 15
22 13 33 -2 14 2 18 17 16 20 -3 20 -3 1 11 -15 11 -16 16 -6 22 9 6 11 4 5
-5 -5 -9 -4 -11 3 -6 7 4 12 18 12 31 0 13 5 27 12 31 7 5 8 3 3 -6 -5 -9 -4
-11 3 -6 7 4 12 18 12 32 0 13 4 24 10 24 5 0 9 3 8 8 -3 16 15 41 26 35 6 -3
6 -1 -1 8 -7 7 -13 18 -13 24 0 5 4 4 9 -4 7 -11 11 -5 16 22 4 20 12 35 19
34 6 -1 10 4 8 12 -1 7 4 18 13 25 8 6 17 27 19 46 2 19 9 34 15 33 11 -3 15
10 12 35 -1 6 5 12 14 12 18 0 21 20 3 20 -7 1 0 8 15 16 24 13 27 18 15 32
-9 11 -10 14 0 8 7 -4 12 -1 12 9 0 9 4 14 9 10 5 -3 13 -1 16 5 4 6 1 9 -6 8
-6 -2 -14 3 -16 10 -3 7 0 11 5 10 6 -2 10 -1 9 2 -2 13 25 50 33 45 5 -3 7 3
5 13 -2 10 1 25 6 33 7 12 9 12 9 0 0 -8 3 -11 6 -8 4 4 1 13 -6 22 -10 12
-10 15 4 15 11 0 16 9 16 26 0 14 4 23 10 19 9 -5 15 15 11 38 -1 4 6 10 14
13 8 4 15 10 15 16 0 5 -6 6 -12 3 -7 -4 -5 0 5 8 9 8 17 22 17 31 0 14 10 16
55 15 36 -1 52 -6 48 -13 -5 -7 -2 -7 8 1 8 6 42 11 77 11 l63 -1 -18 -21 -18
-21 23 19 c16 14 22 29 20 53 -1 19 -6 37 -10 39 -5 3 -6 10 -3 15 3 5 -1 6
-10 3 -9 -4 -15 -3 -14 2 4 23 -2 45 -11 39 -6 -4 -10 7 -10 27 0 18 -5 40
-11 48 -9 13 -10 12 -5 -2 3 -10 2 -20 -3 -22 -7 -5 -11 9 -12 47 0 10 -7 21
-15 24 -8 3 -14 16 -14 30 0 13 -4 21 -10 18 -10 -6 -26 40 -22 63 2 7 -4 15
-13 18 -8 3 -15 17 -15 31 0 13 -4 22 -9 18 -5 -3 -13 0 -17 6 -3 6 0 15 7 20
9 5 -28 9 -92 9 -58 0 -109 -3 -112 -7z"/>
<path d="M2001 2584 c9 -11 9 -14 0 -14 -7 0 -9 -5 -5 -11 4 -6 9 -7 13 -2 11
17 56 9 71 -11 20 -28 45 -34 31 -7 -6 10 -8 21 -5 24 3 3 0 8 -7 13 -7 4 -10
3 -5 -4 3 -6 2 -13 -4 -17 -5 -3 -11 -1 -11 4 -1 6 -2 16 -3 23 0 6 -9 12 -19
14 -9 1 -15 -2 -11 -7 6 -11 -9 -12 -20 -2 -3 4 -13 8 -22 9 -12 2 -13 -1 -3
-12z"/>
<path d="M1970 2561 c0 -7 -4 -9 -10 -6 -5 3 -11 0 -11 -7 -1 -7 -2 -17 -4
-23 -1 -5 -3 -14 -3 -19 -1 -5 -10 -2 -19 5 -11 9 -14 10 -9 2 4 -7 16 -18 28
-24 16 -8 19 -8 13 1 -4 7 -1 16 6 21 12 7 12 10 1 18 -11 7 -10 9 3 14 9 4
13 3 10 -2 -3 -5 -1 -12 4 -16 6 -3 8 4 6 16 -5 25 -15 38 -15 20z"/>
<path d="M2030 2526 c0 -3 9 -10 20 -16 11 -6 20 -8 20 -6 0 3 -9 10 -20 16
-11 6 -20 8 -20 6z"/>
<path d="M2130 2520 c0 -5 5 -10 11 -10 5 0 7 5 4 10 -3 6 -8 10 -11 10 -2 0
-4 -4 -4 -10z"/>
<path d="M2005 2510 c4 -6 2 -17 -4 -24 -6 -7 -10 -35 -10 -63 1 -28 -1 -55
-5 -61 -3 -6 -2 -13 3 -17 6 -3 8 -12 5 -19 -8 -20 23 -27 38 -8 9 11 10 14 1
8 -8 -4 -13 -1 -13 8 0 9 7 16 15 16 10 0 15 -10 15 -27 0 -35 14 -58 29 -49
6 4 11 2 11 -4 0 -6 4 -9 9 -6 7 5 8 21 2 61 -1 6 -6 3 -11 -5 -8 -13 -10 -12
-11 5 -1 11 -1 24 0 29 1 4 -4 15 -11 24 -11 13 -11 14 1 7 11 -6 13 -4 8 8
-3 9 -2 19 2 22 5 3 7 15 4 28 -5 21 -5 21 9 3 12 -16 15 -16 15 -2 0 8 -9 18
-19 22 -10 3 -16 10 -12 15 3 6 -3 5 -13 -2 -16 -9 -19 -20 -16 -50 4 -31 2
-39 -12 -39 -13 0 -15 8 -13 43 2 31 -1 41 -10 39 -8 -1 -11 2 -7 8 3 6 11 7
17 4 7 -5 8 -2 3 7 -8 12 -6 12 8 0 9 -7 17 -9 17 -4 0 5 -12 15 -26 21 -16 8
-23 8 -19 2z m95 -212 c0 -4 -9 -8 -20 -8 -11 0 -20 4 -20 8 0 4 9 8 20 8 11
0 20 -4 20 -8z"/>
<path d="M2113 2495 c0 -7 6 -11 14 -8 7 3 14 0 14 -6 1 -6 3 -15 4 -21 1 -5
3 -16 4 -22 1 -9 4 -8 11 2 6 9 6 18 0 24 -14 14 -12 28 3 20 6 -4 10 -5 7 -1
-3 3 -9 6 -15 7 -5 1 -17 6 -26 10 -11 6 -16 5 -16 -5z"/>
<path d="M1913 2479 c3 -9 1 -21 -5 -27 -7 -7 -5 -10 8 -7 20 3 20 23 2 40 -8
7 -9 5 -5 -6z"/>
<path d="M1570 2460 c0 -5 5 -10 11 -10 5 0 7 5 4 10 -3 6 -8 10 -11 10 -2 0
-4 -4 -4 -10z"/>
<path d="M1908 2423 c7 -3 16 -2 19 1 4 3 -2 6 -13 5 -11 0 -14 -3 -6 -6z"/>
<path d="M2175 2420 c3 -5 8 -10 11 -10 2 0 4 5 4 10 0 6 -5 10 -11 10 -5 0
-7 -4 -4 -10z"/>
<path d="M1916 2393 c-4 -9 -3 -20 1 -24 4 -4 9 3 9 17 2 28 -1 31 -10 7z"/>
<path d="M2154 2373 c3 -20 22 -28 31 -14 3 7 0 8 -10 5 -11 -5 -14 -2 -9 10
3 9 2 16 -4 16 -6 0 -9 -8 -8 -17z"/>
<path d="M1890 2371 c0 -6 4 -13 10 -16 6 -3 7 1 4 9 -7 18 -14 21 -14 7z"/>
<path d="M1910 2340 c-13 -8 -12 -10 3 -10 9 0 17 5 17 10 0 12 -1 12 -20 0z"/>
<path d="M1913 2301 c-1 -11 4 -22 12 -25 7 -2 12 -16 11 -29 -2 -19 1 -23 16
-19 10 2 18 12 18 21 0 14 -2 14 -10 1 -8 -13 -10 -13 -10 1 0 9 -6 22 -14 29
-8 6 -12 18 -9 26 3 8 1 14 -4 14 -5 0 -9 -9 -10 -19z"/>
<path d="M2144 2305 c-3 -8 -3 -19 1 -25 4 -7 -1 -14 -13 -17 -21 -5 -23 -34
-3 -41 7 -2 11 3 9 14 -2 11 2 18 9 17 6 -1 10 5 8 15 -1 9 3 20 9 24 7 5 6 8
-4 8 -13 0 -13 1 0 10 10 7 11 10 2 10 -7 0 -15 -7 -18 -15z"/>
<path d="M1990 2287 c0 -8 7 -18 16 -21 11 -4 14 -1 12 11 -4 21 -28 30 -28
10z"/>
<path d="M1984 2222 c-6 -4 -11 -15 -11 -24 0 -10 3 -16 5 -13 3 3 11 0 19 -6
10 -9 13 -8 13 0 0 7 4 10 9 7 5 -3 15 1 22 10 12 14 14 14 25 0 7 -10 18 -14
28 -10 19 7 21 30 4 40 -8 5 -9 2 -5 -9 3 -9 2 -19 -4 -22 -5 -4 -8 -1 -7 6 2
9 -9 13 -32 13 -19 1 -40 4 -45 8 -6 4 -16 4 -21 0z m23 -28 c-9 -9 -28 6 -21
18 4 6 10 6 17 -1 6 -6 8 -13 4 -17z"/>
<path d="M1100 2199 c0 -5 5 -7 10 -4 6 3 10 8 10 11 0 2 -4 4 -10 4 -5 0 -10
-5 -10 -11z"/>
<path d="M1510 2120 c0 -5 5 -10 11 -10 5 0 7 5 4 10 -3 6 -8 10 -11 10 -2 0
-4 -4 -4 -10z"/>
<path d="M1574 2118 c-4 -6 -3 -8 4 -4 5 3 12 1 14 -6 3 -8 6 -9 11 -1 4 6 0
13 -8 17 -8 3 -17 0 -21 -6z"/>
<path d="M1631 2113 c0 -11 3 -13 6 -5 2 6 10 9 15 6 7 -4 8 -2 4 4 -11 18
-26 14 -25 -5z"/>
<path d="M1682 2053 c-6 -3 -10 -9 -6 -14 3 -5 1 -9 -5 -9 -5 0 -12 6 -15 13
-4 8 -5 7 -5 -3 3 -38 -1 -51 -13 -44 -9 5 -9 2 1 -9 12 -15 11 -17 -3 -17 -9
0 -15 -3 -15 -7 4 -22 -3 -33 -18 -34 -15 0 -15 -2 2 -9 l20 -9 -20 0 c-17 -1
-17 -3 -5 -11 13 -9 13 -10 0 -11 -8 -1 -18 -1 -22 0 -5 0 -8 -3 -8 -9 0 -5 5
-10 10 -10 6 0 10 -4 10 -10 0 -5 -7 -10 -15 -10 -9 0 -15 -9 -15 -24 0 -13
-7 -27 -16 -30 -9 -3 -14 -13 -10 -21 3 -8 -1 -21 -9 -29 -11 -11 -12 -16 -2
-19 7 -3 5 -6 -5 -6 -11 -1 -18 -9 -18 -21 0 -11 -7 -23 -15 -26 -13 -5 -13
-9 -3 -22 7 -9 9 -13 3 -10 -5 3 -16 0 -23 -8 -7 -8 -8 -14 -2 -14 5 0 10 -4
10 -10 0 -5 -8 -7 -17 -3 -10 3 -15 3 -11 -2 4 -4 3 -14 -3 -22 -9 -10 -8 -13
0 -13 7 0 9 -5 6 -10 -4 -6 -11 -8 -16 -5 -9 6 -13 -8 -10 -32 1 -7 -5 -13
-14 -13 -8 0 -15 -8 -15 -17 0 -9 -8 -26 -17 -37 -17 -20 -17 -20 0 -7 15 12
17 12 11 -3 -3 -9 -10 -16 -15 -16 -5 0 -9 -6 -9 -14 0 -8 -6 -21 -12 -28 -15
-15 -21 -34 -21 -65 -1 -12 -5 -19 -9 -17 -5 3 -6 9 -3 14 3 5 1 11 -4 14 -5
4 -8 -2 -6 -11 3 -22 -14 -45 -28 -36 -6 3 -7 1 -3 -6 4 -6 12 -9 17 -6 5 4 9
2 9 -3 0 -6 -7 -12 -15 -16 -8 -3 -15 -15 -15 -26 0 -11 -6 -20 -13 -20 -7 0
-13 -14 -14 -32 0 -17 -9 -37 -18 -44 -10 -8 -15 -20 -12 -29 4 -9 1 -15 -8
-15 -8 0 -15 -9 -15 -20 0 -11 -5 -20 -11 -20 -6 0 -9 -6 -6 -14 3 -8 -1 -20
-9 -27 -8 -7 -13 -18 -10 -26 3 -7 -1 -13 -9 -13 -13 0 -20 -18 -16 -42 0 -5
-7 -8 -17 -8 -14 0 -15 -2 -2 -10 11 -7 11 -10 2 -10 -7 0 -10 -4 -7 -10 3 -5
1 -10 -4 -10 -6 0 -11 -9 -11 -21 0 -11 -4 -18 -9 -14 -5 3 -11 -7 -13 -22 -2
-16 -8 -27 -15 -26 -8 2 -13 -7 -13 -21 0 -13 -7 -29 -15 -36 -8 -7 -15 -17
-15 -23 0 -6 7 -2 15 9 12 14 14 15 9 2 -5 -15 10 -17 170 -17 97 0 180 -2
186 -6 5 -3 10 -3 10 2 0 9 134 8 149 -2 6 -3 11 -3 11 2 0 9 134 8 149 -2 6
-3 11 -3 11 2 0 9 134 8 149 -2 6 -3 11 -3 11 2 0 4 95 7 212 5 161 -1 214 1
220 10 6 10 8 10 8 1 0 -7 4 -13 10 -13 5 0 9 11 8 24 -1 14 -6 24 -11 23 -5
-1 -11 9 -13 22 -3 13 -12 30 -22 38 -9 8 -12 12 -5 9 6 -4 15 -2 18 4 4 6 3
10 -2 9 -23 -4 -31 3 -25 23 3 14 2 19 -6 14 -11 -7 -13 -3 -16 31 -1 7 -10
20 -21 28 -20 17 -20 17 0 11 19 -6 19 -6 1 8 -10 9 -16 22 -13 30 4 9 2 18
-3 21 -9 6 -14 -8 -11 -28 1 -5 -3 -6 -8 -3 -5 3 -8 22 -6 41 1 23 -2 35 -11
35 -7 0 -14 10 -16 23 -2 12 -9 21 -16 20 -6 -2 -11 0 -11 5 4 26 -2 52 -12
46 -8 -4 -8 0 0 15 10 17 9 20 -4 15 -12 -5 -15 2 -15 27 0 24 -3 30 -9 20 -7
-10 -10 -8 -16 10 -4 13 -15 33 -24 44 -15 18 -15 19 2 6 12 -9 17 -10 17 -2
0 6 -7 14 -15 17 -8 4 -15 15 -15 25 0 10 -7 19 -15 19 -8 0 -12 6 -9 14 3 7
-2 20 -10 28 -11 11 -12 18 -3 27 8 8 7 11 -6 11 -11 0 -17 8 -17 25 0 14 -3
24 -7 24 -20 -3 -24 2 -13 17 11 13 10 16 -8 21 -13 3 -23 14 -24 27 0 11 -2
26 -2 32 -1 6 -9 19 -19 28 -9 10 -15 21 -12 26 3 5 0 10 -7 12 -10 4 -17 23
-20 55 -1 10 -4 10 -16 0 -13 -10 -14 -9 -3 12 7 13 9 21 4 18 -4 -3 -14 1
-21 9 -7 8 -8 14 -2 14 5 0 10 5 10 10 0 6 -7 10 -16 10 -12 0 -15 6 -11 21 4
15 0 23 -14 26 -10 3 -19 10 -19 15 0 5 4 7 9 3 5 -3 13 0 17 6 5 8 3 9 -5 5
-8 -5 -14 0 -18 13 -3 12 -10 21 -15 21 -5 0 -6 5 -3 10 3 6 1 10 -4 10 -6 0
-10 3 -10 8 3 20 -2 32 -16 32 -9 0 -12 6 -8 16 4 10 0 22 -9 28 -8 6 -19 27
-24 47 -5 22 -14 34 -22 32z"/>
<path d="M1221 1154 c0 -11 3 -14 6 -6 3 7 2 16 -1 19 -3 4 -6 -2 -5 -13z"/>
<path d="M2150 1120 c0 -5 5 -10 11 -10 5 0 7 5 4 10 -3 6 -8 10 -11 10 -2 0
-4 -4 -4 -10z"/>
<path d="M235 491 c-3 -5 -2 -12 3 -15 5 -3 9 1 9 9 0 17 -3 19 -12 6z"/>
<path d="M1313 332 c-6 -4 -11 -25 -11 -46 0 -26 3 -34 9 -25 6 9 9 10 9 2 0
-7 12 -11 33 -9 l32 3 0 -86 c0 -47 -4 -92 -9 -100 -6 -10 -5 -12 2 -7 7 4 12
1 12 -8 0 -16 19 -23 21 -8 1 4 2 51 3 105 1 62 7 102 15 110 10 10 11 8 5 -8
-6 -16 -5 -18 7 -9 8 6 24 10 37 9 16 -1 21 3 18 12 -3 8 -1 11 4 8 6 -3 10
-1 10 4 0 14 -27 14 -35 1 -3 -5 -12 -10 -18 -10 -7 0 1 9 17 19 17 11 35 17
40 14 6 -4 5 0 -1 9 -7 8 -11 17 -8 19 7 8 -52 2 -64 -6 -6 -3 -11 -3 -11 2 0
9 -72 9 -88 -1 -6 -3 -12 -2 -14 4 -1 5 -8 6 -15 2z m15 -37 c-3 -3 -9 2 -12
12 -6 14 -5 15 5 6 7 -7 10 -15 7 -18z m89 9 c-3 -3 -12 -4 -19 -1 -8 3 -5 6
6 6 11 1 17 -2 13 -5z m37 -2 c3 -5 -1 -9 -9 -9 -8 0 -12 4 -9 9 3 4 7 8 9 8
2 0 6 -4 9 -8z m-84 -16 c0 -3 -4 -8 -10 -11 -5 -3 -10 -1 -10 4 0 6 5 11 10
11 6 0 10 -2 10 -4z"/>
<path d="M1535 332 c-3 -3 -5 -23 -5 -44 0 -27 4 -38 15 -38 13 0 14 4 5 23
-11 21 -10 21 4 3 19 -24 45 -29 65 -13 12 9 13 9 7 0 -5 -9 0 -13 13 -13 12
0 21 6 22 13 1 6 4 1 8 -13 5 -14 6 -28 4 -32 -2 -5 -35 -8 -74 -8 -53 0 -69
-3 -69 -14 0 -8 -5 -18 -11 -22 -8 -4 -9 1 -5 17 6 20 5 21 -4 6 -12 -19 -4
-41 11 -32 8 5 12 -6 11 -25 0 -3 10 -10 24 -17 16 -7 22 -7 17 -1 -3 7 -1 8
5 4 7 -4 12 -16 12 -27 0 -11 4 -18 9 -14 5 3 16 -4 24 -15 7 -11 17 -17 20
-13 4 3 7 2 7 -3 0 -5 13 -11 29 -12 33 -2 36 15 8 46 -9 10 -14 22 -10 27 5
4 2 5 -5 1 -10 -6 -9 -12 3 -29 8 -12 15 -26 15 -32 -1 -5 -7 1 -14 14 -8 15
-16 20 -20 12 -4 -6 -13 -11 -19 -11 -8 0 -7 4 2 9 8 5 16 19 18 30 2 16 -3
21 -18 21 -11 0 -18 4 -15 9 4 5 1 11 -6 13 -7 3 -5 7 6 11 10 4 15 3 11 -3
-3 -6 -1 -10 4 -10 6 0 11 5 11 11 0 8 4 8 13 1 20 -17 49 11 47 45 -3 43 -1
53 11 53 8 0 8 -4 1 -13 -7 -8 -7 -18 -2 -27 8 -12 10 -12 10 3 0 23 29 54 38
41 4 -5 22 -11 41 -13 26 -2 31 0 25 11 -6 10 -4 11 7 2 8 -5 30 -11 50 -13
29 -2 37 2 42 18 3 12 1 24 -4 27 -6 3 -5 11 2 20 6 8 9 15 5 15 -23 5 -33 4
-48 -3 -10 -5 -18 -5 -18 0 0 10 -30 9 -48 -2 -6 -4 -12 -3 -12 3 0 5 -9 8
-20 6 -23 -4 -67 -33 -62 -40 2 -3 2 -11 0 -17 -4 -11 -58 36 -58 50 0 9 -72
8 -87 -1 -7 -5 -13 -4 -13 1 0 9 -27 12 -35 4z m115 -16 c0 -2 -8 -10 -17 -17
-16 -13 -17 -12 -4 4 13 16 21 21 21 13z m-60 -10 c0 -2 -7 -7 -16 -10 -8 -3
-12 -2 -9 4 6 10 25 14 25 6z m177 -11 c0 -8 -3 -13 -5 -10 -3 3 -11 -3 -19
-13 -16 -19 -7 4 10 26 12 15 14 15 14 -3z m63 11 c0 -2 -7 -7 -16 -10 -8 -3
-12 -2 -9 4 6 10 25 14 25 6z m-220 -26 c0 -5 -4 -10 -10 -10 -5 0 -10 5 -10
10 0 6 5 10 10 10 6 0 10 -4 10 -10z m48 -4 c-7 -8 -15 -12 -17 -11 -5 6 10
25 20 25 5 0 4 -6 -3 -14z m244 -5 c-4 -10 -7 -11 -10 -3 -2 7 -8 10 -12 7 -5
-3 -11 -2 -14 3 -2 4 6 8 19 8 16 0 21 -4 17 -15z"/>
<path d="M1684 328 c3 -15 26 -23 26 -8 0 6 -4 9 -9 6 -5 -4 -12 -1 -14 4 -3
6 -4 5 -3 -2z"/>
<path d="M1970 326 c0 -9 5 -16 10 -16 6 0 10 4 10 9 0 6 -4 13 -10 16 -5 3
-10 -1 -10 -9z"/>
<path d="M2193 318 c-1 -10 3 -18 9 -18 6 0 8 -3 5 -6 -8 -8 -38 16 -33 25 7
11 -38 8 -49 -4 -5 -5 -11 -20 -11 -33 -1 -18 2 -21 20 -17 15 5 17 4 8 -3
-15 -10 -15 -17 0 -47 6 -11 7 -17 3 -13 -5 4 -15 2 -24 -5 -14 -10 -14 -10
-5 3 14 18 14 50 1 50 -5 0 -7 -6 -4 -14 3 -7 -1 -23 -9 -34 -13 -20 -13 -20
16 -17 17 2 28 0 25 -5 -3 -5 -19 -8 -35 -8 -23 1 -29 5 -27 22 1 15 -3 20
-16 18 -15 -3 -17 1 -12 17 6 19 -2 26 -27 22 -5 0 -8 4 -8 10 0 6 7 9 14 6
10 -4 13 -1 9 8 -3 8 -9 12 -14 9 -5 -3 -9 0 -9 6 0 6 -4 8 -10 5 -5 -3 -10
-3 -10 2 0 4 -11 9 -25 9 -20 2 -23 -1 -15 -11 8 -10 8 -15 -1 -21 -8 -5 -10
-3 -4 7 5 8 4 10 0 6 -12 -10 -15 -38 -4 -31 5 3 9 2 10 -3 5 -45 4 -63 -4
-63 -6 0 -6 -5 -1 -12 14 -20 10 -53 -6 -50 -12 3 -11 0 1 -15 9 -10 14 -24
11 -32 -3 -9 0 -11 9 -6 8 5 6 -1 -4 -13 -18 -20 -18 -20 0 -17 10 2 20 4 23
4 3 1 5 31 4 68 0 38 2 74 4 81 7 21 24 13 17 -8 -5 -16 -2 -20 14 -20 15 0
21 -6 21 -24 0 -19 5 -23 25 -21 17 2 23 0 18 -8 -10 -16 -13 -37 -5 -36 21 3
30 -3 28 -18 -1 -19 30 -25 52 -9 7 5 12 5 12 -1 0 -5 36 -9 80 -9 43 -1 79 2
78 5 -2 23 4 41 14 38 7 -1 14 9 16 23 4 33 4 172 -1 176 -2 2 -16 5 -30 6
-15 1 -29 8 -32 15 -3 10 0 11 13 4 14 -8 18 -5 19 12 0 12 -1 17 -4 10 -2 -7
-10 -10 -16 -7 -32 12 -83 9 -95 -6 -11 -13 -11 -13 -7 1 4 9 0 16 -8 16 -7 0
-14 -9 -14 -19z m-16 -37 c4 -14 6 -34 4 -43 -2 -13 3 -16 16 -12 17 5 17 5 1
-6 -11 -6 -15 -17 -11 -28 3 -9 2 -14 -2 -9 -5 4 -10 27 -11 52 -4 58 -10 68
-35 54 -19 -9 -19 -9 -10 10 14 26 39 17 48 -18z m91 -16 c-3 -3 -9 2 -12 12
-6 14 -5 15 5 6 7 -7 10 -15 7 -18z m35 -12 c27 1 43 -1 40 -7 -4 -5 -5 -33
-4 -61 1 -41 -2 -54 -14 -59 -9 -3 -22 -3 -27 1 -7 3 -8 1 -4 -5 9 -15 1 -15
-24 -2 -13 7 -21 7 -25 0 -5 -8 -11 -7 -21 1 -10 8 -14 8 -14 0 0 -6 -6 -11
-13 -11 -7 0 -17 -8 -23 -18 -10 -15 -8 -18 10 -20 15 -1 17 1 7 7 -9 6 -10
11 -2 15 6 4 11 2 11 -3 0 -6 0 -14 0 -18 0 -5 -6 -8 -13 -8 -6 0 -17 -4 -23
-8 -7 -4 -18 1 -25 11 -7 9 -9 14 -5 10 11 -10 35 21 36 45 0 9 -6 17 -12 18
-10 0 -10 2 0 6 6 2 10 9 6 14 -3 5 10 9 29 9 l34 0 -3 45 c-3 33 0 44 8 39 8
-5 9 -1 5 12 -7 18 -6 18 7 2 10 -13 25 -17 59 -15z m-43 -179 c0 -2 -11 2
-25 8 -14 6 -25 15 -25 20 0 5 11 1 25 -8 14 -9 25 -18 25 -20z m20 26 c13 -8
13 -10 -2 -10 -9 0 -20 5 -23 10 -8 13 5 13 25 0z m43 -35 c-3 -9 -8 -14 -10
-11 -3 3 -2 9 2 15 9 16 15 13 8 -4z"/>
<path d="M2452 330 c2 -25 -5 -40 -18 -40 -11 0 -14 -6 -10 -22 3 -13 3 -17 0
-10 -3 6 -10 12 -15 12 -6 0 -8 -4 -4 -9 3 -5 1 -12 -5 -16 -5 -3 -10 -11 -10
-16 0 -6 6 -7 13 -3 7 5 6 1 -3 -10 -17 -22 -21 -44 -10 -51 5 -3 7 -12 3 -20
-3 -8 0 -15 7 -15 7 0 10 -7 7 -14 -4 -11 -1 -13 11 -9 15 6 15 5 3 -11 -12
-15 -12 -17 0 -14 8 2 13 -3 11 -11 -2 -11 0 -12 11 -2 12 9 16 8 21 -4 3 -9
2 -14 -2 -11 -4 2 -14 1 -21 -3 -7 -5 12 -8 43 -8 31 1 56 4 56 9 0 4 8 5 18
2 9 -3 6 2 -8 11 -23 15 -24 15 -2 10 13 -4 22 -2 22 4 0 6 6 10 13 8 9 -1 13
23 14 93 1 52 0 89 -3 83 -3 -7 -10 -13 -15 -13 -6 0 -8 4 -5 9 10 15 -6 43
-20 37 -19 -7 -18 -1 4 20 15 15 15 17 1 12 -9 -4 -22 -1 -28 5 -8 8 -11 8
-11 -1 0 -7 5 -12 12 -12 6 0 8 -3 4 -7 -4 -5 -13 -1 -19 7 -11 14 -66 23 -65
10z m43 -30 c-3 -5 -12 -10 -18 -10 -7 0 -6 4 3 10 19 12 23 12 15 0z m42 -49
c16 -1 20 -6 16 -21 -3 -11 0 -20 6 -20 6 0 11 -11 11 -25 0 -14 -5 -25 -11
-25 -5 0 -7 5 -3 12 4 6 3 8 -4 4 -6 -3 -9 -17 -6 -31 2 -13 0 -27 -6 -30 -5
-3 -10 -1 -10 6 0 8 -5 7 -17 -2 -14 -12 -17 -12 -21 0 -4 11 -6 11 -13 0 -7
-11 -9 -11 -9 -1 0 8 -5 10 -12 6 -7 -5 -9 -2 -5 9 4 12 2 14 -11 10 -15 -6
-15 -5 -3 10 12 15 11 17 -5 18 -18 0 -18 1 1 9 17 7 17 9 3 9 -11 1 -15 6
-12 16 4 8 10 13 14 10 5 -3 11 -1 15 5 3 5 -1 10 -10 10 -12 0 -13 3 -4 13 7
7 26 12 43 11 17 -1 41 -2 53 -3z m50 -146 c0 -8 -4 -12 -9 -9 -5 3 -6 10 -3
15 9 13 12 11 12 -6z m-95 -12 c-6 -2 -9 -10 -6 -15 4 -7 2 -8 -5 -4 -13 9 -5
26 12 25 9 0 8 -2 -1 -6z"/>
<path d="M724 321 c9 -15 -5 -42 -18 -34 -6 4 -4 -2 4 -12 9 -11 10 -16 3 -11
-7 4 -14 2 -14 -3 -1 -6 -3 -15 -4 -21 -1 -5 -3 -17 -4 -26 0 -8 -5 -13 -9
-10 -5 3 -9 -1 -9 -9 0 -8 4 -12 9 -9 4 3 8 0 8 -5 0 -6 -6 -11 -14 -11 -7 0
-13 -8 -13 -18 0 -39 -3 -53 -12 -48 -5 4 -7 -4 -3 -16 4 -15 2 -19 -7 -13
-10 6 -11 3 -2 -14 7 -11 14 -21 17 -21 3 0 2 5 -2 12 -5 7 -3 8 7 2 8 -5 50
-9 94 -10 l80 -2 0 43 c0 35 -3 41 -13 32 -7 -6 -12 -6 -11 -1 6 34 -3 94 -13
92 -12 -3 -14 5 -17 60 -1 15 -7 22 -20 22 -14 0 -18 5 -14 20 4 14 0 20 -11
20 -10 0 -15 -4 -12 -9z m17 -78 c-9 -4 -10 -8 -2 -12 6 -4 12 -19 13 -34 1
-15 8 -27 15 -27 7 0 13 -11 13 -26 0 -14 -4 -22 -10 -19 -5 3 -20 -3 -32 -14
-12 -12 -26 -21 -32 -21 -5 0 -1 6 10 14 16 13 17 17 5 28 -8 8 -11 8 -7 1 3
-6 1 -15 -6 -19 -7 -4 -10 -4 -6 1 4 4 3 16 -2 26 -7 12 -6 20 2 25 7 5 8 2 3
-7 -5 -10 -5 -11 3 -4 6 6 12 26 13 45 3 43 7 50 22 49 8 0 7 -3 -2 -6z m39
-144 c0 -5 -4 -7 -10 -4 -5 3 -10 -2 -10 -11 0 -10 -3 -15 -6 -11 -9 9 3 37
16 37 5 0 10 -5 10 -11z"/>
<path d="M869 323 c-1 -5 -2 -28 -3 -53 -1 -33 -5 -44 -15 -42 -12 3 -12 1 0
-14 16 -19 18 -41 6 -66 -4 -10 -4 -18 1 -18 5 0 8 -13 7 -29 -1 -16 0 -33 4
-38 11 -17 38 -22 51 -10 10 9 11 9 6 0 -4 -8 12 -11 61 -8 83 3 79 2 81 18 3
34 10 51 23 55 10 2 11 1 2 -5 -7 -5 -9 -14 -3 -22 4 -8 6 -20 3 -28 -6 -15
-11 -14 95 -19 l82 -4 -1 48 c0 26 -3 41 -6 35 -3 -9 -10 -10 -23 -3 -13 7
-21 7 -25 0 -4 -6 -11 -7 -17 -4 -7 5 -8 2 -3 -7 8 -12 6 -12 -9 0 -9 8 -29
16 -43 17 -30 3 -41 12 -27 22 11 8 12 151 1 170 -5 6 -13 12 -18 12 -6 0 -9
-6 -6 -12 2 -7 9 -12 14 -11 5 1 10 -5 10 -12 0 -10 -4 -12 -12 -5 -7 5 -16 6
-20 2 -5 -4 -6 -2 -2 3 3 6 2 17 -2 24 -5 7 -8 0 -9 -21 0 -18 5 -39 11 -47 9
-12 9 -13 0 -7 -8 4 -13 1 -13 -9 0 -10 5 -13 13 -9 9 6 9 4 1 -7 -16 -20 -13
-75 4 -71 8 1 11 -2 7 -8 -3 -6 -10 -8 -15 -5 -7 4 -20 -22 -24 -49 0 -5 -8
-11 -16 -13 -9 -3 -11 -1 -5 4 14 11 19 47 6 38 -6 -3 -11 -1 -11 6 0 8 -4 9
-13 0 -10 -8 -17 -7 -27 2 -10 10 -11 9 -5 -2 6 -11 4 -13 -9 -8 -10 4 -15 3
-11 -3 3 -6 2 -10 -3 -10 -6 0 -13 8 -17 17 -7 17 -8 16 -15 -2 l-9 -20 0 20
c-1 17 -3 17 -11 5 -9 -13 -10 -13 -11 0 -5 56 -3 107 4 118 6 7 6 12 -1 12
-5 0 -8 14 -7 30 1 17 -2 30 -9 30 -6 0 -4 5 4 10 13 8 12 10 -2 10 -10 0 -19
-3 -19 -7z m246 -123 c3 -6 -1 -7 -9 -4 -18 7 -21 14 -7 14 6 0 13 -4 16 -10z
m-10 -31 c-4 -5 -12 -9 -18 -8 -9 0 -8 2 1 6 6 2 9 10 6 15 -4 7 -2 8 5 4 6
-4 9 -12 6 -17z m57 -71 c-7 -7 -12 -8 -12 -2 0 14 12 26 19 19 2 -3 -1 -11
-7 -17z m-137 2 c3 -5 1 -10 -4 -10 -6 0 -11 5 -11 10 0 6 2 10 4 10 3 0 8 -4
11 -10z m221 -8 c1 -7 0 -8 -2 -3 -3 6 -12 7 -21 4 -11 -4 -14 -3 -9 6 9 14
29 10 32 -7z m-249 -14 c-3 -8 -6 -5 -6 6 -1 11 2 17 5 13 3 -3 4 -12 1 -19z
m-47 2 c0 -5 -2 -10 -4 -10 -3 0 -8 5 -11 10 -3 6 -1 10 4 10 6 0 11 -4 11
-10z m240 6 c0 -3 -4 -8 -10 -11 -5 -3 -10 -1 -10 4 0 6 5 11 10 11 6 0 10 -2
10 -4z m-295 -16 c3 -6 -1 -7 -9 -4 -18 7 -21 14 -7 14 6 0 13 -4 16 -10z"/>
<path d="M2066 233 c-6 -14 -5 -15 5 -6 7 7 10 15 7 18 -3 3 -9 -2 -12 -12z"/>
<path d="M1940 220 c0 -5 -41 -9 -95 -9 -53 0 -100 -3 -105 -6 -17 -11 -11
-35 9 -35 11 0 23 -5 26 -10 5 -8 11 -8 20 0 10 8 15 8 20 0 5 -8 11 -8 21 1
11 9 14 8 14 -2 0 -12 2 -12 9 -1 11 18 12 18 40 3 14 -8 21 -9 17 -2 -4 6 0
11 9 11 9 0 14 -4 10 -9 -3 -5 -2 -12 3 -15 4 -2 8 15 8 40 0 24 -1 44 -3 44
-2 0 -3 -4 -3 -10z"/>
<path d="M1871 137 c-11 -15 -48 -17 -68 -4 -6 4 -14 3 -18 -3 -4 -6 -11 -7
-17 -4 -7 5 -8 2 -4 -5 5 -7 1 -17 -7 -24 -9 -7 -17 -21 -19 -32 -3 -19 3 -20
99 -21 86 -1 100 1 95 14 -4 11 -2 13 9 7 12 -8 12 -6 0 9 -8 9 -23 15 -33 13
-14 -4 -16 -2 -8 13 7 13 7 21 0 25 -5 3 -10 -1 -10 -9 0 -8 -5 -18 -10 -21
-11 -7 -9 23 3 43 11 16 2 15 -12 -1z m-77 -29 c-7 -23 -6 -23 15 -4 11 11 21
14 21 8 0 -7 5 -11 11 -9 6 1 14 -5 16 -13 3 -9 1 -11 -4 -5 -13 16 -46 19
-37 3 4 -7 4 -10 -1 -6 -4 4 -14 3 -20 -2 -9 -8 -12 -4 -10 12 4 35 5 38 11
38 3 0 2 -10 -2 -22z m-30 -46 c3 -5 -1 -9 -9 -9 -8 0 -12 4 -9 9 7 10 11 10
18 0z"/>
<path d="M1735 120 c-3 -5 -1 -10 4 -10 6 0 11 5 11 10 0 6 -2 10 -4 10 -3 0
-8 -4 -11 -10z"/>
<path d="M1913 118 c2 -14 17 -28 30 -28 4 0 2 9 -5 20 -14 22 -29 27 -25 8z"/>
</g>
</svg>
