<svg width="40" height="40" viewBox="0 0 40 40" fill="none" xmlns="http://www.w3.org/2000/svg">
<g clip-path="url(#clip0_39_559)">
<path d="M32.5002 31.667H24.1668C23.7068 31.667 23.3335 31.2937 23.3335 30.8337C23.3335 30.3737 23.7068 30.0003 24.1668 30.0003H32.5002C33.8785 30.0003 35.0002 28.8787 35.0002 27.5003V25.8337C35.0002 25.3737 35.3735 25.0003 35.8335 25.0003H37.4852C37.9452 25.0003 38.3185 24.627 38.3185 24.167V14.167C38.3185 13.707 37.9452 13.3337 37.4852 13.3337H35.8335C35.3735 13.3337 35.0002 12.9603 35.0002 12.5003V10.8337C35.0002 9.45533 33.8785 8.33366 32.5002 8.33366H27.5002C27.0402 8.33366 26.6668 7.96033 26.6668 7.50033C26.6668 7.04033 27.0402 6.66699 27.5002 6.66699H32.5002C34.7968 6.66699 36.6668 8.53699 36.6668 10.8337V11.667H37.4852C38.8635 11.667 39.9852 12.7887 39.9852 14.167V24.167C39.9852 25.5453 38.8635 26.667 37.4852 26.667H36.6668V27.5003C36.6668 29.797 34.7968 31.667 32.5002 31.667Z" fill="white"/>
<path d="M10.8333 31.667H4.16667C1.87 31.667 0 29.797 0 27.5003V10.8337C0 8.53699 1.87 6.66699 4.16667 6.66699H15.8333C16.2933 6.66699 16.6667 7.04033 16.6667 7.50033C16.6667 7.96033 16.2933 8.33366 15.8333 8.33366H4.16667C2.78833 8.33366 1.66667 9.45533 1.66667 10.8337V27.5003C1.66667 28.8787 2.78833 30.0003 4.16667 30.0003H10.8333C11.2933 30.0003 11.6667 30.3737 11.6667 30.8337C11.6667 31.2937 11.2933 31.667 10.8333 31.667Z" fill="white"/>
<path d="M15.5051 35.0004C15.3734 35.0004 15.2384 34.9687 15.1151 34.9037C14.7567 34.7137 14.5867 34.292 14.7151 33.9054L18.2051 23.3337H11.6667C11.3567 23.3337 11.0734 23.162 10.9284 22.887C10.7851 22.612 10.8051 22.2804 10.9817 22.0254L22.5251 5.3587C22.7517 5.03204 23.1834 4.91537 23.5434 5.0687C23.9084 5.2287 24.1101 5.62371 24.0251 6.01204L21.6784 16.667H28.3334C28.65 16.667 28.94 16.847 29.0817 17.132C29.2217 17.417 29.1867 17.757 28.9934 18.0087L16.1651 34.6754C16.0034 34.887 15.7567 35.0004 15.5051 35.0004ZM13.2584 21.667H19.3584C19.6267 21.667 19.8767 21.7954 20.0334 22.012C20.1901 22.2287 20.2334 22.507 20.1484 22.762L17.8317 29.777L26.6401 18.3337H20.6417C20.3901 18.3337 20.1501 18.2187 19.9917 18.022C19.8334 17.8254 19.7734 17.567 19.8267 17.3204L21.4867 9.78537L13.2584 21.667Z" fill="white"/>
</g>
<defs>
<clipPath id="clip0_39_559">
<rect width="40" height="40" fill="white"/>
</clipPath>
</defs>
</svg>
