<svg width="40" height="40" viewBox="0 0 40 40" fill="none" xmlns="http://www.w3.org/2000/svg">
<g clip-path="url(#clip0_2816_786)">
<path d="M38.6094 27.2659L35.2841 22.9412L36.7378 16.209C36.7894 15.9703 36.7003 15.7231 36.5084 15.5715C36.3166 15.4203 36.0553 15.3915 35.835 15.4971L31.4025 17.6246C30.9912 17.8234 30.5119 17.8234 30.1009 17.6246L25.6684 15.4971C25.4491 15.3918 25.1887 15.42 24.9969 15.5696C24.805 15.7196 24.715 15.9653 24.7644 16.2037L26.1578 22.9409L23.2403 26.794C23.1881 26.7931 23.1359 26.7996 23.0803 26.7996H19.68V24.9484C20.1353 24.6437 20.5541 24.2878 20.9281 23.8878C22.5856 22.2031 23.5162 19.9356 23.52 17.5725V12.9596C23.8734 12.9596 24.16 12.6731 24.16 12.3196V9.51965C24.16 9.26652 24.0103 9.03715 23.7787 8.93465C23.7675 8.75871 23.7516 8.57027 23.73 8.39621C23.1875 3.98121 19.3812 0.639648 14.8762 0.639648H14.4762C12.1559 0.639648 9.92625 1.54027 8.25719 3.15152C6.67781 4.65871 5.71875 6.70184 5.56812 8.87965H5.12C4.76656 8.87965 4.48 9.16621 4.48 9.51965V12.3196C4.48 12.6731 4.76656 12.9596 5.12 12.9596H5.84V17.5725C5.84 17.6059 5.84344 17.6396 5.84375 17.6734C5.835 17.7403 5.83719 17.8084 5.85031 17.875C5.91812 20.1287 6.83 22.275 8.40531 23.8881C8.77844 24.264 9.1775 24.6134 9.6 24.9331V26.7996H6.26406C2.8275 26.7996 0 29.5812 0 33.0175V37.1612C0.011875 37.5284 0.305 37.8243 0.671875 37.8396H23.4081C24.4825 38.8165 25.8825 39.3584 27.3347 39.3596H34.17C36.2631 39.3531 38.1912 38.2228 39.2194 36.3996C39.2203 36.3981 39.2372 36.3903 39.2381 36.3884C39.7319 35.5184 39.9941 34.5362 40 33.5356V31.7668C39.9956 30.1803 39.5275 28.6293 38.6534 27.3053C38.6447 27.2918 38.6194 27.2787 38.6094 27.2659V27.2659ZM29.5469 18.7787C30.3081 19.1462 31.1953 19.1462 31.9566 18.7787L35.2106 17.2168L34.0741 22.4806L27.3653 22.4575L26.28 17.2106L29.5469 18.7787ZM9.14344 4.07559C10.5747 2.69309 12.4866 1.92027 14.4762 1.91965H14.8762C18.7356 1.91965 21.9962 4.77809 22.4597 8.55215C22.4725 8.65652 22.4825 8.77434 22.4912 8.87965H6.85219C7.00125 7.05152 7.81656 5.34184 9.14344 4.07559V4.07559ZM5.76 11.6796V10.1596H22.88V11.6796H5.76ZM7.12 12.9596H22.24V17.1196H17.2319L14.9731 15.915C14.785 15.8146 14.5591 15.8146 14.3709 15.915L12.1119 17.1196H7.12V12.9596ZM9.34156 22.995C8.12156 21.7509 7.35656 20.1321 7.16969 18.3996H12.2719C12.3769 18.3996 12.4803 18.3737 12.5731 18.3243L14.6719 17.205L16.7709 18.3243C16.8634 18.3737 16.9669 18.3996 17.0719 18.3996H22.1744C21.9878 20.1321 21.2225 21.7509 20.0025 22.995C18.5684 24.4681 16.6753 25.2796 14.6719 25.2796C12.6687 25.2796 10.7759 24.4681 9.34156 22.995ZM18.4 25.7071V27.07L17.3337 27.7356C15.6353 28.7837 13.4853 28.7606 11.8103 27.6756L10.88 27.079V25.6968C12.0569 26.2618 13.3453 26.5565 14.6509 26.5596C15.9491 26.565 17.2316 26.2734 18.4 25.7071V25.7071ZM1.28 36.5596V33.8396H21.5419C21.5869 34.7381 21.8394 35.6137 22.2797 36.3978C22.2806 36.399 22.2812 36.41 22.2819 36.4112C22.3156 36.4568 22.3428 36.5068 22.3631 36.5596H1.28ZM21.52 31.7384V32.5596H1.33656C1.57062 30.0153 3.70906 28.0709 6.26406 28.0796H10.0875L11.1306 28.754C13.2159 30.1109 15.8972 30.1418 18.0128 28.8325L19.2278 28.0796H22.4106C21.8278 29.2115 21.5228 30.4656 21.52 31.7384ZM38.72 33.5356C38.7141 34.3125 38.5091 35.0746 38.1247 35.7496C38.1237 35.7512 38.115 35.765 38.1144 35.7665C37.3106 37.1903 35.8044 38.0737 34.1694 38.0796H27.3341C25.7022 38.0734 24.1997 37.1915 23.3987 35.7696C23.3981 35.7684 23.39 35.7612 23.3894 35.76C23.0059 35.0812 22.8031 34.3153 22.8 33.5356V31.7384C22.8019 30.4262 23.1803 29.1418 23.8903 28.0384L27.1569 23.7371L34.2984 23.7618L37.5947 28.0265C38.3241 29.1381 38.715 30.4375 38.72 31.7668V33.5356Z" fill="white"/>
<path d="M30.7519 27.4829C31.5069 27.4839 32.1185 28.0954 32.1194 28.8504C32.1194 29.2039 32.406 29.4904 32.7594 29.4904C33.1129 29.4904 33.3994 29.2039 33.3994 28.8504C33.3975 27.5923 32.5122 26.5086 31.28 26.2561V25.7601C31.28 25.4067 30.9935 25.1201 30.64 25.1201C30.2866 25.1201 30 25.4067 30 25.7601V26.312C28.7388 26.6854 27.9429 27.9286 28.1316 29.2304C28.3204 30.532 29.4366 31.4979 30.7519 31.4976C31.5072 31.4973 32.1194 32.1095 32.1194 32.8648C32.1194 33.6201 31.5072 34.2323 30.7522 34.2323C29.9969 34.2323 29.3847 33.6201 29.3847 32.8648C29.3847 32.5114 29.0982 32.2248 28.7447 32.2248C28.3913 32.2248 28.1047 32.5114 28.1047 32.8648C28.1063 34.0367 28.8769 35.0686 30 35.4029V36.0001C30 36.3536 30.2866 36.6401 30.64 36.6401C30.9935 36.6401 31.28 36.3536 31.28 36.0001V35.4592C32.6119 35.1879 33.5219 33.952 33.3857 32.5998C33.2494 31.2473 32.1113 30.2179 30.7519 30.2176C29.9969 30.2176 29.3847 29.6054 29.3847 28.8504C29.3847 28.0951 29.9969 27.4829 30.7519 27.4829V27.4829Z" fill="white"/>
<path d="M13.1826 15.0452C13.1826 14.0583 12.2245 13.2852 11.0007 13.2852C9.77729 13.2852 8.81885 14.058 8.81885 15.0452C8.81885 16.032 9.77729 16.8052 11.0007 16.8052C12.2245 16.8052 13.1826 16.032 13.1826 15.0452ZM11.0007 15.5252C10.4504 15.5252 10.0988 15.2408 10.0988 15.0452C10.0988 14.8492 10.4504 14.5652 11.0007 14.5652C11.5513 14.5652 11.9026 14.8492 11.9026 15.0452C11.9026 15.2408 11.5517 15.5248 11.0007 15.5248V15.5252Z" fill="white"/>
<path d="M18.3435 16.8052C19.5672 16.8052 20.5254 16.032 20.5254 15.0452C20.5254 14.058 19.5672 13.2852 18.3435 13.2852C17.1201 13.2852 16.1616 14.058 16.1616 15.0452C16.1616 16.032 17.1201 16.8052 18.3435 16.8052V16.8052ZM18.3435 14.5655C18.8941 14.5655 19.2454 14.8495 19.2454 15.0455C19.2454 15.2414 18.8941 15.5255 18.3435 15.5255C17.7929 15.5255 17.4416 15.2414 17.4416 15.0455C17.4416 14.8495 17.7932 14.5655 18.3435 14.5655Z" fill="white"/>
</g>
<defs>
<clipPath id="clip0_2816_786">
<rect width="40" height="40" fill="white"/>
</clipPath>
</defs>
</svg>
