<svg width="40" height="40" viewBox="0 0 40 40" fill="none" xmlns="http://www.w3.org/2000/svg">
<g clip-path="url(#clip0_2816_801)">
<path d="M35.8333 40H4.16667C1.86833 40 0 38.1317 0 35.8333V4.16667C0 1.86833 1.86833 0 4.16667 0H35.8333C38.1317 0 40 1.86833 40 4.16667V35.8333C40 38.1317 38.1317 40 35.8333 40ZM4.16667 1.66667C2.78833 1.66667 1.66667 2.78833 1.66667 4.16667V35.8333C1.66667 37.2117 2.78833 38.3333 4.16667 38.3333H35.8333C37.2117 38.3333 38.3333 37.2117 38.3333 35.8333V4.16667C38.3333 2.78833 37.2117 1.66667 35.8333 1.66667H4.16667Z" fill="white"/>
<path d="M24.1668 31.6663H15.8335C14.4552 31.6663 13.3335 30.5447 13.3335 29.1663V10.833C13.3335 9.45467 14.4552 8.33301 15.8335 8.33301H24.1668C25.5452 8.33301 26.6668 9.45467 26.6668 10.833V29.1663C26.6668 30.5447 25.5452 31.6663 24.1668 31.6663ZM15.8335 9.99967C15.3752 9.99967 15.0002 10.3747 15.0002 10.833V29.1663C15.0002 29.6247 15.3752 29.9997 15.8335 29.9997H24.1668C24.6252 29.9997 25.0002 29.6247 25.0002 29.1663V10.833C25.0002 10.3747 24.6252 9.99967 24.1668 9.99967H15.8335Z" fill="white"/>
<path d="M22.4998 26.6667H17.4998C17.0398 26.6667 16.6665 26.2933 16.6665 25.8333C16.6665 25.3733 17.0398 25 17.4998 25H22.4998C22.9598 25 23.3332 25.3733 23.3332 25.8333C23.3332 26.2933 22.9598 26.6667 22.4998 26.6667Z" fill="white"/>
</g>
<defs>
<clipPath id="clip0_2816_801">
<rect width="40" height="40" fill="white"/>
</clipPath>
</defs>
</svg>
