<svg width="23" height="31" viewBox="0 0 23 31" fill="none" xmlns="http://www.w3.org/2000/svg">
<path d="M10.854 27.2676H11.8673V28.2704H10.854V27.2676Z" fill="white"/>
<path d="M17.4403 7.16124H17.4402C16.5368 7.16221 15.6468 7.37884 14.8459 7.79276C14.091 8.1829 13.4362 8.73747 12.9304 9.41397V3.70132C12.9304 3.55491 12.8716 3.4146 12.7672 3.31123C12.6628 3.20788 12.5212 3.1499 12.3738 3.1499H11.9171V0.191406V0.141406H11.8671H10.8538H10.8038V0.191406V3.1499H10.3471C10.1997 3.1499 10.0581 3.20788 9.95371 3.31123C9.84926 3.4146 9.79048 3.55491 9.79048 3.70132V9.41397C9.28466 8.73747 8.62985 8.1829 7.87497 7.79276C7.07407 7.37884 6.18413 7.16221 5.28065 7.16124H5.28059H4.26728C4.11982 7.16124 3.97829 7.21921 3.87385 7.32256C3.7694 7.42593 3.71063 7.56624 3.71063 7.71265V8.16407H0.720703H0.670703V8.21407V9.2169V9.2669H0.720703H3.71063V9.71832C3.71063 9.86473 3.7694 10.005 3.87385 10.1084C3.97829 10.2118 4.11982 10.2697 4.26728 10.2697H5.28053C5.93908 10.2705 6.57032 10.5298 7.03583 10.9905C7.50132 11.4511 7.76308 12.0756 7.76386 12.7269V14.1811H7.30721C7.15974 14.1811 7.01821 14.239 6.91378 14.3424C6.80933 14.4458 6.75056 14.5861 6.75056 14.7325V29.775C6.75056 29.9214 6.80933 30.0617 6.91378 30.1651C7.01821 30.2684 7.15974 30.3264 7.30721 30.3264H15.4137C15.5611 30.3264 15.7027 30.2684 15.8071 30.1651C15.9116 30.0617 15.9703 29.9214 15.9703 29.775V14.7325C15.9703 14.5861 15.9116 14.4458 15.8071 14.3424C15.7027 14.239 15.5611 14.1811 15.4137 14.1811H14.957V12.7269C14.9578 12.0756 15.2196 11.4511 15.6851 10.9905C16.1506 10.5298 16.7818 10.2705 17.4404 10.2697H18.4536C18.6011 10.2697 18.7426 10.2118 18.847 10.1084C18.9515 10.005 19.0103 9.86473 19.0103 9.71832V9.2669H22.0002H22.0502V9.2169V8.21407V8.16407H22.0002H19.0103V7.71265C19.0103 7.56624 18.9515 7.42593 18.847 7.32256C18.7426 7.21921 18.6011 7.16124 18.4536 7.16124H17.4403ZM5.28066 9.1669H5.28059H4.82394V8.26407H5.28054C6.47641 8.26538 7.62282 8.73612 8.46827 9.57283C9.31371 10.4095 9.78916 11.5438 9.79048 12.7269V14.1811H8.87717V12.7268V12.7268C8.87595 11.7828 8.49651 10.878 7.82224 10.2107C7.14799 9.54343 6.23397 9.16811 5.28066 9.1669ZM11.3604 16.1867H7.86387V15.2839H14.857V16.1867H13.3871H13.3371V16.2367V17.2396V17.2896H13.3871H14.857V29.2236H7.86387V17.2896H11.3604H11.4104V17.2396V16.2367V16.1867H11.3604ZM17.4404 8.26407H17.897V9.1669H17.4403H17.4402C16.4869 9.16811 15.5729 9.54343 14.8986 10.2107C14.2244 10.878 13.8449 11.7828 13.8437 12.7268V12.7268V14.1811H12.9304V12.7269C12.9317 11.5438 13.4072 10.4095 14.2526 9.57283C15.0981 8.73612 16.2445 8.26538 17.4404 8.26407ZM10.9038 12.7268V4.25274H11.8171V14.1811H10.9038V12.7268Z" fill="white" stroke="white" stroke-width="0.1"/>
<path d="M8.82715 27.2676H9.84046V28.2704H8.82715V27.2676Z" fill="white"/>
</svg>
