<svg width="27" height="21" viewBox="0 0 27 21" fill="none" xmlns="http://www.w3.org/2000/svg">
<path d="M0.665666 10.1678H7.6707C8.03777 10.1678 8.33637 9.87745 8.33637 9.52063V6.50753C8.33637 6.15066 8.03777 5.86035 7.6707 5.86035L0.665666 5.86035C0.298599 5.8603 0 6.15061 0 6.50748L0 9.52058C0 9.8774 0.298599 10.1678 0.665666 10.1678ZM0.837517 6.67455L7.49875 6.67455L7.49875 9.3535L0.837517 9.3535L0.837517 6.67455Z" fill="white" stroke="white" stroke-width="0.4"/>
<path d="M16.9441 5.86035L9.9391 5.86035C9.57204 5.86035 9.27344 6.15066 9.27344 6.50753V9.52063C9.27344 9.87745 9.57204 10.1678 9.9391 10.1678H16.9441C17.3112 10.1678 17.6098 9.87745 17.6098 9.52063V6.50753C17.6098 6.15066 17.3112 5.86035 16.9441 5.86035ZM16.7723 9.35356L10.111 9.35356V6.6746L16.7722 6.6746V9.35356H16.7723Z" fill="white" stroke="white" stroke-width="0.4"/>
<path d="M26.2171 5.86035L19.2121 5.86035C18.845 5.86035 18.5464 6.15066 18.5464 6.50753V9.52063C18.5464 9.87745 18.845 10.1678 19.2121 10.1678H26.2171C26.5842 10.1678 26.8828 9.87745 26.8828 9.52063V6.50753C26.8827 6.15066 26.5841 5.86035 26.2171 5.86035ZM19.3839 9.35356V6.6746L26.0451 6.6746V9.35356L19.3839 9.35356Z" fill="white" stroke="white" stroke-width="0.4"/>
<path d="M7.6706 15.9063L0.665666 15.9062C0.298599 15.9062 0 16.1965 0 16.5534L0 17.3222C0 17.5471 0.187498 17.7294 0.418785 17.7294C0.650072 17.7294 0.837569 17.5471 0.837569 17.3222L0.837569 16.7205H7.4988L7.4988 19.3995H0.837517L0.837517 18.8331C0.837517 18.6083 0.650019 18.426 0.418732 18.426C0.187445 18.426 0 18.6083 0 18.8331L0 19.5666C0 19.9235 0.298599 20.2138 0.665666 20.2138H7.6707C8.03777 20.2138 8.33637 19.9235 8.33637 19.5666V16.5535C8.33626 16.1965 8.03766 15.9063 7.6706 15.9063Z" fill="white" stroke="white" stroke-width="0.4"/>
<path d="M16.9441 15.9063L9.9391 15.9062C9.57204 15.9062 9.27344 16.1966 9.27344 16.5534V19.5665C9.27344 19.9234 9.57204 20.2137 9.9391 20.2137H16.9441C17.3112 20.2137 17.6098 19.9234 17.6098 19.5665V16.5534C17.6098 16.1966 17.3112 15.9063 16.9441 15.9063ZM16.7723 19.3994H10.111V16.7205H16.7722V19.3994H16.7723Z" fill="white" stroke="white" stroke-width="0.4"/>
<path d="M26.2171 15.9063L19.2121 15.9062C18.845 15.9062 18.5464 16.1966 18.5464 16.5534V19.5665C18.5464 19.9234 18.845 20.2137 19.2121 20.2137H26.2171C26.5842 20.2137 26.8828 19.9234 26.8828 19.5665V16.5534C26.8827 16.1966 26.5841 15.9063 26.2171 15.9063ZM19.3839 19.3994V16.7205H26.0451V19.3994H19.3839Z" fill="white" stroke="white" stroke-width="0.4"/>
<path d="M5.63827 5.09462L12.6433 5.09462C13.0104 5.09462 13.309 4.80431 13.309 4.44744V1.43428C13.309 1.07741 13.0104 0.787109 12.6433 0.787109L5.63827 0.787109C5.27126 0.787109 4.97266 1.07741 4.97266 1.43428L4.97266 4.44739C4.97266 4.80431 5.27126 5.09462 5.63827 5.09462ZM5.81017 1.60141L12.4714 1.60141V4.28037L5.81017 4.28037L5.81017 1.60141Z" fill="white" stroke="white" stroke-width="0.4"/>
<path d="M14.9117 5.09462L21.9167 5.09462C22.2838 5.09462 22.5824 4.80431 22.5824 4.44744V1.43428C22.5824 1.07741 22.2838 0.787109 21.9167 0.787109L20.567 0.787109C20.3357 0.787109 20.1482 0.969399 20.1482 1.19426C20.1482 1.41912 20.3357 1.60141 20.567 1.60141L21.7448 1.60141V4.28037L15.0836 4.28037V1.60141L18.9483 1.60141C19.1796 1.60141 19.3671 1.41912 19.3671 1.19426C19.3671 0.969399 19.1796 0.787109 18.9483 0.787109L14.9118 0.787109C14.5447 0.787109 14.2461 1.07741 14.2461 1.43428L14.2461 4.44739C14.246 4.80431 14.5447 5.09462 14.9117 5.09462Z" fill="white" stroke="white" stroke-width="0.4"/>
<path d="M5.63827 10.9336C5.27126 10.9336 4.97266 11.2239 4.97266 11.5808L4.97266 14.5939C4.97266 14.9508 5.27126 15.2411 5.63827 15.2411H12.6433C13.0104 15.2411 13.309 14.9508 13.309 14.5939V11.5808C13.309 11.2239 13.0104 10.9336 12.6433 10.9336L5.63827 10.9336ZM12.4714 14.4268L5.81017 14.4268L5.81017 11.7478L12.4714 11.7478V14.4268Z" fill="white" stroke="white" stroke-width="0.4"/>
<path d="M14.2461 11.5808V14.5939C14.2461 14.9508 14.5447 15.2411 14.9118 15.2411H21.9168C22.2839 15.2411 22.5825 14.9508 22.5825 14.5939V11.5808C22.5825 11.2239 22.2839 10.9336 21.9168 10.9336L14.9118 10.9336C14.5447 10.9336 14.2461 11.2239 14.2461 11.5808ZM15.0837 11.7478L21.7449 11.7478V14.4268L15.0837 14.4268V11.7478Z" fill="white" stroke="white" stroke-width="0.4"/>
<path d="M26.217 0.787109L24.1847 0.787109C23.8176 0.787109 23.519 1.07741 23.519 1.43428V4.44739C23.519 4.80426 23.8176 5.09457 24.1847 5.09457H26.217C26.5841 5.09457 26.8827 4.80426 26.8827 4.44739V1.43423C26.8827 1.07741 26.5841 0.787109 26.217 0.787109ZM26.0452 4.28032H24.3566V1.60136L26.0452 1.60136V4.28032Z" fill="white" stroke="white" stroke-width="0.4"/>
<path d="M26.217 10.9336H24.1847C23.8176 10.9336 23.519 11.2239 23.519 11.5808V14.5939C23.519 14.9508 23.8176 15.2411 24.1847 15.2411H26.217C26.5841 15.2411 26.8827 14.9508 26.8827 14.5939V11.5808C26.8827 11.2239 26.5841 10.9336 26.217 10.9336ZM26.0452 14.4268H24.3566V11.7478H26.0452V14.4268Z" fill="white" stroke="white" stroke-width="0.4"/>
<path d="M0.665666 5.09462L3.37007 5.09462C3.73714 5.09462 4.03574 4.80431 4.03574 4.44744L4.03574 1.43428C4.03574 1.07741 3.73714 0.787109 3.37007 0.787109L0.665666 0.787109C0.298599 0.78716 0 1.07747 0 1.43428L0 4.44739C0 4.80431 0.298599 5.09462 0.665666 5.09462ZM0.837517 1.60141L3.19822 1.60141L3.19822 4.28037H0.837517L0.837517 1.60141Z" fill="white" stroke="white" stroke-width="0.4"/>
<path d="M0.665666 15.2411H3.37007C3.73714 15.2411 4.03574 14.9508 4.03574 14.5939L4.03574 11.5808C4.03574 11.2239 3.73714 10.9336 3.37007 10.9336H0.665666C0.298599 10.9336 0 11.2239 0 11.5808L0 14.5939C0 14.9507 0.298599 15.2411 0.665666 15.2411ZM0.837517 11.7478H3.19822L3.19822 14.4268H0.837517L0.837517 11.7478Z" fill="white" stroke="white" stroke-width="0.4"/>
</svg>
