<svg width="29" height="29" viewBox="0 0 29 29" fill="none" xmlns="http://www.w3.org/2000/svg">
<path d="M28 15.2304C28 13.3652 27.0177 11.6802 25.4154 10.7596C25.3754 10.0502 25.2223 9.35898 24.9592 8.70064C24.8511 8.43017 24.5444 8.2986 24.2738 8.4067C24.0034 8.51481 23.8717 8.82167 23.9798 9.09209C24.2332 9.72601 24.3649 10.3967 24.3712 11.0856C24.373 11.2841 24.4862 11.4647 24.6639 11.553C26.0711 12.2522 26.9453 13.6613 26.9453 15.2304C26.9453 17.4936 25.104 19.335 22.8407 19.335C21.6267 19.335 20.4813 18.8013 19.6984 17.8709C19.5983 17.7518 19.4506 17.683 19.295 17.683C19.1394 17.683 18.9917 17.7518 18.8915 17.8709C18.1087 18.8013 16.9634 19.335 15.7493 19.335C14.9025 19.335 14.0859 19.075 13.4005 18.5958L15.2377 16.6161C15.3839 16.4585 15.4199 16.2279 15.3285 16.0333C15.2371 15.8387 15.0346 15.7186 14.822 15.7309L14.0605 15.773L15.3961 13.2144C15.4814 13.0509 15.4751 12.8547 15.3796 12.697C15.2839 12.5393 15.113 12.443 14.9286 12.443H10.8312C10.6293 12.443 10.4451 12.5583 10.3569 12.7399L8.1019 17.3808C8.02248 17.5442 8.03276 17.737 8.12921 17.8911C8.22561 18.0451 8.39452 18.1386 8.57624 18.1386H10.2375L9.90684 19.1408C9.50474 19.2693 9.08576 19.335 8.65782 19.335C6.39457 19.335 4.55324 17.4936 4.55324 15.2304C4.55324 13.4041 5.77895 11.7804 7.53389 11.2819C7.76935 11.215 7.92787 10.995 7.91659 10.7504C7.86406 9.60862 8.44715 8.54808 9.43819 7.98277C10.6606 7.28546 12.2322 7.5359 13.1753 8.57803C13.2896 8.70439 13.4577 8.76783 13.6272 8.74805C13.7964 8.72838 13.9458 8.62813 14.0281 8.47889C14.9993 6.71794 16.8504 5.62401 18.8588 5.62401C19.6039 5.62401 20.3263 5.76993 21.0061 6.05775C21.2745 6.1714 21.5837 6.04594 21.6973 5.77773C21.8108 5.50953 21.6854 5.20008 21.4173 5.08654C20.6067 4.74335 19.7459 4.56933 18.8588 4.56933C18.4191 4.56933 17.9859 4.61404 17.5642 4.69889C16.5585 2.46929 14.3132 1 11.8414 1C8.98652 1 6.52656 2.90777 5.78881 5.61157C5.53262 5.56073 5.27148 5.53516 5.00776 5.53516C2.79787 5.53516 1 7.33303 1 9.54297C1 11.3283 2.18568 12.8752 3.84644 13.3778C3.62153 13.958 3.4985 14.584 3.4985 15.2304C3.4985 18.0752 5.81296 20.3897 8.65777 20.3897C8.94844 20.3897 9.23579 20.3646 9.51861 20.3171L9.01584 21.8407C8.93811 22.0761 9.03493 22.334 9.24845 22.46C9.33198 22.5094 9.42453 22.5333 9.51639 22.5333C9.6593 22.5333 9.80047 22.4753 9.90314 22.3647L12.6777 19.3749C13.563 20.032 14.6354 20.3897 15.7493 20.3897C17.0781 20.3897 18.3412 19.8813 19.295 18.978C20.2488 19.8813 21.5119 20.3897 22.8407 20.3897C25.6855 20.3896 28 18.0752 28 15.2304V15.2304ZM2.05469 9.54297C2.05469 7.91464 3.37943 6.58984 5.00776 6.58984C5.34911 6.58984 5.68424 6.6479 6.00396 6.76244C6.15009 6.81481 6.31204 6.8001 6.44651 6.72215C6.58088 6.64416 6.67401 6.51095 6.70111 6.35797C7.14276 3.86448 9.30456 2.05469 11.8414 2.05469C13.8464 2.05469 15.6718 3.21674 16.5375 4.99379C15.3021 5.46101 14.2217 6.29522 13.4554 7.40306C12.9192 6.98271 12.2794 6.69853 11.6007 6.58578C10.6808 6.43301 9.72706 6.60382 8.91554 7.06667C7.69721 7.7616 6.93599 9.01083 6.86417 10.3922C5.8099 10.7834 4.93235 11.5063 4.33782 12.4186C3.01767 12.1126 2.05469 10.9245 2.05469 9.54297ZM11.4676 17.7766C11.5206 17.6159 11.4933 17.4395 11.3941 17.3024C11.295 17.1652 11.136 17.084 10.9668 17.084H9.41873L11.1613 13.4977H14.0585L12.6966 16.1067C12.6089 16.2748 12.6181 16.477 12.7208 16.6364C12.8236 16.7958 13.0053 16.888 13.1932 16.8773L13.5762 16.8561L10.7754 19.8742L11.4676 17.7766Z" fill="white" stroke="white" stroke-width="0.2"/>
<path d="M7.37634 21.8C7.17036 21.594 6.83655 21.594 6.63052 21.8L4.99575 23.4347C4.78983 23.6406 4.78983 23.9746 4.99575 24.1805C5.09874 24.2835 5.23369 24.335 5.36864 24.335C5.50359 24.335 5.63853 24.2835 5.74152 24.1805L7.37629 22.5458C7.58227 22.3398 7.58227 22.0059 7.37634 21.8Z" fill="white" stroke="white" stroke-width="0.2"/>
<path d="M13.7518 21.8C13.5458 21.594 13.212 21.594 13.006 21.8L11.3712 23.4347C11.1653 23.6406 11.1653 23.9746 11.3712 24.1805C11.4742 24.2835 11.6092 24.335 11.7441 24.335C11.8791 24.335 12.014 24.2835 12.117 24.1805L13.7518 22.5458C13.9578 22.3398 13.9578 22.0059 13.7518 21.8Z" fill="white" stroke="white" stroke-width="0.2"/>
<path d="M20.1273 21.8C19.9213 21.594 19.5875 21.594 19.3815 21.8L17.7467 23.4347C17.5408 23.6406 17.5408 23.9746 17.7467 24.1805C17.8497 24.2835 17.9847 24.335 18.1196 24.335C18.2546 24.335 18.3895 24.2835 18.4925 24.1805L20.1273 22.5458C20.3333 22.3398 20.3333 22.0059 20.1273 21.8Z" fill="white" stroke="white" stroke-width="0.2"/>
<path d="M25.757 21.8L24.1222 23.4348C23.9163 23.6407 23.9163 23.9746 24.1222 24.1806C24.2252 24.2836 24.3602 24.335 24.4951 24.335C24.6301 24.335 24.765 24.2836 24.868 24.1806L26.5027 22.5458C26.7087 22.3399 26.7087 22.006 26.5027 21.8C26.2968 21.594 25.963 21.594 25.757 21.8V21.8Z" fill="white" stroke="white" stroke-width="0.2"/>
<path d="M8.26529 25.465L6.63052 27.0998C6.42459 27.3057 6.42459 27.6397 6.63052 27.8456C6.73351 27.9486 6.86846 28.0001 7.0034 28.0001C7.13835 28.0001 7.2733 27.9486 7.37629 27.8456L9.01106 26.2109C9.21698 26.0049 9.21698 25.671 9.01106 25.465C8.80507 25.2591 8.47127 25.2591 8.26529 25.465Z" fill="white" stroke="white" stroke-width="0.2"/>
<path d="M14.6408 25.465L13.006 27.0998C12.8001 27.3057 12.8001 27.6397 13.006 27.8456C13.109 27.9486 13.2439 28.0001 13.3789 28.0001C13.5138 28.0001 13.6488 27.9486 13.7518 27.8456L15.3865 26.2109C15.5925 26.0049 15.5925 25.671 15.3865 25.465C15.1806 25.2591 14.8467 25.2591 14.6408 25.465Z" fill="white" stroke="white" stroke-width="0.2"/>
<path d="M21.0163 25.465L19.3815 27.0998C19.1756 27.3057 19.1756 27.6397 19.3815 27.8456C19.4845 27.9486 19.6194 28.0001 19.7544 28.0001C19.8893 28.0001 20.0243 27.9486 20.1273 27.8456L21.762 26.2109C21.968 26.0049 21.968 25.671 21.762 25.465C21.5561 25.2591 21.2223 25.2591 21.0163 25.465V25.465Z" fill="white" stroke="white" stroke-width="0.2"/>
<path d="M23.1724 7.43652C23.3111 7.43652 23.4471 7.3801 23.5451 7.28201C23.6432 7.18393 23.6997 7.04787 23.6997 6.90918C23.6997 6.77049 23.6433 6.63443 23.5451 6.53635C23.4471 6.43773 23.3111 6.38184 23.1724 6.38184C23.0336 6.38184 22.8976 6.43773 22.7995 6.53635C22.7014 6.63443 22.645 6.76996 22.645 6.90918C22.645 7.04787 22.7014 7.18393 22.7995 7.28201C22.8977 7.3801 23.0336 7.43652 23.1724 7.43652Z" fill="white" stroke="white" stroke-width="0.2"/>
</svg>
