<svg width="55" height="59" viewBox="0 0 55 59" fill="none" xmlns="http://www.w3.org/2000/svg">
<g clip-path="url(#clip0_2825_817)">
<path d="M10.8313 28.1073L9.46248 25.4334L14.6618 22.7718L15.7334 24.865L16.5436 24.4502L15.4721 22.357L20.6714 19.6953L22.0471 22.3827L20.8911 27.1162L23.1068 31.4445L23.6405 31.5547C24.0519 31.6424 24.3101 32.0471 24.2225 32.4584C24.1837 32.6657 24.0565 32.8501 23.8709 32.9537L24.901 34.9659L25.4347 35.0762C25.846 35.1639 26.1043 35.5685 26.0166 35.9799C25.9779 36.1872 25.8507 36.3716 25.6651 36.4751L26.6952 38.4873L27.2289 38.5976C27.6402 38.6853 27.8985 39.0899 27.8108 39.5013C27.7721 39.7086 27.6449 39.893 27.4593 39.9965L28.4894 42.0087L29.0231 42.119C29.4344 42.2067 29.6927 42.6114 29.605 43.0227C29.5662 43.23 29.4391 43.4144 29.2535 43.518L29.6717 44.335L29.7792 51.3702L24.1348 47.1695L21.5423 42.1052L21.0086 41.995C20.5973 41.9073 20.339 41.5026 20.4267 41.0913C20.4654 40.8839 20.5926 40.6995 20.7782 40.596L19.7377 38.5635L19.2041 38.4533C18.7927 38.3656 18.5344 37.9609 18.6221 37.5496C18.6609 37.3423 18.788 37.1579 18.9736 37.0543L17.947 35.0489L17.4133 34.9386C17.002 34.8509 16.7437 34.4462 16.8314 34.0349C16.8701 33.8276 16.9973 33.6432 17.1829 33.5396L16.1528 31.5274L15.6192 31.4172C15.2078 31.3295 14.9495 30.9248 15.0372 30.5135C15.076 30.3062 15.2031 30.1217 15.3887 30.0182L15.3473 29.9372L10.8313 28.1073ZM25.3394 46.1267L28.2369 48.2908L28.1754 44.6749L27.4806 43.3177L23.4625 42.4602L25.3394 46.1267ZM22.5741 40.7248L26.5923 41.5823L25.6832 39.8065L21.665 38.949L22.5741 40.7248ZM20.7766 37.2136L24.7948 38.0711L23.8857 36.2952L19.8675 35.4377L20.7766 37.2136ZM18.9791 33.7024L22.9973 34.5599L22.0882 32.784L18.07 31.9265L18.9791 33.7024ZM16.4489 28.7597L17.1817 30.1912L21.1998 31.0487L19.2848 27.3079L20.4409 22.5744L20.0123 21.7371L17.5139 23.0161L18.067 24.0965C18.3573 24.6637 18.0993 25.3582 17.5321 25.6486L16.1276 26.3676C15.5604 26.6579 14.8461 26.4611 14.5557 25.8939L14.0027 24.8136L11.5043 26.0925L11.9329 26.9298L16.4489 28.7597Z" fill="#0EB3E6"/>
</g>
<g clip-path="url(#clip1_2825_817)">
<path d="M32.4931 5.6408L33.2435 2.73211L38.8993 4.19132L38.3118 6.46832L39.1933 6.69573L39.7807 4.41873L45.4365 5.87793L44.6823 8.80131L40.6763 11.5751L39.4616 16.2834L39.7876 16.7201C40.0371 17.0586 39.9618 17.5327 39.6232 17.7823C39.4567 17.9116 39.2392 17.9652 39.0316 17.9195L38.4669 20.1083L38.7929 20.545C39.0425 20.8836 38.9671 21.3577 38.6286 21.6072C38.462 21.7366 38.2445 21.7901 38.0369 21.7444L37.4722 23.9333L37.7983 24.3699C38.0478 24.7085 37.9725 25.1826 37.6339 25.4321C37.4673 25.5615 37.2498 25.6151 37.0423 25.5694L36.4775 27.7582L36.8036 28.1949C37.0531 28.5334 36.9778 29.0076 36.6392 29.2571C36.4727 29.3865 36.2552 29.44 36.0476 29.3943L35.8183 30.2831L31.2301 35.6173L29.7952 28.7291L31.2165 23.2202L30.8905 22.7836C30.641 22.445 30.7163 21.9709 31.0549 21.7214C31.2214 21.592 31.4389 21.5384 31.6465 21.5841L32.2169 19.3732L31.8909 18.9366C31.6413 18.598 31.7167 18.1239 32.0552 17.8744C32.2218 17.745 32.4393 17.6915 32.6469 17.7372L33.2097 15.5557L32.8836 15.119C32.6341 14.7804 32.7094 14.3063 33.048 14.0568C33.2146 13.9274 33.4321 13.8739 33.6396 13.9196L34.2044 11.7307L33.8783 11.2941C33.6288 10.9555 33.7041 10.4814 34.0427 10.2319C34.2092 10.1025 34.4267 10.0489 34.6343 10.0946L34.6571 10.0065L32.4931 5.6408ZM31.3884 28.7484L32.1198 32.2901L34.4734 29.5444L34.8543 28.068L32.4174 24.76L31.3884 28.7484ZM32.9045 22.8723L35.3413 26.1803L35.8397 24.2485L33.4029 20.9405L32.9045 22.8723ZM33.8899 19.0528L36.3268 22.3608L36.8252 20.429L34.3883 17.121L33.8899 19.0528ZM34.8753 15.2333L37.3122 18.5413L37.8106 16.6095L35.3737 13.3015L34.8753 15.2333ZM36.2625 9.85665L35.8608 11.4138L38.2976 14.7218L39.3475 10.6526L43.3535 7.87875L43.5885 6.96795L40.8708 6.26678L40.5675 7.442C40.4084 8.059 39.7544 8.40733 39.1374 8.24815L37.6096 7.85397C36.9926 7.69479 36.5889 7.07356 36.7481 6.45657L37.0513 5.28134L34.3335 4.58016L34.0986 5.49097L36.2625 9.85665Z" fill="#0EB3E6"/>
</g>
<defs>
<clipPath id="clip0_2825_817">
<rect width="32.3454" height="32.3454" fill="white" transform="matrix(-0.890142 0.455684 0.455684 0.890142 29.4629 15.1943)"/>
</clipPath>
<clipPath id="clip1_2825_817">
<rect width="32.3454" height="32.3454" fill="white" transform="matrix(-0.968292 -0.249821 -0.249821 0.968292 55 8.3457)"/>
</clipPath>
</defs>
</svg>
