<svg width="13" height="21" viewBox="0 0 13 21" fill="none" xmlns="http://www.w3.org/2000/svg">
<path d="M12.4171 7.2023C12.3597 7.07909 12.2361 7.00001 12.1 7.00001H7.95246L12.0457 0.537264C12.1139 0.429475 12.1181 0.292975 12.0566 0.18133C11.995 0.0693164 11.8773 0 11.7499 0H6.14995C6.0173 0 5.89618 0.0748945 5.83671 0.193553L0.586711 10.6936C0.532447 10.8017 0.538395 10.9305 0.602092 11.0337C0.666158 11.137 0.7785 11.2 0.899947 11.2H4.49899L0.577236 20.5142C0.510381 20.6734 0.569894 20.8582 0.717223 20.9485C0.773906 20.9832 0.836906 21 0.899578 21C1.00003 21 1.09908 20.9569 1.1677 20.8757L12.3677 7.57571C12.4555 7.47145 12.4744 7.32584 12.4171 7.2023Z" fill="#4F5565"/>
</svg>
