<svg width="53" height="53" viewBox="0 0 53 53" fill="none" xmlns="http://www.w3.org/2000/svg">
<g clip-path="url(#clip0_2811_61)">
<path d="M49.1821 5.56456H42.3965C41.9634 5.56456 41.6125 5.91525 41.6125 6.34772C41.6125 6.78018 41.9634 7.13088 42.3965 7.13088H49.1821C50.3655 7.13088 51.3283 8.09252 51.3283 9.27458V43.5981C51.3283 44.7801 50.3655 45.7418 49.1821 45.7418H3.81757C2.63427 45.7418 1.67152 44.7801 1.67152 43.5981V9.27447C1.67152 8.09242 2.63427 7.13077 3.81757 7.13077H39.7828C40.2158 7.13077 40.5668 6.78008 40.5668 6.34761C40.5668 5.91514 40.2158 5.56445 39.7828 5.56445H3.81757C1.76968 5.56456 0.103516 7.22882 0.103516 9.27447V43.598C0.103516 45.6437 1.76968 47.3079 3.81757 47.3079H49.1819C51.23 47.3079 52.8961 45.6436 52.8961 43.598V9.27447C52.8963 7.22882 51.2301 5.56456 49.1821 5.56456Z" fill="#0EB3E6"/>
<path d="M21.3557 36.412L14.6963 24.8908C17.2235 24.3112 19.1148 22.0479 19.1148 19.3501C19.1148 16.2149 16.561 13.6641 13.4222 13.6641C10.2834 13.6641 7.72969 16.2149 7.72969 19.3501C7.72969 22.0478 9.62095 24.3112 12.1482 24.8908L8.39857 31.378C8.18204 31.7525 8.31052 32.2315 8.68553 32.4477C9.06065 32.664 9.54011 32.5356 9.75654 32.1611L13.4221 25.8193L19.3185 36.0205H7.52584L8.45322 34.416C8.66975 34.0415 8.54128 33.5625 8.16626 33.3463C7.79094 33.1298 7.31168 33.2582 7.09525 33.6329L5.48888 36.412C5.34876 36.6543 5.34876 36.953 5.48888 37.1952C5.62901 37.4374 5.88772 37.5868 6.16787 37.5868H20.6767C20.9569 37.5868 21.2156 37.4374 21.3557 37.1952C21.4958 36.953 21.4958 36.6543 21.3557 36.412ZM9.2978 19.3501C9.2978 17.0785 11.1479 15.2304 13.4222 15.2304C15.6966 15.2304 17.5467 17.0785 17.5467 19.3501C17.5467 21.6217 15.6966 23.4698 13.4222 23.4698C11.1479 23.4698 9.2978 21.6216 9.2978 19.3501Z" fill="#0EB3E6"/>
<path d="M47.3564 24.7681C47.2181 24.5194 46.9558 24.3655 46.671 24.3655H42.0953C43.8871 23.4068 45.1091 21.5186 45.1091 19.3501C45.1091 16.2149 42.5553 13.6641 39.4165 13.6641C36.2777 13.6641 33.724 16.2149 33.724 19.3501C33.724 21.5186 34.946 23.4068 36.7378 24.3655H32.1621C31.8773 24.3655 31.6151 24.5195 31.4767 24.7681C31.3383 25.0166 31.3458 25.3205 31.4963 25.562L38.7507 37.217C38.8938 37.447 39.1456 37.5867 39.4165 37.5867C39.6875 37.5867 39.9393 37.4469 40.0823 37.217L47.3368 25.562C47.4872 25.3205 47.4948 25.0167 47.3564 24.7681ZM35.2922 19.3501C35.2922 17.0785 37.1423 15.2304 39.4166 15.2304C41.691 15.2304 43.5411 17.0785 43.5411 19.3501C43.5411 21.6217 41.691 23.4698 39.4166 23.4698C37.1423 23.4698 35.2922 21.6216 35.2922 19.3501ZM39.4166 35.3203L33.5729 25.9318H45.2605L39.4166 35.3203Z" fill="#0EB3E6"/>
<path d="M26.4999 8.89453C26.0668 8.89453 25.7158 9.24522 25.7158 9.67769V43.1951C25.7158 43.6275 26.0668 43.9782 26.4999 43.9782C26.9329 43.9782 27.2839 43.6275 27.2839 43.1951V9.67769C27.2839 9.24512 26.9329 8.89453 26.4999 8.89453Z" fill="#0EB3E6"/>
</g>
<defs>
<clipPath id="clip0_2811_61">
<rect width="52.7927" height="52.7324" fill="white" transform="translate(0.103516 0.0703125)"/>
</clipPath>
</defs>
</svg>
