<svg width="53" height="53" viewBox="0 0 53 53" fill="none" xmlns="http://www.w3.org/2000/svg">
<g clip-path="url(#clip0_2811_196)">
<path d="M29.3746 44.377H23.6254C23.1983 44.377 22.8521 44.7227 22.8521 45.1494C22.8521 45.5761 23.1983 45.9218 23.6254 45.9218H29.3746C29.8018 45.9218 30.148 45.5761 30.148 45.1494C30.148 44.7227 29.8017 44.377 29.3746 44.377Z" fill="#0EB3E6"/>
<path d="M29.3746 41.376H23.6254C23.1983 41.376 22.8521 41.7217 22.8521 42.1484C22.8521 42.5751 23.1983 42.9209 23.6254 42.9209H29.3746C29.8018 42.9209 30.148 42.5751 30.148 42.1484C30.148 41.7217 29.8017 41.376 29.3746 41.376Z" fill="#0EB3E6"/>
<path d="M33.6299 41.0635C32.2043 41.0635 31.0444 42.2234 31.0444 43.649C31.0444 45.073 32.2043 46.2316 33.6299 46.2316C35.0572 46.2316 36.2184 45.073 36.2184 43.649C36.2184 42.2234 35.0572 41.0635 33.6299 41.0635ZM33.6299 44.6867C33.0571 44.6867 32.5911 44.2211 32.5911 43.649C32.5911 43.0752 33.0572 42.6084 33.6299 42.6084C34.2044 42.6084 34.6718 43.0751 34.6718 43.649C34.6718 44.2211 34.2045 44.6867 33.6299 44.6867Z" fill="#0EB3E6"/>
<path d="M19.3667 41.0635C17.9395 41.0635 16.7783 42.2234 16.7783 43.649C16.7783 45.073 17.9395 46.2316 19.3667 46.2316C20.794 46.2316 21.9551 45.073 21.9551 43.649C21.9551 42.2234 20.794 41.0635 19.3667 41.0635ZM19.3667 44.6867C18.7923 44.6867 18.325 44.2211 18.325 43.649C18.325 43.0752 18.7923 42.6084 19.3667 42.6084C19.9411 42.6084 20.4084 43.0751 20.4084 43.649C20.4084 44.2211 19.9411 44.6867 19.3667 44.6867Z" fill="#0EB3E6"/>
<path d="M51.9773 10.7187C51.9411 10.7079 51.9012 10.6957 51.8569 10.6816L27.7904 0.470776C26.7899 0.0437672 26.2106 0.0436643 25.2082 0.470055L1.13998 10.6815C1.09606 10.6957 1.05636 10.7077 1.02058 10.7184C0.343454 10.9228 0.103516 11.2729 0.103516 12.0566V17.1687C0.103516 17.8747 0.678564 18.4492 1.38539 18.4492H3.43554V51.4708C3.43554 52.1608 3.99749 52.7221 4.68823 52.7221H9.24789H16.5579H19.1915H33.8085H36.4391H43.7491H48.3088C49.0011 52.7221 49.5644 52.1608 49.5644 51.4708V30.9112C49.5644 30.4845 49.2182 30.1387 48.791 30.1387C48.3639 30.1387 48.0177 30.4845 48.0177 30.9112V51.1772H44.5226V20.6897C44.5226 20.263 44.1764 19.9173 43.7492 19.9173H9.24789C8.8208 19.9173 8.47456 20.263 8.47456 20.6897V51.1772H4.9822V17.6767C4.9822 17.25 4.63595 16.9042 4.20887 16.9042H1.65018V12.1403C1.65172 12.1398 1.65327 12.1393 1.65482 12.1387C1.67482 12.1322 1.69462 12.1246 1.714 12.1164L25.8135 1.89177C26.429 1.62976 26.5698 1.62986 27.184 1.89208L51.2828 12.1164C51.3022 12.1246 51.322 12.1321 51.3419 12.1387C51.3445 12.1396 51.3471 12.1404 51.3495 12.1412V16.9041H48.7908C48.3637 16.9041 48.0175 17.2499 48.0175 17.6766V27.3463C48.0175 27.773 48.3637 28.1187 48.7908 28.1187C49.218 28.1187 49.5642 27.773 49.5642 27.3463V18.4491H51.6113C52.3198 18.4491 52.8962 17.8747 52.8962 17.1686V12.0565C52.8962 11.2731 52.6557 10.9231 51.9773 10.7187V10.7187ZM15.073 38.15C14.5405 38.15 14.1073 37.712 14.1073 37.1737C14.1073 36.6353 14.5406 36.1973 15.073 36.1973H16.3735L15.4464 38.1501H15.073V38.15ZM21.3471 49.2711H31.6496V50.5687C31.6496 50.7802 31.6816 50.984 31.7388 51.1772H21.2581C21.3152 50.984 21.3472 50.7802 21.3472 50.5687V49.2711H21.3471ZM15.338 47.7262C15.3378 47.6928 15.3378 47.6628 15.3378 47.6403L15.3372 42.4871C15.3349 41.9915 15.3349 41.9915 15.5935 41.446L16.4247 39.695H36.5726L37.404 41.448C37.6622 41.988 37.6622 41.988 37.6596 42.4745C37.6592 42.5448 37.6588 47.6929 37.6586 47.7263H15.338V47.7262ZM37.5514 38.15L36.6251 36.1972H37.9268C38.4593 36.1972 38.8924 36.6352 38.8924 37.1736C38.8924 37.7119 38.4593 38.1499 37.9268 38.1499H37.5514V38.15ZM34.685 35.7151C34.6965 35.7434 35.8399 38.15 35.8399 38.15H17.1581L19.1917 33.8663C19.5536 33.1031 19.7932 32.665 20.0228 32.5364C20.2704 32.3975 20.8411 32.3991 21.7058 32.4015H31.2938C32.1567 32.3992 32.727 32.3976 32.9748 32.5364C33.2047 32.6653 33.4452 33.1036 33.8081 33.8665L34.685 35.7151ZM16.5578 51.1772C16.2277 51.1772 15.9486 50.8985 15.9486 50.5687V49.2711H19.8004V50.5687C19.8004 50.8985 19.5214 51.1772 19.1913 51.1772H16.5578ZM33.8084 51.1772C33.471 51.1772 33.1963 50.9043 33.1963 50.5687V49.2711H37.0511V50.5687C37.0511 50.8985 36.7707 51.1772 36.4389 51.1772H33.8084ZM10.0212 25.3774H24.7886C25.2157 25.3774 25.562 25.0316 25.562 24.6049C25.562 24.1782 25.2157 23.8325 24.7886 23.8325H10.0212V21.4622H42.9757V23.8325H28.3574C27.9302 23.8325 27.5841 24.1782 27.5841 24.6049C27.5841 25.0316 27.9302 25.3774 28.3574 25.3774H42.9756V51.1772H38.5085C38.5658 50.984 38.5977 50.7802 38.5977 50.5687V49.1039C39.205 48.7756 39.2057 48.0428 39.2057 47.6403C39.2057 47.6403 39.2061 42.5504 39.2064 42.4824C39.2105 41.7126 39.1763 41.5696 38.8009 40.7844L38.2725 39.6705C39.4947 39.5008 40.439 38.4461 40.439 37.1737C40.439 35.7834 39.3119 34.6524 37.9267 34.6524H35.8923L35.2055 33.2043C34.7396 32.225 34.3855 31.5557 33.7318 31.1892C33.1295 30.8516 32.4369 30.8532 31.2894 30.8567L21.7859 30.8569L21.7102 30.8567C20.5609 30.853 19.868 30.8515 19.2657 31.1892C18.6118 31.556 18.2583 32.2256 17.794 33.2048L17.1069 34.6524H15.0731C13.6877 34.6524 12.5607 35.7834 12.5607 37.1737C12.5607 38.4453 13.5039 39.4994 14.7249 39.6702L14.196 40.7845C13.8213 41.5748 13.7871 41.7185 13.7906 42.4942L13.7913 47.6404C13.7913 48.0433 13.792 48.777 14.4021 49.1049V50.5687C14.4021 50.7802 14.434 50.984 14.4912 51.1772H10.0213V25.3774H10.0212Z" fill="#0EB3E6"/>
<path d="M9.74483 11.5996C9.0445 11.5996 8.47461 12.1687 8.47461 12.8684V15.8667C8.47461 16.5663 9.0444 17.1355 9.74483 17.1355H16.4439C17.1443 17.1355 17.7142 16.5663 17.7142 15.8667V12.8684C17.7142 12.1687 17.1444 11.5996 16.4439 11.5996H9.74483ZM16.1675 15.5907H10.0214V13.1445H16.1676V15.5907H16.1675Z" fill="#0EB3E6"/>
<path d="M23.1486 11.5996C22.4483 11.5996 21.8784 12.1687 21.8784 12.8684V15.8667C21.8784 16.5663 22.4482 17.1355 23.1486 17.1355H29.8477C30.5482 17.1355 31.118 16.5663 31.118 15.8667V12.8684C31.118 12.1687 30.5482 11.5996 29.8477 11.5996H23.1486ZM29.5714 15.5907H23.4252V13.1445H29.5714V15.5907Z" fill="#0EB3E6"/>
<path d="M36.5559 11.5996C35.8538 11.5996 35.2827 12.1687 35.2827 12.8684V15.8667C35.2827 16.5663 35.8538 17.1355 36.5559 17.1355H43.252C43.9525 17.1355 44.5223 16.5663 44.5223 15.8667V12.8684C44.5223 12.1687 43.9525 11.5996 43.252 11.5996H36.5559ZM42.9757 15.5907H36.8295V13.1445H42.9757V15.5907Z" fill="#0EB3E6"/>
</g>
<defs>
<clipPath id="clip0_2811_196">
<rect width="52.7927" height="52.7324" fill="white" transform="translate(0.103516 0.0703125)"/>
</clipPath>
</defs>
</svg>
