<svg width="53" height="53" viewBox="0 0 53 53" fill="none" xmlns="http://www.w3.org/2000/svg">
<path fill-rule="evenodd" clip-rule="evenodd" d="M1.18617 0.212406C0.801877 0.383799 0.358093 0.848846 0.213224 1.23191C0.144759 1.41277 0.104341 2.63364 0.105784 4.47642C0.108362 7.7884 0.152802 8.03375 0.838996 8.52269L1.18617 8.77L11.4456 8.79492L21.705 8.81975L22.1097 8.58892C22.3614 8.44534 22.605 8.1864 22.7541 7.90407C22.9886 7.46004 22.9938 7.3866 22.9932 4.55656C22.9929 2.96509 22.947 1.49868 22.8911 1.29793C22.776 0.883764 22.2589 0.338376 21.8272 0.175738C21.6295 0.101269 18.3411 0.0676908 11.5162 0.0704718C3.37364 0.0737678 1.43755 0.100342 1.18617 0.212406ZM35.4695 0.161009C34.9695 0.316128 34.5745 0.572187 34.205 0.980687C33.4924 1.76874 33.511 1.50043 33.511 10.9518V19.4305H32.0354C30.6955 19.4305 30.5391 19.4498 30.3353 19.6394C30.0263 19.927 29.9404 20.3358 30.1214 20.6579C30.3215 21.0141 30.6821 21.1783 31.2684 21.18L31.7582 21.1816V22.9326V24.6836H31.1831C30.685 24.6836 30.5678 24.7238 30.3067 24.9846C30.125 25.1661 30.0053 25.3943 30.0053 25.5591C30.0053 25.7239 30.125 25.952 30.3067 26.1335C30.5678 26.3943 30.685 26.4346 31.1831 26.4346H31.7582V28.1856V29.9366H31.1831C30.685 29.9366 30.5678 29.9769 30.3067 30.2377C29.985 30.559 29.9319 30.8424 30.1252 31.2052C30.3249 31.5796 30.5448 31.6809 31.1653 31.6843L31.7582 31.6876V33.4386V35.1896L31.2684 35.1912C30.4257 35.1937 29.8932 35.6564 30.0436 36.2552C30.1714 36.7638 30.4542 36.9406 31.1395 36.9406H31.7582V38.7431V40.5456H31.1625C30.4739 40.5456 30.1545 40.7197 30.0608 41.1459C29.9122 41.8216 30.4413 42.2967 31.3424 42.2967H31.7582V44.0477V45.7987H31.159C30.4911 45.7987 30.1652 46.0003 30.0422 46.4896C29.8932 47.0827 30.4295 47.5456 31.2684 47.5481L31.7582 47.5497V49.3007V51.0517H29.1289H26.4996V35.9325V20.8132L26.2676 20.354C26.1147 20.0515 25.8949 19.8163 25.6231 19.6645L25.2107 19.4339H13.3015H1.39239L0.979947 19.6645C0.70815 19.8163 0.488424 20.0515 0.335512 20.354L0.103516 20.8132V36.0803C0.103516 46.6166 0.137542 51.4371 0.213224 51.6373C0.362424 52.0319 0.807342 52.4894 1.20864 52.6609C1.48735 52.78 5.59823 52.8027 26.9166 52.8027H52.2928L52.5942 52.5016C52.9165 52.1797 52.9641 51.9326 52.7812 51.5314C52.6305 51.2011 52.2793 51.0517 51.6535 51.0517H51.1428V49.3007V47.5497H51.7178C52.2159 47.5497 52.3332 47.5094 52.5942 47.2486C52.9788 46.8644 52.9973 46.4059 52.6425 46.0515C52.4297 45.8388 52.2905 45.7987 51.7661 45.7987H51.1428V44.062V42.3253L51.7861 42.267C52.312 42.2193 52.4717 42.1594 52.6625 41.9379C52.9718 41.5786 52.9638 41.1194 52.6425 40.7985C52.4297 40.5858 52.2905 40.5456 51.7661 40.5456H51.1428V38.7431V36.9406H51.7661C52.2905 36.9406 52.4297 36.9005 52.6425 36.6878C52.9676 36.3631 52.9719 35.9077 52.6534 35.5378C52.4501 35.3018 52.3092 35.2492 51.777 35.2107L51.1428 35.1649V33.4263V31.6876H51.7014C52.4098 31.6876 52.5587 31.6278 52.7448 31.2682C52.9685 30.836 52.9302 30.5732 52.5942 30.2377C52.3332 29.9769 52.2159 29.9366 51.7178 29.9366H51.1428V28.1856V26.4346H51.7178C52.2159 26.4346 52.3332 26.3943 52.5942 26.1335C52.9165 25.8115 52.9641 25.5644 52.7812 25.1632C52.6305 24.8329 52.2793 24.6836 51.6535 24.6836H51.1428V22.9326V21.1816H51.7178C52.2212 21.1816 52.3319 21.1424 52.6069 20.8678C52.8785 20.5965 52.9127 20.5024 52.8599 20.1726C52.7525 19.5023 52.5606 19.4305 50.8758 19.4305H49.3944L49.3664 10.7013C49.3398 2.41569 49.3285 1.95363 49.1463 1.61146C48.8784 1.1082 48.381 0.60319 47.8948 0.340642C47.487 0.120427 47.4161 0.117749 41.6051 0.0994149C38.3726 0.0892179 35.6116 0.116925 35.4695 0.161009ZM10.6207 4.44398V7.07049H6.23853H1.85638V4.44398V1.81746H6.23853H10.6207V4.44398ZM21.241 4.44398V7.07049H16.8073H12.3736V4.51268C12.3736 3.10579 12.4045 1.92386 12.4423 1.88616C12.4801 1.84836 14.4752 1.81746 16.876 1.81746H21.241V4.44398ZM47.3356 2.11853L47.637 2.4196V10.9259V19.4322L41.4762 19.4056L35.3154 19.379V10.8468V2.31465L35.6048 2.066L35.8941 1.81746H41.4642H47.0342L47.3356 2.11853ZM45.4967 10.7272C45.0863 10.9044 44.9562 11.2179 44.9562 12.0291C44.9562 12.5819 44.9899 12.6821 45.2702 12.9621C45.5418 13.2334 45.6361 13.2676 45.9662 13.2149C46.5554 13.1206 46.709 12.8524 46.709 11.9181C46.709 11.2255 46.6792 11.0962 46.477 10.9113C46.1479 10.6104 45.8827 10.5607 45.4967 10.7272ZM24.7467 25.5591V29.9366H23.4493C22.7357 29.9366 22.1695 29.9019 22.1911 29.8593C22.9138 28.4393 23.0895 27.6756 22.9206 26.6903C22.7602 25.7546 22.3669 24.9737 21.7097 24.2853C20.5509 23.0717 18.9042 22.6422 17.3035 23.1361C16.0662 23.5179 15.1714 24.2998 14.6046 25.4949C14.3026 26.1317 14.2811 26.2529 14.2811 27.3166C14.2811 28.416 14.2941 28.4822 14.6489 29.1963L15.0168 29.9366H11.9422H8.86783V27.0939C8.86783 23.9177 8.84215 23.7774 8.16576 23.2615C7.82549 23.002 7.72249 22.9818 6.56859 22.9494C5.03483 22.9063 4.73128 22.9621 4.26192 23.3738C3.63203 23.9262 3.60924 24.0584 3.60924 27.1523V29.9366H2.73281H1.85638V25.5591V21.1816H13.3015H24.7467V25.5591ZM49.3899 22.9326V24.6836H41.4505H33.511V22.9326V21.1816H41.4505H49.3899V22.9326ZM7.11497 27.3101V29.9366H6.23853H5.3621V27.3101V24.6836H6.23853H7.11497V27.3101ZM19.756 24.9715C21.4009 25.8098 21.6996 28.0035 20.3363 29.2338C19.017 30.4244 16.965 30.0317 16.2264 28.4473C15.5753 27.0504 16.2612 25.3624 17.6968 24.8285C18.2288 24.6306 19.2226 24.6996 19.756 24.9715ZM49.3899 28.1856V29.9366H41.4505H33.511V28.1856V26.4346H41.4505H49.3899V28.1856ZM24.7221 36.0909L24.6951 40.4941H23.4063H22.1174L22.0877 39.5349C22.0581 38.5822 22.0601 38.5737 22.3729 38.2818C22.8777 37.8107 22.9941 37.3992 22.9916 36.0942C22.989 34.7947 22.8305 34.2674 22.3226 33.8682C21.7927 33.4518 21.4628 33.4239 17.4697 33.4578L13.647 33.4901L13.2326 33.7642C12.5847 34.1927 12.4332 34.6168 12.4288 36.0136C12.4257 37.0042 12.3964 37.2196 12.2503 37.3287C12.1542 37.4005 11.9686 37.6091 11.8379 37.7922C11.6326 38.0797 11.5932 38.2865 11.5487 39.3096L11.4971 40.4941H6.70253H1.90793L1.88102 36.0909L1.85421 31.6876H13.3015H24.7489L24.7221 36.0909ZM49.3899 33.4386V35.1896H41.4505H33.511V33.4386V31.6876H41.4505H49.3899V33.4386ZM21.241 36.0651V36.9406H17.7353H14.2295V36.0651V35.1896H17.7353H21.241V36.0651ZM49.3666 38.7174L49.3383 40.4941H41.4505H33.5626L33.5341 38.8503C33.5183 37.9461 33.5285 37.1466 33.5566 37.0735C33.5976 36.9666 35.1505 36.9406 41.5012 36.9406H49.3947L49.3666 38.7174ZM20.313 39.6186V40.5456H16.8073H13.3015V39.6186V38.6916H16.8073H20.313V39.6186ZM24.7467 46.6742V51.0517H18.1572H11.5676L11.9403 50.3262C12.273 49.6783 12.3174 49.4976 12.355 48.6374C12.3868 47.913 12.3529 47.5372 12.2188 47.1226C11.8888 46.1035 11.181 45.2098 10.2463 44.6326C9.10467 43.9276 7.40501 43.8491 6.16409 44.4441C4.63838 45.1756 3.60924 46.7935 3.60924 48.4601C3.60924 49.0546 3.89331 50.0215 4.22697 50.5624L4.52867 51.0517H3.19258H1.85638V46.6742V42.2967H13.3015H24.7467V46.6742ZM49.3899 44.0477V45.7987H41.4505H33.511V44.0477V42.2967H41.4505H49.3899V44.0477ZM9.07405 46.013C10.0534 46.4558 10.6179 47.3389 10.6197 48.4307C10.6216 49.6093 9.89593 50.5849 8.77328 50.9131C6.28885 51.6393 4.35648 48.7143 6.00417 46.7215C6.21874 46.462 6.83482 46.0388 7.16652 45.923C7.6865 45.7414 8.5651 45.7829 9.07405 46.013ZM49.3899 49.3007V51.0517H41.4505H33.511V49.3007V47.5497H41.4505H49.3899V49.3007Z" fill="#0EB3E6"/>
</svg>
