<svg width="53" height="53" viewBox="0 0 53 53" fill="none" xmlns="http://www.w3.org/2000/svg">
<g clip-path="url(#clip0_2811_54)">
<path d="M52.0319 51.1394H49.4172V21.961L51.336 23.2996C51.5903 23.4769 51.9226 23.4985 52.1976 23.3551C52.4728 23.2119 52.6453 22.9277 52.6453 22.6178V18.5593C52.6453 18.2889 52.5137 18.0354 52.2924 17.8795L42.2765 10.8269C41.9006 10.5622 41.3813 10.6521 41.1163 11.0275C40.8514 11.4029 40.9413 11.9217 41.3172 12.1864L50.9802 18.9905V21.0226L26.9764 4.27852C26.6903 4.07882 26.3093 4.07882 26.023 4.27852L2.01901 21.0226V18.9928L26.4997 1.91617L39.0898 10.6985C39.4668 10.9614 39.9857 10.8693 40.2491 10.4928C40.5123 10.1163 40.4201 9.59789 40.0432 9.33485L26.9764 0.22009C26.6899 0.0203868 26.3093 0.0203868 26.023 0.22009L0.709813 17.8774C0.486785 18.0329 0.353875 18.2875 0.353875 18.5592V22.6177C0.353875 22.9276 0.526482 23.2118 0.801581 23.355C0.92253 23.4181 1.05472 23.4493 1.18639 23.4493C1.35405 23.4493 1.52078 23.3988 1.66317 23.2994L3.58257 21.9606V51.1393H0.967383C0.50751 51.1393 0.134766 51.5115 0.134766 51.971C0.134766 52.4304 0.507407 52.8026 0.967383 52.8026H4.41509H17.517H31.947H35.2607H48.5846H52.0319C52.4918 52.8026 52.8646 52.4304 52.8646 51.971C52.8646 51.5115 52.4919 51.1394 52.0319 51.1394ZM22.9155 8.47506L26.4998 5.97471L30.0842 8.47506V27.6302H22.9155V8.47506ZM12.4163 32.1263V34.3757V51.1393H5.24771V20.7995L12.4163 15.7989V32.1263V32.1263ZM16.6845 28.4617V32.0505V51.1394H14.0815V34.3758V32.1264V14.8868C14.0815 14.8081 14.0698 14.7321 14.0493 14.6598L21.2505 9.63651V27.63H20.7278H17.5171C17.0573 27.6301 16.6845 28.0024 16.6845 28.4617ZM18.3496 41.7357V38.6972H21.3041L23.5052 41.7357H18.3496ZM24.71 43.3991L26.911 46.4375H18.3495V43.3991H24.71ZM18.3496 37.0338V34.6184L20.0993 37.0338H18.3496ZM18.3496 51.1394V48.1008H28.1159L30.317 51.1394H18.3496ZM34.4281 51.1392H32.3724V51.1393L18.3496 31.7812V29.2933H20.3025L34.4282 48.7938V51.1392H34.4281ZM34.4281 45.9566L32.5754 43.3991H34.4281V45.9566ZM34.4281 41.7356H31.3707L29.1696 38.6971H34.4281V41.7356V41.7356ZM34.4281 37.0338H27.9648L25.7638 33.9953H34.4282V37.0338H34.4281ZM34.4281 32.332H24.5589L22.3578 29.2934H34.4281V32.332ZM38.9179 14.8868V51.1394H36.0933V48.5246V28.4617C36.0933 28.0024 35.7207 27.6301 35.2607 27.6301H31.7494V9.63662L38.9502 14.6597C38.9296 14.732 38.9179 14.8079 38.9179 14.8868ZM47.752 51.1394H40.583V15.7987L47.752 20.7995V51.1394Z" fill="#0EB3E6"/>
</g>
<defs>
<clipPath id="clip0_2811_54">
<rect width="52.7927" height="52.7324" fill="white" transform="translate(0.103516 0.0703125)"/>
</clipPath>
</defs>
</svg>
