<svg width="53" height="53" viewBox="0 0 53 53" fill="none" xmlns="http://www.w3.org/2000/svg">
<g clip-path="url(#clip0_2811_324)">
<path d="M52.8962 14.0925C52.8962 13.0023 52.1952 12.0542 51.152 11.7336C51.1436 11.731 51.1353 11.7287 51.1269 11.7263L29.6659 5.86517C27.5942 5.23114 25.4054 5.23114 23.3337 5.86517L1.87279 11.7263C1.86434 11.7286 1.85609 11.731 1.84774 11.7336C0.804462 12.0542 0.103516 13.0022 0.103516 14.0925C0.103516 14.1676 0.114445 14.24 0.133315 14.3093C0.114445 14.3785 0.103516 14.4509 0.103516 14.5261V15.35C0.103516 16.713 1.21361 17.8218 2.57817 17.8218H14.1266C14.7599 17.8218 15.3382 17.5827 15.7763 17.1904C16.2145 17.5827 16.7928 17.8218 17.4261 17.8218H25.675V33.4768H17.4261C16.9706 33.4768 16.6012 33.8457 16.6012 34.3007C16.6012 34.7557 16.9706 35.1246 17.4261 35.1246H24.0252V35.9486C24.0252 37.0227 24.7149 37.9386 25.675 38.2787V42.623C23.7946 43.0059 22.3754 44.6703 22.3754 46.6599C22.3754 47.1149 22.7448 47.4838 23.2003 47.4838C23.6559 47.4838 24.0252 47.1149 24.0252 46.6599C24.0252 45.5857 24.7149 44.6699 25.675 44.3297V46.6599C25.675 47.1149 26.0443 47.4838 26.4999 47.4838C26.9554 47.4838 27.3247 47.1149 27.3247 46.6599V44.3297C28.2848 44.6698 28.9745 45.5857 28.9745 46.6599C28.9745 47.1149 29.3439 47.4838 29.7994 47.4838C30.2549 47.4838 30.6243 47.1149 30.6243 46.6599C30.6243 44.6703 29.2051 43.0058 27.3247 42.623V38.2787C28.2848 37.9386 28.9745 37.0228 28.9745 35.9486V35.1246H35.5736C36.0291 35.1246 36.3985 34.7557 36.3985 34.3007C36.3985 33.8457 36.0291 33.4768 35.5736 33.4768H27.3247V17.8218H35.5736C36.2069 17.8218 36.7851 17.5827 37.2234 17.1904C37.6615 17.5827 38.2398 17.8218 38.8731 17.8218H50.4215C51.7861 17.8218 52.8962 16.713 52.8962 15.35V14.5261C52.8962 14.4509 52.8853 14.3785 52.8664 14.3093C52.8853 14.24 52.8962 14.1676 52.8962 14.0925ZM27.3247 35.9486C27.3247 36.4029 26.9547 36.7725 26.4999 36.7725C26.045 36.7725 25.675 36.4029 25.675 35.9486V35.1246H27.3247V35.9486ZM15.5386 12.0542H6.92738L21.7149 8.01566C19.3124 9.66901 16.3286 11.557 15.5386 12.0542ZM25.109 7.58525C25.928 6.93083 27.0735 6.93228 27.8946 7.58845C27.9122 7.60245 27.9303 7.61574 27.9489 7.6283L34.5234 12.0542H18.6072C20.6927 10.7102 23.6068 8.78564 25.109 7.58525ZM14.1266 16.1739H2.57817C2.12335 16.1739 1.75329 15.8043 1.75329 15.35V14.5261C1.75329 14.4509 1.74236 14.3785 1.72349 14.3093C1.74236 14.24 1.75329 14.1676 1.75329 14.0925C1.75329 13.9519 1.78938 13.8191 1.85248 13.7021H14.9515V15.35C14.9515 15.8043 14.5814 16.1739 14.1266 16.1739ZM35.5736 16.1739H17.4261C16.9713 16.1739 16.6012 15.8043 16.6012 15.35V13.7021H36.3985V15.35C36.3985 15.8043 36.0284 16.1739 35.5736 16.1739ZM51.2464 15.35C51.2464 15.8043 50.8764 16.1739 50.4215 16.1739H38.8731C38.4183 16.1739 38.0483 15.8043 38.0483 15.35V13.7021H38.8731C39.3287 13.7021 39.698 13.3332 39.698 12.8782C39.698 12.4231 39.3287 12.0542 38.8731 12.0542H37.4754L31.6069 8.10362L46.0724 12.0542H42.1727C41.7171 12.0542 41.3478 12.4231 41.3478 12.8782C41.3478 13.3332 41.7171 13.7021 42.1727 13.7021H51.1472C51.2104 13.819 51.2464 13.9519 51.2464 14.0925C51.2464 14.1676 51.2574 14.24 51.2762 14.3093C51.2574 14.3785 51.2464 14.4509 51.2464 14.5261V15.35Z" fill="#0EB3E6"/>
<path d="M16.6013 41.6481V37.8026C16.6013 37.2347 16.1388 36.7726 15.5702 36.7726H7.52757V31.005C7.52757 29.642 6.41748 28.5332 5.05291 28.5332C4.59737 28.5332 4.22803 28.9021 4.22803 29.3571C4.22803 29.8122 4.59737 30.1811 5.05291 30.1811C5.50773 30.1811 5.8778 30.5507 5.8778 31.005V37.5966V41.6481L5.06415 46.5245C4.98919 46.9734 5.29285 47.3978 5.74221 47.4727C5.78809 47.4803 5.83377 47.484 5.87883 47.484C6.27477 47.484 6.62422 47.1984 6.69145 46.7953L7.40147 42.5401H15.0776L15.7877 46.7953C15.8549 47.1984 16.2044 47.484 16.6003 47.484C16.6453 47.484 16.691 47.4803 16.7369 47.4727C17.1863 47.3978 17.4899 46.9734 17.415 46.5245L16.6013 41.6481ZM14.9515 40.8924H7.52757V38.4205H14.9515V40.8924Z" fill="#0EB3E6"/>
<path d="M47.9466 28.5332C46.5821 28.5332 45.472 29.642 45.472 31.005V36.7726H37.4294C36.8608 36.7726 36.3983 37.2347 36.3983 37.8026V41.6481L35.5846 46.5245C35.5096 46.9734 35.8133 47.3978 36.2627 47.4727C36.3085 47.4803 36.3542 47.484 36.3993 47.484C36.7952 47.484 37.1447 47.1984 37.2119 46.7953L37.9219 42.5401H45.5981L46.3081 46.7953C46.3753 47.1984 46.7249 47.484 47.1207 47.484C47.1658 47.484 47.2115 47.4803 47.2574 47.4727C47.7067 47.3978 48.0104 46.9734 47.9354 46.5245L47.1218 41.6481V37.5966V31.005C47.1218 30.5507 47.4918 30.1811 47.9466 30.1811C48.4022 30.1811 48.7715 29.8122 48.7715 29.3571C48.7715 28.9021 48.4022 28.5332 47.9466 28.5332ZM38.048 38.4205H45.472V40.8924H38.048V38.4205Z" fill="#0EB3E6"/>
</g>
<defs>
<clipPath id="clip0_2811_324">
<rect width="52.7927" height="52.7324" fill="white" transform="translate(0.103516 0.0703125)"/>
</clipPath>
</defs>
</svg>
