<svg width="53" height="53" viewBox="0 0 53 53" fill="none" xmlns="http://www.w3.org/2000/svg">
<g clip-path="url(#clip0_2811_254)">
<path d="M50.5935 46.5186H48.4863V20.9541H50.5934C51.0638 20.9541 51.4449 20.5735 51.4449 20.1036V16.6139C51.4449 16.6083 51.4441 16.6027 51.4441 16.597C51.4438 16.5787 51.4429 16.5605 51.4414 16.5423C51.4406 16.5324 51.4396 16.5226 51.4384 16.5129C51.4365 16.4965 51.4339 16.4803 51.4309 16.4642C51.4289 16.4536 51.4273 16.4427 51.425 16.4323C51.4217 16.4176 51.4178 16.4031 51.4138 16.3885C51.4107 16.3774 51.4081 16.3663 51.4047 16.3556C51.3992 16.3385 51.3928 16.3218 51.3862 16.3051C51.3791 16.2872 51.3714 16.2695 51.3633 16.2522C51.3578 16.2407 51.3526 16.2289 51.3466 16.2176C51.3407 16.2065 51.3342 16.1957 51.3278 16.185C51.321 16.1733 51.3142 16.1617 51.3068 16.1503C51.3004 16.1405 51.2936 16.1311 51.2868 16.1215C51.2782 16.1096 51.2696 16.0979 51.2605 16.0864C51.2538 16.078 51.2471 16.0697 51.24 16.0616C51.2297 16.0495 51.219 16.038 51.2082 16.0265C51.2014 16.0194 51.1946 16.0122 51.1876 16.0053C51.1756 15.9937 51.1631 15.9826 51.1504 15.9717C51.1434 15.9656 51.1366 15.9593 51.1293 15.9534C51.116 15.9426 51.1021 15.9325 51.088 15.9226C51.0805 15.9173 51.0734 15.9117 51.0659 15.9067C51.052 15.8974 51.0371 15.8888 51.0225 15.8804C51.0001 15.8673 50.9772 15.8554 50.9537 15.8444C50.9465 15.841 50.9396 15.8371 50.9323 15.834L50.9301 15.833C50.9271 15.8318 50.9243 15.8306 50.9213 15.8293L30.7328 7.08563V4.72153H33.0515C33.4527 4.72153 33.7997 4.44169 33.8839 4.0497C33.9683 3.65792 33.7673 3.26026 33.4014 3.09568L26.8495 0.145549C26.6271 0.0452337 26.3721 0.0452337 26.1497 0.145549L19.5978 3.09589C19.2319 3.26057 19.0309 3.65812 19.1153 4.04991C19.1995 4.4418 19.5465 4.72173 19.9477 4.72173H22.2665V7.08563L12.8251 11.1744C12.3936 11.3612 12.1956 11.8621 12.3827 12.2931C12.5696 12.724 13.0708 12.9222 13.5026 12.735L21.9351 9.08307L17.3779 13.1168C17.026 13.4283 16.9935 13.9659 17.3053 14.3175C17.4736 14.5071 17.7076 14.6038 17.9429 14.6038C18.1437 14.6038 18.3453 14.5333 18.5075 14.3898L25.1681 8.49405H27.8312L34.4918 14.3897C34.8438 14.7012 35.3818 14.6687 35.6938 14.3172C36.0057 13.9656 35.9733 13.428 35.6212 13.1165L31.0642 9.08287L46.489 15.7631H6.51011L10.3178 14.114C10.7493 13.9272 10.9475 13.4263 10.7602 12.9954C10.5731 12.5643 10.0719 12.366 9.64035 12.5534L2.0778 15.8286C2.07491 15.8298 2.07202 15.8311 2.06913 15.8323L2.06697 15.8332C2.05944 15.8365 2.05243 15.8404 2.04511 15.8438C2.0217 15.8549 1.99892 15.8666 1.97664 15.8797C1.962 15.8882 1.94726 15.8967 1.93323 15.9059C1.9256 15.9109 1.91859 15.9167 1.91117 15.9219C1.89704 15.9319 1.88312 15.942 1.86982 15.9527C1.8626 15.9586 1.85569 15.9649 1.84868 15.9709C1.836 15.982 1.82352 15.9931 1.81156 16.0046C1.80455 16.0115 1.79775 16.0187 1.79094 16.0258C1.78001 16.0373 1.76939 16.0489 1.75908 16.0608C1.75207 16.069 1.74537 16.0773 1.73866 16.0857C1.72959 16.0972 1.72083 16.1089 1.71237 16.1208C1.70557 16.1303 1.69886 16.1398 1.69247 16.1496C1.68505 16.161 1.67824 16.1725 1.67144 16.1842C1.66504 16.195 1.65865 16.2058 1.65267 16.2169C1.64669 16.2283 1.64133 16.2401 1.63586 16.2517C1.62803 16.2684 1.6205 16.2852 1.61369 16.3024C1.60689 16.3197 1.60019 16.3371 1.59452 16.3548C1.59111 16.3656 1.58843 16.3767 1.58544 16.3876C1.58142 16.4022 1.5774 16.4167 1.5742 16.4315C1.57193 16.442 1.57008 16.4527 1.56822 16.4633C1.56534 16.4794 1.56276 16.4957 1.5607 16.5121C1.55956 16.5218 1.55853 16.5316 1.5577 16.5415C1.55616 16.5596 1.55533 16.5778 1.55502 16.5962C1.55492 16.6019 1.5542 16.6074 1.5542 16.6131V20.1028C1.5542 20.5727 1.9353 20.9533 2.40569 20.9533H4.51296V46.5178H2.40579C1.9354 46.5178 1.5543 46.8985 1.5543 47.3683V51.9515C1.5543 52.4214 1.9354 52.802 2.40579 52.802H9.73253C10.2029 52.802 10.584 52.4214 10.584 51.9515C10.584 51.4817 10.2029 51.101 9.73253 51.101H3.25728V48.2191H49.742V51.101H13.1406C12.6703 51.101 12.2892 51.4817 12.2892 51.9515C12.2892 52.4214 12.6703 52.8027 13.1406 52.8027H50.5935C51.0639 52.8027 51.445 52.422 51.445 51.9521V47.3692C51.445 46.8993 51.0638 46.5186 50.5935 46.5186ZM29.0297 6.79323H28.1541H24.845H23.9694V4.72153H29.0296V6.79323H29.0297ZM23.9084 3.02049L26.4996 1.85369L29.0907 3.02049H23.9084ZM3.25728 19.253V17.4643H49.742V19.253H3.25728ZM46.7831 20.9541V37.6457H35.3823V20.9541H46.7831ZM8.88104 46.5186H6.21604V39.3468H8.88104V46.5186ZM13.2489 46.5186H10.5841V39.3468H13.2489V46.5186V46.5186ZM17.6168 46.5186H14.9518V39.3468H17.6168V46.5186ZM17.6168 37.6459H6.21604V20.9541H17.6168V37.6459ZM33.6794 46.5187H19.3198V20.9541H33.6794V46.5187ZM38.0473 46.5186H35.3823V39.3468H38.0473V46.5186ZM42.4153 46.5186H39.7503V39.3468H42.4153V46.5186ZM46.7832 46.5186H44.1182V39.3468H46.7832V46.5186Z" fill="#0EB3E6"/>
</g>
<defs>
<clipPath id="clip0_2811_254">
<rect width="52.7927" height="52.7324" fill="white" transform="translate(0.103516 0.0703125)"/>
</clipPath>
</defs>
</svg>
