<svg width="53" height="53" viewBox="0 0 53 53" fill="none" xmlns="http://www.w3.org/2000/svg">
<g clip-path="url(#clip0_2811_209)">
<path d="M48.9434 24.6823C50.183 24.6823 51.3693 24.0976 52.1066 23.1088C53.4104 21.3759 53.0578 18.8988 51.3158 17.6017L47.8961 15.0501L47.5541 14.795V14.3697V2.40925V1.55873H48.409C48.8258 1.55873 49.1571 1.22915 49.1571 0.81452C49.1571 0.39989 48.8258 0.0703125 48.409 0.0703125H38.7909C38.3741 0.0703125 38.0428 0.39989 38.0428 0.81452C38.0428 1.22915 38.3741 1.55873 38.7909 1.55873H39.6459V2.40925V7.19344V8.89448L38.278 7.87386L28.8736 0.857046C28.2003 0.357364 27.3561 0.080944 26.5011 0.080944C25.6462 0.080944 24.8019 0.357364 24.1287 0.857046L1.68643 17.6017C0.84217 18.229 0.297144 19.1539 0.147529 20.1958C-0.00208595 21.2377 0.265084 22.2689 0.895603 23.1088C1.52612 23.9487 2.45587 24.4909 3.50318 24.6398C3.69554 24.6717 3.87721 24.6823 4.06958 24.6823C4.51842 24.6823 4.95658 24.6079 5.37336 24.459L6.51685 24.055V25.2564V52.0585C6.51685 52.4731 6.84814 52.8027 7.26492 52.8027H45.7373C46.1541 52.8027 46.4854 52.4731 46.4854 52.0585V25.2564V24.055L47.6289 24.459C48.0457 24.6079 48.4838 24.6823 48.9434 24.6823ZM41.142 9.58553V2.40925V1.55873H41.997H45.203H46.0579V2.40925V11.9776V13.6787L44.69 12.658L41.484 10.266L41.142 10.0108V9.58553ZM19.341 45.6796V50.4638V51.3143H18.486H8.86794H8.013V50.4638V34.5165V33.666H8.86794H31.3102H32.1651V34.5165V37.7059V38.5565H31.3102H26.5011C26.0843 38.5565 25.7531 38.886 25.7531 39.3007V44.0849V44.9354H24.8981H20.0891C19.6723 44.9354 19.341 45.265 19.341 45.6796ZM22.9745 32.1775V31.327V21.546V20.6955H23.8294H29.1728H30.0278V21.546V31.327V32.1775H29.1728H23.8294H22.9745ZM44.9893 34.5165V50.4638V51.3143H44.1343H21.6921H20.8371V50.4638V47.2743V46.4238H21.6921H26.5011C26.9179 46.4238 27.2492 46.0942 27.2492 45.6796V40.8954V40.0449H28.1041H32.9132C33.33 40.0449 33.6613 39.7153 33.6613 39.3007V34.5165V33.666H34.5162H44.1343H44.9893V34.5165ZM44.9893 23.1407V31.327V32.1775H44.1343H32.3789H31.5239V31.327V19.9513C31.5239 19.5366 31.1926 19.2071 30.7758 19.2071H22.2264C21.8096 19.2071 21.4783 19.5366 21.4783 19.9513V31.327V32.1775H20.6234H8.86794H8.013V31.327V23.1407V22.7155L8.35497 22.4603L25.9882 9.29848L26.5011 8.91575L27.0141 9.29848L44.6473 22.4603L44.9893 22.7155V23.1407ZM26.95 7.39544C26.8217 7.29975 26.6614 7.2466 26.5011 7.2466C26.3408 7.2466 26.1805 7.29975 26.0523 7.39544L5.53367 22.7048C5.10619 23.0238 4.59323 23.1939 4.06958 23.1939C3.95202 23.1939 3.83447 23.1833 3.71691 23.1726C3.06502 23.0769 2.48793 22.7367 2.09252 22.2158C1.28033 21.142 1.50475 19.6004 2.58411 18.7924L25.0263 2.04778C25.4431 1.72883 25.9668 1.55873 26.5011 1.55873C27.0355 1.55873 27.5591 1.72883 27.9759 2.04778L50.4181 18.7924C51.4975 19.6004 51.7219 21.142 50.9097 22.2158C50.4395 22.8324 49.7235 23.1939 48.9434 23.1939C48.409 23.1939 47.8961 23.0238 47.4686 22.7048L26.95 7.39544Z" fill="#0EB3E6"/>
</g>
<defs>
<clipPath id="clip0_2811_209">
<rect width="52.7927" height="52.7324" fill="white" transform="translate(0.103516 0.0703125)"/>
</clipPath>
</defs>
</svg>
