<svg width="53" height="53" viewBox="0 0 53 53" fill="none" xmlns="http://www.w3.org/2000/svg">
<g clip-path="url(#clip0_2811_86)">
<path d="M40.1895 10.1553H36.6071C36.1504 10.1553 35.7803 10.5251 35.7803 10.9811V15.1546L27.7391 8.97616C26.7301 8.20072 25.3207 8.20062 24.3115 8.97606L9.80108 20.1251C9.43916 20.4032 9.37152 20.9216 9.64982 21.2832C9.92822 21.6448 10.4472 21.7123 10.8092 21.4343L25.32 10.285C25.7355 9.96571 26.3157 9.96571 26.7312 10.285L36.1033 17.4861C36.6369 17.8958 37.434 17.5025 37.434 16.8315V11.8068H44.5988V23.607C44.5988 23.8635 44.718 24.1052 44.9214 24.2615L49.6585 27.9013C50.1644 28.29 50.2592 29.0171 49.8703 29.5224C49.4856 30.0218 48.7478 30.1187 48.2472 29.7339L26.5297 13.0471C26.2324 12.8188 25.8186 12.8188 25.5215 13.0471L3.80396 29.7338C3.30356 30.118 2.5655 30.0216 2.18089 29.5222C1.79598 29.0226 1.8929 28.2852 2.39268 27.9011L7.7862 23.7569C8.14812 23.4788 8.21576 22.9604 7.93746 22.5988C7.65906 22.2373 7.14 22.1697 6.77808 22.4477L1.38457 26.592C0.170647 27.5247 -0.0643426 29.3153 0.870356 30.5291C1.81526 31.7561 3.5834 31.9865 4.81197 31.0427L26.0254 14.7434L47.2388 31.0427C48.4553 31.9772 50.2463 31.7423 51.1806 30.5291C52.1255 29.3019 51.8948 27.5358 50.6664 26.592L46.2521 23.2002V10.981C46.2521 10.525 45.882 10.1552 45.4253 10.1552H43.251L40.1895 10.1553Z" fill="#3EC1E9"/>
<path fill-rule="evenodd" clip-rule="evenodd" d="M16.291 32.7774C16.291 27.2944 20.7409 22.8496 26.2302 22.8496C31.7194 22.8496 36.1693 27.2944 36.1693 32.7774C36.1693 38.2604 31.7194 42.7052 26.2302 42.7052C20.7409 42.7052 16.291 38.2604 16.291 32.7774ZM17.8125 31.8074H25.523L25.5223 24.3435C21.4957 24.6762 18.2679 27.8213 17.8125 31.8074ZM26.9887 24.3479L26.9895 31.8074H34.6478C34.1944 27.838 30.9917 24.7026 26.9887 24.3479ZM34.6886 33.2722H26.9896L26.9904 41.2069C31.1511 40.8373 34.4468 37.4636 34.6886 33.2722ZM25.5239 41.2115L25.5231 33.2722H17.7717C18.0146 37.4817 21.3378 40.8664 25.5239 41.2115Z" fill="#3EC1E9"/>
</g>
<defs>
<clipPath id="clip0_2811_86">
<rect width="52.7927" height="52.7324" fill="white" transform="translate(0.103516 0.0703125)"/>
</clipPath>
</defs>
</svg>
