<svg width="53" height="53" viewBox="0 0 53 53" fill="none" xmlns="http://www.w3.org/2000/svg">
<g clip-path="url(#clip0_2811_16)">
<path d="M24.1883 27.4102H21.0744C20.5713 27.4102 20.1636 27.8175 20.1636 28.3199C20.1636 28.8223 20.5713 29.2296 21.0744 29.2296H24.1883C24.6915 29.2296 25.0991 28.8223 25.0991 28.3199C25.0991 27.8175 24.6914 27.4102 24.1883 27.4102Z" fill="#0EB3E6"/>
<path d="M42.7749 2.71159H29.3394V0.980074C29.3394 0.697461 29.2078 0.430812 28.9835 0.258711C28.7589 0.0865067 28.4672 0.0281097 28.1938 0.101132L9.99006 4.94994C9.59133 5.05612 9.31396 5.4168 9.31396 5.82898V8.76747C9.31396 9.26987 9.72166 9.67721 10.2247 9.67721C10.7278 9.67721 11.1355 9.26987 11.1355 8.76747V6.528L27.5177 2.16429V50.7832L11.1355 47.5105V11.8338C11.1355 11.3314 10.7278 10.924 10.2247 10.924C9.72166 10.924 9.31396 11.3314 9.31396 11.8338V48.2564C9.31396 48.6901 9.62031 49.0635 10.0462 49.1484L28.2499 52.7851C28.3092 52.797 28.3689 52.8028 28.4285 52.8028C28.6373 52.8028 28.8417 52.7311 29.0059 52.5966C29.2169 52.4238 29.3393 52.1656 29.3393 51.8931V50.1618H37.733C38.2362 50.1618 38.6438 49.7544 38.6438 49.252C38.6438 48.7496 38.2361 48.3423 37.733 48.3423H29.3393V45.7466H38.3544C38.8575 45.7466 39.2651 45.3392 39.2651 44.8368V8.03664C39.2651 7.53424 38.8574 7.1269 38.3544 7.1269H29.3393V4.53106H41.8639V48.3419H40.5645C40.0614 48.3419 39.6538 48.7492 39.6538 49.2516C39.6538 49.754 40.0615 50.1614 40.5645 50.1614H42.7747C43.2779 50.1614 43.6855 49.754 43.6855 49.2516V3.62133C43.6857 3.11893 43.2779 2.71159 42.7749 2.71159ZM37.4437 8.94637V43.9268H29.3395V8.94637H37.4437Z" fill="#0EB3E6"/>
</g>
<defs>
<clipPath id="clip0_2811_16">
<rect width="52.7927" height="52.7324" fill="white" transform="translate(0.103516 0.0703125)"/>
</clipPath>
</defs>
</svg>
