<svg width="53" height="53" viewBox="0 0 53 53" fill="none" xmlns="http://www.w3.org/2000/svg">
<g clip-path="url(#clip0_2811_48)">
<path d="M51.3495 48.1821V13.8415C52.2496 13.5226 52.8962 12.6641 52.8962 11.657C52.8962 10.3792 51.8554 9.33968 50.5762 9.33968H49.0295V7.71703C50.7923 7.3582 52.1229 5.79775 52.1229 3.93255C52.1229 1.80286 50.3883 0.0703125 48.2562 0.0703125C46.1241 0.0703125 44.3896 1.80286 44.3896 3.93255C44.3896 5.79775 45.7201 7.3582 47.4829 7.71703V9.33968H45.9362C44.657 9.33968 43.6162 10.3792 43.6162 11.657C43.6162 12.664 44.2628 13.5226 45.1629 13.8415V19.0462H43.7166C40.7718 19.0462 38.1171 17.3024 36.9312 14.6494C36.715 14.1659 35.1581 9.68852 34.9695 9.15285C33.8119 5.86511 30.7578 3.49194 27.2732 3.19337V0.84276C27.2732 0.416163 26.927 0.0703125 26.4999 0.0703125C26.0728 0.0703125 25.7265 0.416163 25.7265 0.84276V3.19337C22.2529 3.48885 19.1954 5.86089 18.0302 9.15295C18.0626 9.62095 16.1969 14.3622 16.0686 14.6495C14.8826 17.3025 12.228 19.0462 9.28315 19.0462H7.83682V13.8415C8.73687 13.5226 9.38348 12.6641 9.38348 11.657C9.38348 10.3792 8.34278 9.33968 7.06349 9.33968H5.51683V7.71703C7.27961 7.3582 8.61015 5.79775 8.61015 3.93255C8.61015 1.80286 6.87562 0.0703125 4.7435 0.0703125C2.61137 0.0703125 0.876846 1.80286 0.876846 3.93255C0.876846 5.79775 2.20739 7.3582 3.97017 7.71703V9.33968H2.42351C1.14421 9.33968 0.103516 10.3792 0.103516 11.657C0.103516 12.6641 0.750123 13.5226 1.65018 13.8415V23.2634C1.65018 23.69 1.99642 24.0358 2.42351 24.0358C2.85059 24.0358 3.19684 23.69 3.19684 23.2634V13.9744H6.29016V48.1615H3.19684V26.8682C3.19684 26.4416 2.85059 26.0957 2.42351 26.0957C1.99642 26.0957 1.65018 26.4416 1.65018 26.8682V48.1821C0.777241 48.3079 0.103516 49.0588 0.103516 49.9661V50.9982C0.103516 51.9932 0.913038 52.8027 1.90795 52.8027H51.0918C52.0867 52.8027 52.8962 51.9932 52.8962 50.9982V49.9661C52.8962 49.0588 52.2225 48.3079 51.3495 48.1821V48.1821ZM45.9362 3.93255C45.9362 2.65471 46.977 1.61521 48.2562 1.61521C49.5354 1.61521 50.5762 2.65471 50.5762 3.93255C50.5762 5.21038 49.5354 6.24989 48.2562 6.24989C46.977 6.24989 45.9362 5.21038 45.9362 3.93255ZM45.9362 10.8846H50.5762C51.0027 10.8846 51.3495 11.231 51.3495 11.657C51.3495 12.083 51.0027 12.4295 50.5762 12.4295H45.9362C45.5098 12.4295 45.1629 12.083 45.1629 11.657C45.1629 11.231 45.5098 10.8846 45.9362 10.8846ZM49.8029 13.9744V48.1615H46.7096V13.9744H49.8029ZM41.851 20.3935C42.4563 20.5223 43.0807 20.5911 43.7166 20.5911H45.1629V43.1704H41.851V20.3935ZM36.9914 17.5615C37.9011 18.5875 39.036 19.3941 40.3043 19.9161V43.1704H36.9914V17.5615ZM27.2732 4.74527C28.474 4.87092 29.606 5.28701 30.5851 5.93133V28.1616C30.5851 28.5882 30.9312 28.9341 31.3584 28.9341C31.7856 28.9341 32.1318 28.5882 32.1318 28.1616V7.28878C32.7243 7.97554 33.1973 8.77641 33.5104 9.66545C33.6581 10.085 35.2816 14.7194 35.4447 15.1052V43.1705H32.1318V31.7664C32.1318 31.3398 31.7856 30.9939 31.3584 30.9939C30.9312 30.9939 30.5851 31.3398 30.5851 31.7664V43.1704H27.2732V4.74527ZM27.2732 44.7153H45.1629V48.1615H27.2732V44.7153ZM22.4146 5.93133C23.3937 5.28701 24.5257 4.87102 25.7265 4.74527V43.1704H22.4146V5.93133ZM17.555 15.1051C17.6969 14.7748 19.347 10.0697 19.4894 9.66534C19.8024 8.77631 20.2754 7.97543 20.8679 7.28868V43.1704H17.555V15.1051ZM12.6954 19.9161C13.9638 19.3941 15.0986 18.5875 16.0083 17.5615V43.1704H12.6954V19.9161ZM25.7265 44.7153V48.1615H7.83682V44.7153H25.7265ZM9.28315 20.5911C9.91904 20.5911 10.5433 20.5223 11.1487 20.3935V43.1704H7.83682V20.5911H9.28315ZM2.42351 3.93255C2.42351 2.65471 3.4642 1.61521 4.7435 1.61521C6.02279 1.61521 7.06349 2.65471 7.06349 3.93255C7.06349 5.21038 6.02279 6.24989 4.7435 6.24989C3.4642 6.24989 2.42351 5.21038 2.42351 3.93255ZM2.42351 12.4295C1.99704 12.4295 1.65018 12.083 1.65018 11.657C1.65018 11.231 1.99704 10.8846 2.42351 10.8846H7.06349C7.48995 10.8846 7.83682 11.231 7.83682 11.657C7.83682 12.083 7.48995 12.4295 7.06349 12.4295H2.42351ZM51.3495 50.9982C51.3495 51.1413 51.2339 51.2578 51.0918 51.2578H1.90795C1.76587 51.2578 1.65018 51.1413 1.65018 50.9982V49.9661C1.65018 49.8229 1.76587 49.7064 1.90795 49.7064H51.0918C51.2339 49.7064 51.3495 49.8229 51.3495 49.9661V50.9982Z" fill="#0EB3E6"/>
</g>
<defs>
<clipPath id="clip0_2811_48">
<rect width="52.7927" height="52.7324" fill="white" transform="translate(0.103516 0.0703125)"/>
</clipPath>
</defs>
</svg>
