<svg width="78" height="78" viewBox="0 0 78 78" fill="none" xmlns="http://www.w3.org/2000/svg">
<path d="M70.1239 25.5078H63.4951C62.8643 25.5078 62.3525 26.0196 62.3525 26.6504C62.3525 27.2812 62.8643 27.793 63.4951 27.793H70.1239C70.7547 27.793 71.2664 27.2812 71.2664 26.6504C71.2664 26.0196 70.7547 25.5078 70.1239 25.5078Z" fill="#0EB3E6"/>
<path d="M63.4951 18.5332H66.5045C67.1353 18.5332 67.6471 18.0214 67.6471 17.3906C67.6471 16.7592 67.1353 16.248 66.5045 16.248H63.4951C62.8643 16.248 62.3525 16.7592 62.3525 17.3906C62.3525 18.0214 62.8643 18.5332 63.4951 18.5332Z" fill="#0EB3E6"/>
<path d="M63.4951 9.27246H67.5709C68.2023 9.27246 68.7135 8.76128 68.7135 8.12988C68.7135 7.49908 68.2023 6.9873 67.5709 6.9873H63.4951C62.8643 6.9873 62.3525 7.49908 62.3525 8.12988C62.3525 8.76128 62.8643 9.27246 63.4951 9.27246Z" fill="#0EB3E6"/>
<path d="M67.5715 44.0293H63.4951C62.8643 44.0293 62.3525 44.5405 62.3525 45.1719C62.3525 45.8027 62.8643 46.3145 63.4951 46.3145H67.5715C68.2023 46.3145 68.7141 45.8027 68.7141 45.1719C68.7141 44.5405 68.2023 44.0293 67.5715 44.0293Z" fill="#0EB3E6"/>
<path d="M63.4951 37.0537H66.5045C67.1353 37.0537 67.6471 36.5425 67.6471 35.9111C67.6471 35.2803 67.1353 34.7686 66.5045 34.7686H63.4951C62.8643 34.7686 62.3525 35.2803 62.3525 35.9111C62.3525 36.5425 62.8643 37.0537 63.4951 37.0537Z" fill="#0EB3E6"/>
<path d="M58.5345 47.1968V10.335C58.5345 4.63637 53.8988 0 48.1996 0C42.5015 0 37.8652 4.63637 37.8652 10.335V47.1968C33.596 50.4305 31.0645 55.4948 31.0645 60.8649C31.0645 70.3132 38.7513 78 48.1996 78C57.6484 78 65.3353 70.3132 65.3353 60.8649C65.3353 55.4948 62.8043 50.4305 58.5345 47.1968ZM48.1996 75.7148C40.0117 75.7148 33.3496 69.0534 33.3496 60.8649C33.3496 56.0375 35.7109 51.494 39.6653 48.7119C39.9694 48.4977 40.1503 48.149 40.1503 47.777V10.335C40.1503 5.89618 43.7614 2.28516 48.1996 2.28516C52.6384 2.28516 56.2494 5.89618 56.2494 10.335V47.777C56.2494 48.149 56.4303 48.4977 56.7344 48.7119C60.6888 51.4946 63.0501 56.0375 63.0501 60.8649C63.0501 69.0534 56.388 75.7148 48.1996 75.7148Z" fill="#0EB3E6"/>
<path d="M53.2015 49.4609V10.3348C53.2015 7.57651 50.958 5.33301 48.1997 5.33301C45.442 5.33301 43.1985 7.57651 43.1985 10.3348V39.6788C43.1985 40.3102 43.7103 40.8214 44.3411 40.8214C44.9719 40.8214 45.4837 40.3102 45.4837 39.6788V18.5328H50.9163V50.2256C50.9163 50.7029 51.2127 51.1302 51.6596 51.2968C55.5134 52.7321 58.1021 56.4604 58.1021 60.5743C58.1021 66.0349 53.6603 70.4766 48.1997 70.4766C42.7397 70.4766 38.2974 66.0349 38.2974 60.5743C38.2974 56.4604 40.8866 52.7321 44.7398 51.2968C45.1873 51.1296 45.4837 50.7029 45.4837 50.2256V44.2503C45.4837 43.6195 44.9719 43.1077 44.3411 43.1077C43.7103 43.1077 43.1985 43.6195 43.1985 44.2503V49.4609C38.8692 51.4116 36.0122 55.7808 36.0122 60.5743C36.0122 67.2947 41.4799 72.7618 48.1997 72.7618C54.9201 72.7618 60.3872 67.2947 60.3872 60.5743C60.3872 55.7808 57.5308 51.4122 53.2015 49.4609ZM45.4837 16.2476V10.3348C45.4837 8.83691 46.7025 7.61816 48.2003 7.61816C49.6976 7.61816 50.9163 8.83691 50.9163 10.3348V16.2476H45.4837Z" fill="#0EB3E6"/>
<path d="M31.3559 24.4008C33.0615 24.5573 33.7976 22.2876 32.3271 21.4134C30.5389 20.3506 30.5359 17.7613 32.3271 16.6967C33.7988 15.8213 33.0597 13.5522 31.3559 13.7088C29.2826 13.901 27.7616 11.8045 28.5834 9.89302C29.26 8.32019 27.3278 6.91815 26.0424 8.04645C24.479 9.41873 22.0148 8.62131 21.5559 6.58906C21.1787 4.91864 18.7917 4.92042 18.415 6.58906C17.9568 8.61774 15.4949 9.42052 13.9286 8.04645C12.6426 6.91696 10.7116 8.32078 11.3876 9.89302C12.2106 11.8062 10.6866 13.9004 8.61506 13.7088C6.91012 13.5534 6.1734 15.8219 7.64446 16.6967C9.4351 17.7613 9.43153 20.3512 7.64387 21.4134C6.17399 22.2876 6.90953 24.5567 8.61506 24.4008C10.686 24.2086 12.2106 26.3033 11.3876 28.2165C10.711 29.7894 12.6432 31.1914 13.9286 30.0631C15.492 28.6908 17.9562 29.4888 18.415 31.5205C18.7923 33.1909 21.1793 33.1891 21.5559 31.5205C22.0142 29.4918 24.4767 28.6884 26.0424 30.0631C27.3289 31.192 29.26 29.7882 28.5834 28.2165C27.7622 26.3075 29.2814 24.2092 31.3559 24.4008ZM29.8462 22.2585C27.5408 22.8464 25.9245 25.0399 26.0798 27.4423C23.8691 26.5628 21.2727 27.3876 19.9861 29.4228C18.7126 27.4084 16.1263 26.5532 13.8917 27.4423C14.0459 25.0625 12.454 22.8524 10.1254 22.2585C11.6453 20.4279 11.6631 17.7036 10.1254 15.8511C12.4415 15.2608 14.0465 13.0601 13.8917 10.6672C16.1073 11.5486 18.7019 10.7184 19.9861 8.68736C21.2632 10.7077 23.8518 11.5533 26.0798 10.6672C25.9257 13.047 27.5176 15.2572 29.8462 15.8511C28.3186 17.6911 28.315 20.4149 29.8462 22.2585Z" fill="#0EB3E6"/>
<path d="M19.9856 12.7549C16.512 12.7549 13.6865 15.581 13.6865 19.0545C13.6865 22.5281 16.512 25.3542 19.9856 25.3542C23.4591 25.3542 26.2852 22.5281 26.2852 19.0545C26.2852 15.581 23.4591 12.7549 19.9856 12.7549ZM19.9856 23.0684C17.7724 23.0684 15.9717 21.2677 15.9717 19.0545C15.9717 16.8408 17.7724 15.04 19.9856 15.04C22.1993 15.04 24.0001 16.8408 24.0001 19.0545C24.0001 21.2677 22.1993 23.0684 19.9856 23.0684Z" fill="#0EB3E6"/>
</svg>
