<svg width="78" height="78" viewBox="0 0 78 78" fill="none" xmlns="http://www.w3.org/2000/svg">
<g clip-path="url(#clip0_39_162)">
<path d="M3.45918 54.7214C3.75137 54.7214 4.04415 54.6101 4.26731 54.3869L6.84288 51.8108C7.2892 51.365 7.2892 50.6414 6.84288 50.1951C6.39656 49.7488 5.67292 49.7488 5.2272 50.1951L2.65163 52.7707C2.20531 53.217 2.20531 53.9406 2.65163 54.3869C2.8742 54.6101 3.16699 54.7214 3.45918 54.7214Z" fill="#0EB3E6"/>
<path d="M11.8912 61.7927C11.4455 61.3464 10.7219 61.3464 10.2755 61.7927L7.69997 64.3683C7.25365 64.8146 7.25365 65.5383 7.69997 65.984C7.92313 66.2072 8.21532 66.319 8.50811 66.319C8.8003 66.319 9.09249 66.2072 9.31565 65.984L11.8912 63.4084C12.3375 62.9621 12.3375 62.2391 11.8912 61.7927Z" fill="#0EB3E6"/>
<path d="M39.8443 53.8023C39.5218 52.7401 38.5595 52.0266 37.4497 52.0266H31.7856L37.2687 46.5434H45.3578L41.7058 50.1949C41.2594 50.6412 41.2594 51.3648 41.7058 51.8105C41.9289 52.0337 42.2211 52.1456 42.5139 52.1456C42.8061 52.1456 43.0989 52.0337 43.322 51.8105L48.2833 46.8492C48.375 46.7576 48.447 46.6535 48.5011 46.5434H53.2702C53.9016 46.5434 54.4128 46.0316 54.4128 45.4008C54.4128 44.7694 53.9016 44.2582 53.2702 44.2582H46.2439C48.0703 42.8157 49.4211 40.7722 49.9942 38.3668C50.1406 37.7526 49.7615 37.1367 49.1474 36.9903C48.5327 36.8439 47.9179 37.223 47.7715 37.8372C46.8706 41.6178 43.5244 44.2582 39.6336 44.2582H12.7747C9.2839 44.2582 6.44352 41.4178 6.44352 37.9264C6.44352 34.4975 9.12739 31.719 12.5533 31.6012C13.1419 31.5809 13.6186 31.1162 13.6543 30.5282C13.85 27.2951 15.2473 24.2708 17.589 22.0124C18.0431 21.5744 18.0562 20.8514 17.6182 20.3974C17.1802 19.9427 16.4566 19.9302 16.0025 20.3682C13.4859 22.7956 11.8964 25.9764 11.4643 29.4106C7.2945 30.0379 4.15836 33.6025 4.15836 37.927C4.15836 42.6782 8.02409 46.5434 12.7747 46.5434H13.9084L0.18195 60.2698C-0.263775 60.7161 -0.263775 61.4391 0.18195 61.8855C0.40511 62.1086 0.697896 62.2199 0.990086 62.2199C1.28228 62.2199 1.57506 62.1086 1.79822 61.8855L17.1403 46.5434H22.5676L14.3666 54.7443C13.6483 55.4626 13.4353 56.5332 13.8239 57.4717C14.2131 58.4107 15.1206 59.0171 16.1364 59.0171H21.3583L11.3036 69.0718C10.3741 70.0019 10.3051 71.4141 11.1394 72.4299C11.6399 73.0393 12.3421 73.3571 13.0604 73.3571C13.5406 73.3571 14.028 73.2148 14.466 72.9221L38.8416 56.61C39.764 55.9928 40.1668 54.8646 39.8443 53.8023ZM37.5705 54.711L13.1948 71.0225C13.1294 71.0666 13.0306 71.1326 12.9056 70.9797C12.7801 70.8273 12.864 70.7434 12.9199 70.6875L24.9247 58.6827C25.252 58.356 25.3496 57.8644 25.1729 57.4377C24.9955 57.0105 24.579 56.732 24.1172 56.732H16.1364C16.1007 56.732 15.9912 56.732 15.9353 56.5975C15.8799 56.463 15.9573 56.3856 15.9829 56.36L25.7995 46.5434H34.0374L28.2192 52.3616C27.8925 52.6883 27.7949 53.1798 27.9716 53.6065C28.1483 54.0338 28.5649 54.3117 29.0273 54.3117H37.4497C37.4979 54.3117 37.6109 54.3117 37.6579 54.4664C37.7049 54.6212 37.6109 54.6842 37.5705 54.711Z" fill="#0EB3E6"/>
<path d="M55.7745 48.8933C55.3281 48.447 54.6045 48.447 54.1588 48.8933L45.2395 57.8126C44.7932 58.2589 44.7932 58.982 45.2395 59.4283C45.4627 59.6514 45.7555 59.7627 46.0477 59.7627C46.3399 59.7627 46.6326 59.6514 46.8558 59.4283L55.7745 50.509C56.2208 50.0633 56.2208 49.3397 55.7745 48.8933Z" fill="#0EB3E6"/>
<path d="M41.3996 61.6531L38.5437 64.509C38.0974 64.9553 38.0974 65.6783 38.5437 66.1246C38.7669 66.3478 39.0591 66.4591 39.3519 66.4591C39.644 66.4591 39.9362 66.3478 40.1594 66.1246L43.0152 63.2688C43.4616 62.8225 43.4616 62.0988 43.0152 61.6531C42.5695 61.2068 41.8459 61.2068 41.3996 61.6531Z" fill="#0EB3E6"/>
<path d="M77.8474 34.9462C77.8474 31.9196 76.6882 29.0554 74.5828 26.8815C72.7207 24.96 70.2969 23.7585 67.6725 23.4383C66.5353 12.951 57.6244 4.875 46.9621 4.875C42.9506 4.875 39.0551 6.01817 35.697 8.18074C32.596 10.1779 30.0888 12.9492 28.4136 16.2187C27.8049 16.1431 27.1878 16.1026 26.5647 16.1026C24.4926 16.1026 22.4782 16.5156 20.5769 17.3297C19.9972 17.5785 19.7283 18.2497 19.977 18.8299C20.2258 19.4101 20.8976 19.6791 21.4772 19.4304C23.0917 18.7383 24.8038 18.3878 26.5647 18.3878C31.9295 18.3878 36.7985 21.762 38.6808 26.7839C38.8462 27.2255 39.2658 27.5201 39.7371 27.5254C43.4023 27.5701 46.5789 29.954 47.6417 33.4579C47.7917 33.9512 48.2445 34.269 48.7349 34.269C48.845 34.269 48.9563 34.253 49.0669 34.2196C49.671 34.0363 50.012 33.3984 49.8287 32.7944C48.5498 28.5805 44.8715 25.6384 40.5363 25.2772C38.7105 21.0675 35.0644 17.9438 30.7488 16.6977C32.233 14.0305 34.3521 11.765 36.9348 10.1023C39.9227 8.17777 43.3904 7.16016 46.9621 7.16016C56.7526 7.16016 64.8845 14.8077 65.4754 24.5702C65.5112 25.1587 65.9878 25.6229 66.577 25.6432C71.6156 25.8163 75.5623 29.9028 75.5623 34.9462C75.5623 40.0807 71.3853 44.2583 66.2509 44.2583H58.2457C57.6149 44.2583 57.1031 44.7694 57.1031 45.4008C57.1031 46.0316 57.6149 46.5434 58.2457 46.5434H65.5909L51.8645 60.2698C51.4182 60.7156 51.4182 61.4392 51.8645 61.8855C52.0876 62.1087 52.3804 62.2199 52.6726 62.2199C52.9648 62.2199 53.2576 62.1087 53.4808 61.8855L69.2055 46.1602C74.1733 44.8504 77.8474 40.3199 77.8474 34.9462Z" fill="#0EB3E6"/>
<path d="M61.4033 23.3661C61.4919 23.3661 61.5818 23.356 61.6711 23.3346C62.2846 23.187 62.6625 22.5705 62.5155 21.9563C62.3031 21.0726 62.0121 20.2014 61.6508 19.3665C61.4003 18.7875 60.7273 18.5215 60.1488 18.772C59.5692 19.0225 59.3032 19.6956 59.5537 20.2746C59.8626 20.9887 60.1119 21.7344 60.2934 22.4907C60.4196 23.0144 60.8873 23.3661 61.4033 23.3661Z" fill="#0EB3E6"/>
<path d="M56.8588 16.225C57.0832 16.4589 57.3831 16.5761 57.6836 16.5761C57.9681 16.5761 58.2531 16.4708 58.4745 16.2583C58.9297 15.8209 58.9446 15.0979 58.5078 14.6426C55.4562 11.4637 51.356 9.71289 46.9624 9.71289C46.331 9.71289 45.8198 10.2241 45.8198 10.8555C45.8198 11.4863 46.331 11.998 46.9624 11.998C50.7282 11.998 54.2428 13.4989 56.8588 16.225Z" fill="#0EB3E6"/>
<path d="M49.1576 64.1738H49.1421C49.1403 64.1738 49.1385 64.1738 49.1367 64.1738C48.5083 64.1738 47.9971 64.682 47.9942 65.3111C47.9912 65.9424 48.5 66.4566 49.1314 66.459H49.1469H49.1528C49.7812 66.459 50.2918 65.9514 50.2948 65.3218C50.2978 64.691 49.789 64.1768 49.1576 64.1738Z" fill="#0EB3E6"/>
<path d="M62.7601 56.4287H62.7446C62.7428 56.4287 62.7411 56.4287 62.7387 56.4287C62.1103 56.4287 61.5997 56.9363 61.5967 57.5659C61.5937 58.1967 62.1025 58.7109 62.7339 58.7139H62.7494H62.7553C63.3838 58.7139 63.8944 58.2057 63.8973 57.5766C63.9003 56.9458 63.3915 56.4317 62.7601 56.4287Z" fill="#0EB3E6"/>
<path d="M5.73824 66.8457H5.72217C5.09137 66.8457 4.57959 67.3575 4.57959 67.9883C4.57959 68.6191 5.09137 69.1309 5.72217 69.1309H5.73824C6.36904 69.1309 6.88082 68.6191 6.88082 67.9883C6.88082 67.3575 6.36904 66.8457 5.73824 66.8457Z" fill="#0EB3E6"/>
</g>
<defs>
<clipPath id="clip0_39_162">
<rect width="78" height="78" fill="white"/>
</clipPath>
</defs>
</svg>
