<svg width="78" height="78" viewBox="0 0 78 78" fill="none" xmlns="http://www.w3.org/2000/svg">
<path d="M23.8857 55.5396H21.2172L22.2552 54.2422C22.6491 53.7499 22.5693 53.0313 22.0769 52.6373C21.5846 52.2433 20.866 52.3232 20.4722 52.8155L18.2928 55.5398H14.9391V52.186L17.6633 50.0067C18.1557 49.6127 18.2356 48.8943 17.8416 48.4018C17.4476 47.9093 16.7292 47.8295 16.2368 48.2235L14.9393 49.2615V46.593C14.9393 45.9622 14.428 45.4512 13.7974 45.4512C13.1669 45.4512 12.6556 45.9622 12.6556 46.593V49.2615L11.3581 48.2235C10.8657 47.8295 10.147 47.9093 9.75315 48.4018C9.35915 48.8943 9.43907 49.6127 9.93142 50.0067L12.6556 52.186V55.5398H9.3019L7.12242 52.8155C6.72842 52.323 6.00968 52.2431 5.51749 52.6373C5.02514 53.0313 4.94536 53.7499 5.33921 54.2422L6.37735 55.5396H3.70871C3.07812 55.5396 2.56689 56.0507 2.56689 56.6814C2.56689 57.3122 3.07812 57.8232 3.70871 57.8232H6.37704L5.33921 59.1206C4.94536 59.613 5.02514 60.3316 5.51749 60.7256C5.72804 60.8939 5.97984 60.9757 6.22998 60.9757C6.56491 60.9757 6.89679 60.8291 7.12226 60.5473L9.30145 57.8232H12.6555V61.177L9.93142 63.3563C9.43892 63.7503 9.35915 64.4689 9.75315 64.9612C9.97862 65.2432 10.3105 65.3898 10.6454 65.3898C10.8956 65.3898 11.1474 65.308 11.3579 65.1395L12.6555 64.1015V66.77C12.6555 67.4007 13.1667 67.9118 13.7973 67.9118C14.4279 67.9118 14.9391 67.4007 14.9391 66.77V64.1015L16.2365 65.1395C16.729 65.5335 17.4476 65.4537 17.8414 64.9612C18.2354 64.4689 18.1555 63.7503 17.6632 63.3563L14.9391 61.1771V57.8232H18.2927L20.472 60.5474C20.6975 60.8294 21.0294 60.9758 21.3643 60.9758C21.6144 60.9758 21.8662 60.8941 22.0768 60.7257C22.5693 60.3317 22.6491 59.6131 22.2551 59.1208L21.2171 57.8232H23.8856C24.5162 57.8232 25.0274 57.3122 25.0274 56.6814C25.0275 56.0508 24.5165 55.5396 23.8857 55.5396Z" fill="#0EB3E6"/>
<path d="M74.3291 55.5396H71.6604L72.6984 54.2422C73.0922 53.7499 73.0126 53.0313 72.5201 52.6373C72.0276 52.2433 71.309 52.3232 70.9152 52.8155L68.7358 55.5398H65.3821V52.186L68.1063 50.0067C68.5987 49.6127 68.6786 48.8943 68.2846 48.4018C67.8906 47.9093 67.1722 47.8295 66.6797 48.2235L65.3821 49.2615V46.593C65.3821 45.9622 64.8709 45.4512 64.2403 45.4512C63.6097 45.4512 63.0985 45.9622 63.0985 46.593V49.2615L61.8009 48.2235C61.3086 47.8295 60.5899 47.9093 60.196 48.4018C59.802 48.8941 59.8819 49.6127 60.3743 50.0067L63.0983 52.186V55.5398H59.7448L57.5653 52.8155C57.1713 52.323 56.4527 52.2431 55.9604 52.6373C55.468 53.0313 55.3882 53.7499 55.7821 54.2422L56.8202 55.5396H54.1516C53.521 55.5396 53.0098 56.0507 53.0098 56.6814C53.0098 57.3122 53.521 57.8232 54.1516 57.8232H56.8199L55.7821 59.1206C55.3882 59.613 55.4679 60.3316 55.9604 60.7256C56.1709 60.8939 56.4229 60.9757 56.673 60.9757C57.0079 60.9757 57.3398 60.8291 57.5653 60.5473L59.7445 57.8232H63.0982V61.177L60.3741 63.3563C59.8818 63.7503 59.8019 64.4689 60.1959 64.9612C60.5897 65.4536 61.3084 65.5335 61.8008 65.1395L63.0983 64.1015V66.77C63.0983 67.4007 63.6096 67.9118 64.2402 67.9118C64.8707 67.9118 65.382 67.4007 65.382 66.77V64.1015L66.6794 65.1395C66.8899 65.308 67.1417 65.3898 67.3919 65.3898C67.7268 65.3898 68.0587 65.2432 68.2841 64.9612C68.678 64.4689 68.5982 63.7503 68.1059 63.3563L65.3818 61.1771V57.8232H68.7355L70.9149 60.5474C71.1403 60.8294 71.4722 60.9758 71.8072 60.9758C72.0573 60.9758 72.3091 60.8941 72.5198 60.7257C73.0122 60.3317 73.0919 59.6131 72.6981 59.1208L71.6601 57.8232H74.3287C74.9593 57.8232 75.4706 57.3122 75.4706 56.6814C75.4709 56.0508 74.9598 55.5396 74.3291 55.5396Z" fill="#0EB3E6"/>
<path d="M46.5853 68.1494H45.1777L45.5852 67.64C45.9792 67.1475 45.8993 66.4291 45.407 66.0351C44.9146 65.6411 44.1959 65.7209 43.802 66.2134L42.2533 68.1494H40.1607V66.0569L42.0966 64.5081C42.589 64.1141 42.6689 63.3957 42.2749 62.9032C41.8809 62.4108 41.1623 62.3307 40.67 62.7249L40.1606 63.1324V61.7248C40.1606 61.0941 39.6493 60.583 39.0188 60.583C38.3882 60.583 37.8769 61.0941 37.8769 61.7248V63.1324L37.3675 62.7249C36.8752 62.3309 36.1565 62.4108 35.7626 62.9032C35.3688 63.3957 35.4485 64.1141 35.9409 64.5081L37.8768 66.0569V68.1494H35.7842L34.2355 66.2134C33.8415 65.7209 33.1229 65.6411 32.6307 66.0351C32.1384 66.4291 32.0584 67.1475 32.4524 67.64L32.86 68.1494H31.4524C30.8218 68.1494 30.3105 68.6605 30.3105 69.2912C30.3105 69.922 30.8218 70.433 31.4524 70.433H32.86L32.4524 70.9424C32.0584 71.4349 32.1384 72.1534 32.6307 72.5474C32.8413 72.7157 33.0931 72.7976 33.3432 72.7976C33.6781 72.7976 34.01 72.651 34.2355 72.3691L35.7842 70.433H37.8768V72.5257L35.9409 74.0745C35.4484 74.4685 35.3686 75.1871 35.7626 75.6794C36.1565 76.1716 36.875 76.2515 37.3675 75.8577L37.8769 75.4501V76.8576C37.8769 77.4884 38.3882 77.9994 39.0188 77.9994C39.6493 77.9994 40.1606 77.4884 40.1606 76.8576V75.4501L40.67 75.8577C40.8805 76.0262 41.1323 76.108 41.3825 76.108C41.7174 76.108 42.0493 75.9614 42.2747 75.6794C42.6687 75.1869 42.5888 74.4685 42.0965 74.0745L40.1606 72.5257V70.433H42.2531L43.8019 72.3691C44.0273 72.651 44.3592 72.7976 44.6942 72.7976C44.9443 72.7976 45.1961 72.7159 45.4066 72.5474C45.899 72.1534 45.9789 71.4349 45.5849 70.9424L45.1774 70.433H46.585C47.2156 70.433 47.7268 69.922 47.7268 69.2912C47.7268 68.6605 47.2159 68.1494 46.5853 68.1494Z" fill="#0EB3E6"/>
<path d="M31.7377 56.7494L32.7137 55.7734L33.6897 56.7494C33.9126 56.9723 34.2049 57.0837 34.4971 57.0837C34.7892 57.0837 35.0815 56.9721 35.3044 56.7494C35.7503 56.3033 35.7503 55.5805 35.3044 55.1346L34.3284 54.1586L35.3044 53.1827C35.7503 52.7366 35.7503 52.0138 35.3044 51.5677C34.8585 51.122 34.1355 51.122 33.6897 51.5677L32.7137 52.5437L31.7377 51.5677C31.2918 51.122 30.5688 51.122 30.123 51.5677C29.6771 52.0138 29.6771 52.7366 30.123 53.1827L31.099 54.1586L30.123 55.1346C29.6771 55.5807 29.6771 56.3035 30.123 56.7494C30.3459 56.9723 30.6382 57.0837 30.9303 57.0837C31.2225 57.0837 31.5148 56.9721 31.7377 56.7494Z" fill="#0EB3E6"/>
<path d="M23.9549 69.223C23.509 68.7772 22.786 68.7772 22.3401 69.223L21.3641 70.199L20.3881 69.223C19.9422 68.7772 19.2192 68.7772 18.7734 69.223C18.3275 69.6691 18.3275 70.3919 18.7734 70.838L19.7494 71.8138L18.7734 72.7899C18.3275 73.2359 18.3275 73.9588 18.7734 74.4047C18.9963 74.6276 19.2886 74.739 19.5807 74.739C19.8729 74.739 20.1652 74.6274 20.3881 74.4047L21.3641 73.4287L22.3401 74.4047C22.563 74.6276 22.8553 74.739 23.1475 74.739C23.4396 74.739 23.7319 74.6274 23.9548 74.4047C24.4007 73.9586 24.4007 73.2358 23.9548 72.7899L22.9788 71.8138L23.9548 70.838C24.4009 70.3919 24.4009 69.6691 23.9549 69.223Z" fill="#0EB3E6"/>
<path d="M59.2647 69.223C58.8188 68.7772 58.0958 68.7772 57.6498 69.223L56.6738 70.199L55.6978 69.223C55.2519 68.7772 54.5289 68.7772 54.083 69.223C53.6371 69.6691 53.6371 70.3919 54.083 70.838L55.059 71.8138L54.083 72.7899C53.6371 73.2359 53.6371 73.9588 54.083 74.4047C54.3059 74.6276 54.5982 74.739 54.8903 74.739C55.1826 74.739 55.4748 74.6274 55.6976 74.4047L56.6737 73.4287L57.6497 74.4047C57.8726 74.6276 58.1649 74.739 58.457 74.739C58.7492 74.739 59.0415 74.6274 59.2644 74.4047C59.7103 73.9586 59.7103 73.2358 59.2644 72.7899L58.2883 71.8138L59.2644 70.838C59.7106 70.3919 59.7106 69.6691 59.2647 69.223Z" fill="#0EB3E6"/>
<path d="M74.3973 69.223C73.9514 68.7772 73.2284 68.7772 72.7826 69.223L71.8066 70.199L70.8306 69.223C70.3847 68.7772 69.6617 68.7772 69.2158 69.223C68.7699 69.6691 68.7699 70.3919 69.2158 70.838L70.1918 71.8138L69.2158 72.7899C68.7699 73.2359 68.7699 73.9588 69.2158 74.4047C69.4387 74.6276 69.731 74.739 70.0231 74.739C70.3153 74.739 70.6076 74.6274 70.8305 74.4047L71.8065 73.4287L72.7825 74.4047C73.0054 74.6276 73.2977 74.739 73.5898 74.739C73.882 74.739 74.1743 74.6274 74.3972 74.4047C74.8431 73.9586 74.8431 73.2358 74.3972 72.7899L73.4211 71.8138L74.3972 70.838C74.8432 70.3919 74.8432 69.6691 74.3973 69.223Z" fill="#0EB3E6"/>
<path d="M47.9149 51.5677C47.469 51.122 46.746 51.122 46.3002 51.5677L45.3242 52.5437L44.3482 51.5677C43.9023 51.122 43.1793 51.122 42.7334 51.5677C42.2874 52.0138 42.2874 52.7366 42.7334 53.1827L43.7094 54.1586L42.7334 55.1346C42.2874 55.5807 42.2874 56.3035 42.7334 56.7494C42.9562 56.9723 43.2485 57.0837 43.5407 57.0837C43.8328 57.0837 44.1252 56.9721 44.348 56.7494L45.3241 55.7734L46.3001 56.7494C46.523 56.9723 46.8153 57.0837 47.1074 57.0837C47.3996 57.0837 47.6919 56.9721 47.9147 56.7494C48.3607 56.3033 48.3607 55.5805 47.9147 55.1346L46.9387 54.1586L47.9147 53.1827C48.3608 52.7366 48.3608 52.0138 47.9149 51.5677Z" fill="#0EB3E6"/>
<path d="M8.82197 69.223C8.37606 68.7772 7.65306 68.7772 7.2073 69.223L6.23128 70.199L5.25526 69.223C4.80935 68.7772 4.08635 68.7772 3.64059 69.223C3.19467 69.6691 3.19467 70.3919 3.64059 70.838L4.61661 71.8138L3.64059 72.7899C3.19467 73.2359 3.19467 73.9588 3.64059 74.4047C3.86347 74.6276 4.15577 74.739 4.44793 74.739C4.74008 74.739 5.03238 74.6274 5.25526 74.4047L6.23128 73.4287L7.2073 74.4047C7.43018 74.6276 7.72249 74.739 8.01464 74.739C8.30679 74.739 8.59909 74.6274 8.82197 74.4047C9.26789 73.9586 9.26789 73.2358 8.82197 72.7899L7.84595 71.8138L8.82197 70.838C9.26789 70.3919 9.26789 69.6691 8.82197 69.223Z" fill="#0EB3E6"/>
<path d="M13.7785 42.6377H16.2295C16.8601 42.6377 17.3714 42.1264 17.3714 41.4959C17.3714 40.8651 16.8601 40.3541 16.2295 40.3541H13.7785C7.4545 40.3541 2.30965 35.2092 2.30965 28.8852C2.30965 22.5648 7.44917 17.4221 13.7684 17.4164C13.7719 17.4166 13.7759 17.4164 13.7795 17.4164C20.103 17.4169 25.2474 22.5616 25.2474 28.8852C25.2474 29.516 25.7586 30.0271 26.3892 30.0271C27.0198 30.0271 27.531 29.516 27.531 28.8852C27.531 21.688 21.9733 15.7651 14.9244 15.1809C14.9236 15.1253 14.9204 15.0686 14.9204 15.0135C14.9204 12.9996 15.3767 11.0739 16.2763 9.28993C16.5602 8.72694 16.334 8.04033 15.771 7.7564C15.2079 7.47232 14.5212 7.6987 14.2373 8.26169C13.1751 10.3676 12.6366 12.6392 12.6366 15.0135C12.6366 15.0686 12.637 15.124 12.6376 15.1797C5.58619 15.7616 0.0258789 21.6863 0.0258789 28.8852C0.0260311 36.4684 6.19531 42.6377 13.7785 42.6377Z" fill="#0EB3E6"/>
<path d="M67.2783 20.1897C65.7354 15.6851 61.4869 12.6106 56.6549 12.6106C54.7644 12.6106 52.9331 13.0786 51.2931 13.9732C49.6934 11.5796 46.9673 10.0884 44.0443 10.0884C43.3228 10.0884 42.6132 10.1758 41.9233 10.3491C41.0196 7.59198 39.3117 5.1179 37.0292 3.28963C34.3809 1.1683 31.0502 0 27.6503 0C23.7269 0 20.0154 1.50384 17.1994 4.2346C16.7468 4.67366 16.7357 5.3965 17.1746 5.84912C17.6137 6.30173 18.3363 6.313 18.7891 5.87378C21.1767 3.55864 24.3237 2.28362 27.6503 2.28362C33.2738 2.28362 38.1434 5.90438 39.7946 11.1928C37.0913 12.7027 35.3359 15.5842 35.3359 18.7968C35.3359 19.4275 35.8472 19.9386 36.4777 19.9386C37.1083 19.9386 37.6196 19.4275 37.6196 18.7968C37.6196 16.1505 39.2329 13.8089 41.6314 12.8402C41.6695 12.8247 42.1955 12.6292 42.4321 12.5759C42.8283 12.4867 43.4889 12.3722 44.0441 12.3722C46.5158 12.3722 48.7967 13.8174 49.8547 16.0542C49.9983 16.358 50.2688 16.5832 50.5937 16.6695C50.9185 16.7555 51.265 16.6945 51.5407 16.5021C53.0471 15.4502 54.8155 14.8942 56.6549 14.8942C60.7431 14.8942 64.307 17.6562 65.3216 21.6105C65.4543 22.1283 65.9228 22.4871 66.4631 22.4681C66.4631 22.4681 66.6758 22.4606 66.7435 22.4606C71.6767 22.4606 75.6903 26.474 75.6903 31.4074C75.6903 36.3408 71.6769 40.3542 66.7435 40.3542C61.8101 40.3542 57.7967 36.3408 57.7967 31.4074C57.7967 30.7767 57.2857 30.2656 56.6549 30.2656C56.0242 30.2656 55.5131 30.7767 55.5131 31.4074C55.5131 35.0554 57.2625 38.3014 59.9653 40.3542H20.797C20.1664 40.3542 19.6552 40.8653 19.6552 41.496C19.6552 42.1266 20.1664 42.6378 20.797 42.6378H66.7433C72.9358 42.6378 77.9737 37.5998 77.9737 31.4074C77.9737 25.3942 73.2235 20.4695 67.2783 20.1897Z" fill="#0EB3E6"/>
</svg>
