<svg width="70" height="78" viewBox="0 0 70 78" fill="none" xmlns="http://www.w3.org/2000/svg">
<path d="M30.4483 69.0947C29.9227 68.746 29.2135 68.8892 28.8645 69.415C26.2468 73.3599 21.8747 75.7151 17.1694 75.7151C9.42863 75.7151 3.13135 69.3996 3.13135 61.6368C3.13135 57.1345 5.31139 52.8648 8.96261 50.2154C9.25877 50.0004 9.43427 49.6566 9.43427 49.2907V23.3848C9.43427 22.7538 8.92285 22.2422 8.29169 22.2422C7.66053 22.2422 7.14911 22.7538 7.14911 23.3848V48.7212C3.19183 51.8174 0.846191 56.6018 0.846191 61.6368C0.846191 70.6596 8.16875 78.0003 17.1694 78.0003C22.6425 78.0003 27.7263 75.2631 30.7686 70.6785C31.1175 70.1528 30.9741 69.4436 30.4483 69.0947Z" fill="#0EB3E6"/>
<path d="M27.1893 48.7209V10.044C27.1893 4.50572 22.6944 0 17.1692 0C17.0427 0 16.9152 0.0024375 16.7879 0.0073125C11.3829 0.21252 7.14893 4.64999 7.14893 10.1098V18.8141C7.14893 19.4452 7.66034 19.9567 8.2915 19.9567C8.92266 19.9567 9.43408 19.4452 9.43408 18.8141V10.1098C9.43408 5.88367 12.7023 2.44908 16.8745 2.29079C16.973 2.28714 17.0714 2.28516 17.1693 2.28516C21.4344 2.28516 24.9043 5.76575 24.9043 10.044V49.2904C24.9043 49.6563 25.0796 50.0001 25.3759 50.2151C29.0273 52.8643 31.2071 57.1341 31.2071 61.6363C31.2071 62.9495 31.0261 64.2499 30.6694 65.5013C30.4964 66.108 30.8481 66.7403 31.4549 66.9133C31.5597 66.9432 31.6651 66.9574 31.7689 66.9574C32.2663 66.9574 32.7241 66.6298 32.8671 66.1277C33.282 64.6725 33.4924 63.1614 33.4924 61.6363C33.4922 56.6015 31.1464 51.8171 27.1893 48.7209Z" fill="#0EB3E6"/>
<path d="M19.8111 7.28915C19.0574 6.56353 18.0651 6.18587 17.0232 6.22548C14.9665 6.30364 13.3555 8.00973 13.3555 10.1098V50.5478C13.3555 51.5123 12.8419 52.417 12.0153 52.9089C8.95429 54.7304 7.05273 58.0745 7.05273 61.6364C7.05273 67.228 11.5912 71.7773 17.1696 71.7773C22.7479 71.7773 27.2864 67.2282 27.2864 61.6364C27.2864 58.0746 25.3849 54.7304 22.3238 52.9089C21.4972 52.417 20.9837 51.5124 20.9837 50.5478V45.0631H21.7626C22.3938 45.0631 22.9052 44.5515 22.9052 43.9205C22.9052 43.2895 22.3938 42.7779 21.7626 42.7779H20.9837V38.9061H21.7626C22.3938 38.9061 22.9052 38.3945 22.9052 37.7635C22.9052 37.1325 22.3938 36.621 21.7626 36.621H20.9837V32.7493H21.7626C22.3938 32.7493 22.9052 32.2377 22.9052 31.6067C22.9052 30.9757 22.3938 30.4641 21.7626 30.4641H20.9837V26.5923H21.7626C22.3938 26.5923 22.9052 26.0807 22.9052 25.4497C22.9052 24.8187 22.3938 24.3072 21.7626 24.3072H20.9837V20.4355H21.7626C22.3938 20.4355 22.9052 19.9239 22.9052 19.2929C22.9052 18.6619 22.3938 18.1503 21.7626 18.1503H20.9837V14.2787H21.7626C22.3938 14.2787 22.9052 13.7671 22.9052 13.1361C22.9052 12.5051 22.3938 11.9935 21.7626 11.9935H20.9837V10.044C20.9837 8.99555 20.5673 8.0172 19.8111 7.28915ZM21.1553 54.8728C23.5275 56.2844 25.0013 58.8761 25.0013 61.6364C25.0013 65.968 21.4879 69.4922 17.1696 69.4922C12.8512 69.4922 9.33789 65.9682 9.33789 61.6364C9.33789 58.8761 10.8117 56.2844 13.1838 54.8728C14.6992 53.9711 15.6407 52.3139 15.6407 50.5479V45.0632H18.6985V50.5479C18.6985 52.3139 19.64 53.9711 21.1553 54.8728ZM15.6407 42.7779V10.1098C15.6407 9.25789 16.2997 8.53974 17.1099 8.50896C17.1298 8.5082 17.1496 8.50775 17.1694 8.50775C17.5654 8.50775 17.9386 8.65826 18.2264 8.93522C18.5311 9.22848 18.6988 9.62214 18.6988 10.0438V42.7779H15.6407Z" fill="#0EB3E6"/>
<path d="M68.0116 24.3876H64.8096L66.1982 22.999C66.6444 22.5528 66.6444 21.8294 66.1982 21.3832C65.7518 20.937 65.0285 20.937 64.5823 21.3832L61.5778 24.3878H54.5046L59.5062 19.3862H63.7552C64.3864 19.3862 64.8978 18.8746 64.8978 18.2436C64.8978 17.6126 64.3864 17.101 63.7552 17.101H61.7914L64.0556 14.8367C64.5019 14.3905 64.5019 13.6672 64.0556 13.221C63.6093 12.7747 62.886 12.7747 62.4397 13.221L60.1756 15.4851V13.5212C60.1756 12.8902 59.6642 12.3786 59.033 12.3786C58.4019 12.3786 57.8905 12.8902 57.8905 13.5212V17.7702L53.0022 22.6585V15.8116L56.0067 12.8072C56.4531 12.361 56.4531 11.6375 56.0069 11.1913C55.5607 10.7452 54.8372 10.7451 54.3911 11.1913L53.0024 12.58V9.37793C53.0024 8.74692 52.4909 8.23535 51.8598 8.23535C51.2286 8.23535 50.7172 8.74692 50.7172 9.37793V12.58L49.3286 11.1914C48.8822 10.7452 48.1589 10.7452 47.7127 11.1914C47.2665 11.6376 47.2665 12.361 47.7127 12.8072L50.7173 15.8119V22.7251L46.0407 18.0484V13.7993C46.0407 13.1682 45.5293 12.6567 44.8981 12.6567C44.267 12.6567 43.7555 13.1682 43.7555 13.7993V15.7631L41.3266 13.3341C40.8802 12.8879 40.1569 12.8879 39.7107 13.3341C39.2645 13.7804 39.2645 14.5037 39.7107 14.9499L42.1398 17.379H40.1753C39.5442 17.379 39.0327 17.8906 39.0327 18.5216C39.0327 19.1526 39.5442 19.6642 40.1753 19.6642H44.4243L49.1477 24.3876H42.5341L39.5295 21.3831C39.0832 20.9369 38.3598 20.9369 37.9136 21.3831C37.4674 21.8293 37.4674 22.5526 37.9136 22.9988L39.3022 24.3874H35.8672C35.236 24.3874 34.7246 24.899 34.7246 25.53C34.7246 26.161 35.236 26.6726 35.8672 26.6726H39.3024L37.9136 28.0614C37.4674 28.5076 37.4674 29.2309 37.9136 29.6771C38.1368 29.9003 38.4293 30.0118 38.7217 30.0118C39.014 30.0118 39.3065 29.9003 39.5297 29.6771L42.5342 26.6726H48.9878L44.4243 31.2361H40.1753C39.5442 31.2361 39.0327 31.7476 39.0327 32.3786C39.0327 33.0096 39.5442 33.5212 40.1753 33.5212H42.1392L39.7101 35.9503C39.2638 36.3965 39.2638 37.1199 39.7101 37.5661C39.9332 37.7893 40.2257 37.9008 40.5181 37.9008C40.8104 37.9008 41.1029 37.7893 41.3261 37.5661L43.7551 35.1371V37.101C43.7551 37.732 44.2665 38.2436 44.8977 38.2436C45.5288 38.2436 46.0402 37.732 46.0402 37.101V32.852L50.7169 28.1753V34.8553L47.7122 37.86C47.266 38.3062 47.266 39.0295 47.7122 39.4757C47.9354 39.6989 48.2279 39.8104 48.5202 39.8104C48.8126 39.8104 49.1051 39.6989 49.3283 39.4757L50.7169 38.0871V41.5223C50.7169 42.1533 51.2283 42.6649 51.8595 42.6649C52.4906 42.6649 53.002 42.1533 53.002 41.5223V38.0871L54.3908 39.4759C54.6138 39.6989 54.9063 39.8106 55.1987 39.8106C55.491 39.8106 55.7835 39.6991 56.0067 39.4759C56.4529 39.0297 56.4529 38.3062 56.0066 37.86L53.002 34.8556V28.2417L57.8903 33.13V37.379C57.8903 38.01 58.4017 38.5216 59.0329 38.5216C59.664 38.5216 60.1755 38.01 60.1755 37.379V35.4152L62.4396 37.6793C62.6628 37.9025 62.9553 38.014 63.2476 38.014C63.54 38.014 63.8325 37.9025 64.0556 37.6793C64.5019 37.2331 64.5019 36.5097 64.0556 36.0635L61.7914 33.7992H63.7552C64.3864 33.7992 64.8978 33.2877 64.8978 32.6567C64.8978 32.0257 64.3864 31.5141 63.7552 31.5141H59.5062L54.6647 26.6726H61.5778L64.5823 29.6771C64.8055 29.9003 65.098 30.0118 65.3903 30.0118C65.6827 30.0118 65.9752 29.9003 66.1984 29.6771C66.6446 29.2309 66.6446 28.5076 66.1984 28.0614L64.8096 26.6726H68.0116C68.6427 26.6726 69.1541 26.161 69.1541 25.53C69.1541 24.899 68.6427 24.3876 68.0116 24.3876Z" fill="#0EB3E6"/>
</svg>
