<svg width="78" height="78" viewBox="0 0 78 78" fill="none" xmlns="http://www.w3.org/2000/svg">
<g clip-path="url(#clip0_2771_133)">
<path d="M76.8414 65.1738C74.0034 65.1738 72.5674 66.58 71.3004 67.8214C70.168 68.9312 69.273 69.8072 67.3806 69.8072C65.4882 69.8072 64.5932 68.9312 63.4607 67.8214C62.1937 66.58 60.7578 65.1738 57.9198 65.1738C55.0812 65.1738 53.6452 66.58 52.3789 67.8214C51.2458 68.9312 50.3514 69.8072 48.459 69.8072C46.5666 69.8072 45.6722 68.9312 44.5391 67.8214C43.2728 66.58 41.8368 65.1738 38.9988 65.1738C36.1608 65.1738 34.7249 66.58 33.4579 67.8214C32.3254 68.9312 31.431 69.8072 29.5386 69.8072C27.6468 69.8072 26.7518 68.9312 25.6193 67.8214C24.3524 66.5806 22.9164 65.1738 20.0784 65.1738C17.2404 65.1738 15.8045 66.58 14.5375 67.8214C13.4051 68.9312 12.5106 69.8072 10.6182 69.8072C8.72585 69.8072 7.83142 68.9312 6.69896 67.8214C5.43201 66.58 3.99605 65.1738 1.15865 65.1738C0.518326 65.1738 0 65.6922 0 66.3319C0 66.9716 0.518326 67.4905 1.15865 67.4905C3.05045 67.4905 3.94487 68.3671 5.07733 69.4763C6.34428 70.7171 7.78024 72.1239 10.6182 72.1239C13.4562 72.1239 14.8922 70.7177 16.1591 69.4763C17.2916 68.3671 18.1866 67.4905 20.0784 67.4905C21.9708 67.4905 22.8652 68.3671 23.9983 69.4763C25.2653 70.7177 26.7012 72.1239 29.5386 72.1239C32.3766 72.1239 33.8126 70.7177 35.0795 69.4763C36.212 68.3665 37.1064 67.4905 38.9988 67.4905C40.8906 67.4905 41.7856 68.3671 42.9181 69.4763C44.185 70.7177 45.621 72.1239 48.459 72.1239C51.297 72.1239 52.733 70.7177 53.9999 69.4763C55.1324 68.3671 56.0274 67.4905 57.9198 67.4905C59.8122 67.4905 60.7066 68.3671 61.8397 69.4763C63.1066 70.7177 64.5426 72.1239 67.3806 72.1239C70.2186 72.1239 71.6545 70.7177 72.9215 69.4763C74.0545 68.3671 74.949 67.4905 76.8414 67.4905C77.4817 67.4905 78 66.9716 78 66.3319C78 65.6922 77.4817 65.1738 76.8414 65.1738Z" fill="#0EB3E6"/>
<path d="M76.8414 56.6289C74.0034 56.6289 72.5674 58.0357 71.3004 59.2765C70.168 60.3863 69.273 61.2623 67.3806 61.2623C65.4882 61.2623 64.5932 60.3863 63.4607 59.2765C62.1937 58.0357 60.7578 56.6289 57.9198 56.6289C55.0812 56.6289 53.6452 58.0357 52.3789 59.2765C51.2458 60.3863 50.3514 61.2623 48.459 61.2623C46.5666 61.2623 45.6722 60.3863 44.5391 59.2765C43.2728 58.0357 41.8368 56.6289 38.9988 56.6289C36.1608 56.6289 34.7249 58.0357 33.4579 59.2765C32.3254 60.3863 31.431 61.2623 29.5386 61.2623C27.6468 61.2623 26.7518 60.3863 25.6193 59.2765C24.3524 58.0357 22.9164 56.6289 20.0784 56.6289C17.2404 56.6289 15.8045 58.0357 14.5375 59.2765C13.4051 60.3863 12.5106 61.2623 10.6182 61.2623C8.72585 61.2623 7.83142 60.3863 6.69896 59.2765C5.43201 58.0357 3.99605 56.6289 1.15865 56.6289C0.518326 56.6289 0 57.1478 0 57.7876C0 58.4273 0.518326 58.9456 1.15865 58.9456C3.05045 58.9456 3.94487 59.8222 5.07733 60.9314C6.34428 62.1728 7.78024 63.5796 10.6182 63.5796C13.4562 63.5796 14.8922 62.1728 16.1591 60.932C17.2916 59.8222 18.1866 58.9456 20.0784 58.9456C21.9708 58.9456 22.8652 59.8222 23.9983 60.932C25.2653 62.1728 26.7012 63.5796 29.5386 63.5796C32.3766 63.5796 33.8126 62.1728 35.0795 60.9314C36.212 59.8222 37.1064 58.9456 38.9988 58.9456C40.8906 58.9456 41.7856 59.8222 42.9181 60.932C44.185 62.1728 45.621 63.5796 48.459 63.5796C51.297 63.5796 52.733 62.1728 53.9999 60.932C55.1324 59.8222 56.0274 58.9456 57.9198 58.9456C59.8122 58.9456 60.7066 59.8222 61.8397 60.932C63.1066 62.1728 64.5426 63.5796 67.3806 63.5796C70.2186 63.5796 71.6545 62.1728 72.9215 60.932C74.0545 59.8222 74.949 58.9456 76.8414 58.9456C77.4817 58.9456 78 58.4273 78 57.7876C78 57.1478 77.4817 56.6289 76.8414 56.6289Z" fill="#0EB3E6"/>
<path d="M56.6485 18.8788C56.6485 19.5185 57.1668 20.0368 57.8065 20.0368H67.8862C68.8711 20.0368 69.6721 20.8384 69.6721 21.8233C69.6721 22.8076 68.8711 23.6091 67.8862 23.6091H43.8653C41.6027 23.6091 39.7621 25.4498 39.7621 27.7117C39.7621 29.9737 41.6027 31.8149 43.8653 31.8149H61.364C62.3483 31.8149 63.1498 32.6165 63.1498 33.6008C63.1498 35.8633 64.9899 37.7039 67.2524 37.7039H73.8966C74.8815 37.7039 75.6831 38.5049 75.6831 39.4898C75.6831 40.4741 74.8815 41.2757 73.8966 41.2757H56.9091C54.6472 41.2757 52.8065 43.1163 52.8065 45.3782C52.8065 46.3631 52.0055 47.1641 51.0207 47.1641H18.5453C17.9055 47.1641 17.3872 47.683 17.3872 48.3228C17.3872 48.9625 17.9055 49.4814 18.5453 49.4814H51.0207C53.2826 49.4814 55.1232 47.6408 55.1232 45.3782C55.1232 44.3934 55.9248 43.5924 56.9091 43.5924H73.8966C76.1592 43.5924 77.9992 41.7517 77.9992 39.4898C77.9992 37.2272 76.1592 35.3866 73.8966 35.3866H67.2524C66.2675 35.3866 65.4665 34.5856 65.4665 33.6008C65.4665 31.3388 63.6259 29.4982 61.3634 29.4982H43.8653C42.8804 29.4982 42.0794 28.6966 42.0794 27.7123C42.0794 26.7274 42.8804 25.9258 43.8653 25.9258H67.8862C70.1487 25.9258 71.9888 24.0852 71.9888 21.8233C71.9888 19.5613 70.1487 17.7207 67.8862 17.7207H57.8065C57.1668 17.7201 56.6485 18.239 56.6485 18.8788Z" fill="#0EB3E6"/>
<path d="M4.10257 49.4814H14.015C14.6553 49.4814 15.1737 48.9631 15.1737 48.3233C15.1737 47.6836 14.6553 47.1647 14.015 47.1647H4.10257C3.11829 47.1647 2.3167 46.3631 2.3167 45.3788C2.3167 44.394 3.11829 43.593 4.10257 43.593H24.7469C27.0095 43.593 28.8501 41.7523 28.8501 39.4898C28.8501 37.2278 27.0095 35.3872 24.7469 35.3872H9.11861C8.13373 35.3872 7.33273 34.5856 7.33273 33.6013C7.33273 32.6165 8.13432 31.8155 9.11861 31.8155H19.4804C21.7423 31.8155 23.5829 29.9743 23.5829 27.7123C23.5829 25.4504 21.7423 23.6097 19.4804 23.6097H16.2514C15.2665 23.6097 14.4655 22.8082 14.4655 21.8239C14.4655 20.839 15.2665 20.0374 16.2514 20.0374H53.2763C53.9166 20.0374 54.4349 19.5191 54.4349 18.8793C54.4349 18.2396 53.9166 17.7207 53.2763 17.7207H16.2514C13.9888 17.7207 12.1488 19.5613 12.1488 21.8239C12.1488 24.0858 13.9888 25.9264 16.2514 25.9264H19.4804C20.4646 25.9264 21.2662 26.728 21.2662 27.7123C21.2662 28.6972 20.4646 29.4982 19.4804 29.4982H9.11861C6.85666 29.4982 5.01604 31.3388 5.01604 33.6013C5.01604 35.8633 6.85666 37.7039 9.11861 37.7039H24.7469C25.7318 37.7039 26.5334 38.5055 26.5334 39.4898C26.5334 40.4747 25.7318 41.2757 24.7469 41.2757H4.10257C1.84062 41.2757 0 43.1163 0 45.3788C0 47.6408 1.84062 49.4814 4.10257 49.4814Z" fill="#0EB3E6"/>
<path d="M45.266 43.3669C47.5285 43.3669 49.3691 41.5262 49.3691 39.2643C49.3691 38.1675 48.9424 37.1374 48.1676 36.3626C47.3928 35.5878 46.3621 35.1611 45.266 35.1611H37.3167C35.0554 35.1611 33.2153 37.0018 33.2153 39.2643C33.2153 40.3605 33.6426 41.3906 34.4168 42.1654C35.1916 42.9402 36.2217 43.3669 37.3167 43.3669H45.266ZM35.5326 39.2643C35.5326 38.2794 36.333 37.4778 37.3173 37.4778H45.266C45.7438 37.4778 46.1919 37.6635 46.5293 38.0009C46.8668 38.3383 47.0524 38.787 47.0524 39.2643C47.0524 40.2492 46.2514 41.0502 45.2666 41.0502H37.3173C36.8412 41.0502 36.3931 40.8645 36.0557 40.5271C35.7183 40.1903 35.5326 39.7416 35.5326 39.2643Z" fill="#0EB3E6"/>
<path d="M6.4352 14.1477H30.9738C33.2358 14.1477 35.0764 12.3071 35.0764 10.0446C35.0764 7.78203 33.2358 5.94141 30.9738 5.94141H6.4352C4.17265 5.94141 2.33203 7.78203 2.33203 10.0446C2.33203 12.3071 4.17265 14.1477 6.4352 14.1477ZM6.4352 8.2581H30.9738C31.9587 8.2581 32.7597 9.05969 32.7597 10.0446C32.7597 11.0294 31.9581 11.831 30.9738 11.831H6.4352C5.45032 11.831 4.64932 11.0294 4.64932 10.0446C4.64932 9.05969 5.45032 8.2581 6.4352 8.2581Z" fill="#0EB3E6"/>
<path d="M42.1779 14.1477H57.3765C59.6391 14.1477 61.4797 12.3071 61.4797 10.0446C61.4797 7.78203 59.6391 5.94141 57.3765 5.94141H42.1779C39.9153 5.94141 38.0747 7.78203 38.0747 10.0446C38.0747 12.3071 39.9153 14.1477 42.1779 14.1477ZM42.1779 8.2581H57.3765C58.3614 8.2581 59.1624 9.05969 59.1624 10.0446C59.1624 11.0294 58.3614 11.831 57.3765 11.831H42.1779C41.193 11.831 40.392 11.0294 40.392 10.0446C40.392 9.05969 41.193 8.2581 42.1779 8.2581Z" fill="#0EB3E6"/>
</g>
<defs>
<clipPath id="clip0_2771_133">
<rect width="78" height="78" fill="white"/>
</clipPath>
</defs>
</svg>
