<svg width="78" height="78" viewBox="0 0 78 78" fill="none" xmlns="http://www.w3.org/2000/svg">
<path d="M48.591 54.0932L45.171 53.2331C45.7889 52.163 46.2972 51.0694 46.6883 49.9673C46.8994 49.3726 46.5882 48.7193 45.9934 48.5082C45.399 48.2977 44.7453 48.6082 44.5343 49.2032C44.0402 50.5959 43.3297 51.9797 42.4224 53.3163C42.2129 53.625 42.1672 54.0164 42.3001 54.3649C42.433 54.7135 42.7275 54.9753 43.0892 55.0662L46.9398 56.0346C45.0086 58.493 40.4293 63.3658 33.5804 64.8418L29.8135 57.9214L34.0633 45.5514C34.2684 44.9545 33.9507 44.3044 33.3538 44.0993C32.7565 43.8939 32.1067 44.2119 31.9018 44.8087L28.332 55.1994L24.121 47.4631V42.3694C24.121 41.7383 23.6093 41.2266 22.9782 41.2266C22.3471 41.2266 21.8354 41.7383 21.8354 42.3694V46.1928L18.5583 45.1537C17.9562 44.9631 17.3142 45.296 17.1234 45.8975C16.9326 46.4993 17.2657 47.1416 17.8673 47.3324L22.1943 48.7045L26.489 56.5945L15.2582 55.0911C14.6325 55.0068 14.0577 55.4466 13.9739 56.072C13.8901 56.6975 14.3294 57.2726 14.9549 57.3564L27.8428 59.0817L31.5679 65.9254C26.6173 70.9155 20.0183 72.1347 16.8986 72.4294L18.1676 68.6672C18.2869 68.3137 18.2261 67.9244 18.0047 67.6241C17.7835 67.3238 17.43 67.1495 17.0565 67.1597C7.58092 67.3934 3.54251 61.0739 2.37414 58.7233L10.8372 51.3106C11.142 51.0437 11.2826 50.6353 11.2069 50.2373C11.1311 49.8394 10.8503 49.5111 10.4688 49.3748C7.69886 48.3848 6.44165 44.4871 5.99612 42.6609L10.2422 42.0686C10.7703 41.995 11.1773 41.5658 11.223 41.0345L11.6146 36.4719C11.6686 35.8431 11.2025 35.2897 10.5736 35.2356C9.94616 35.1823 9.39123 35.6476 9.33729 36.2766L9.02371 39.9309L4.87544 40.5094C4.46191 40.567 4.08525 40.7947 3.84192 41.1338C3.59828 41.4735 3.5035 41.9039 3.58167 42.3146C3.87239 43.8434 4.98439 48.454 8.08999 50.6786L0.650986 57.1942C0.0165178 57.7502 -0.177602 58.6709 0.179249 59.4332C1.25559 61.7326 5.43479 68.9595 15.4991 69.4276L14.3725 72.7678C14.2107 73.2476 14.2959 73.7759 14.6001 74.1806C14.8906 74.5669 15.3443 74.7922 15.8247 74.7922C15.8471 74.7922 15.8697 74.7918 15.8922 74.7907C18.353 74.6824 26.514 73.8676 32.7032 68.011L37.7886 77.3536C37.9958 77.7345 38.3883 77.9502 38.7933 77.9502C38.9778 77.9502 39.1651 77.9054 39.3386 77.811C39.8929 77.5093 40.0977 76.8152 39.796 76.2609L34.7131 66.9228C42.9624 64.8751 48.0502 58.4734 49.4703 56.4658C49.7624 56.053 49.8319 55.5234 49.6564 55.0492C49.4804 54.5741 49.0822 54.2168 48.591 54.0932Z" fill="#0EB3E6"/>
<path d="M27.6849 28.1219C27.2677 28.1429 26.8723 28.3368 26.6 28.6534L23.869 31.8292L13.0898 26.1344C12.4756 25.81 11.745 25.8149 11.1351 26.1475C10.5253 26.4803 10.1256 27.0922 10.0662 27.7844L9.75522 31.4066C9.70129 32.0354 10.1672 32.589 10.7961 32.6429C11.4278 32.6965 11.9785 32.2307 12.0324 31.6021L12.3149 28.3099L23.607 34.2758C24.0785 34.525 24.6598 34.4148 25.0073 34.0106L27.8027 30.7601C29.0983 32.1236 31.6953 35.2888 31.0293 38.1541C30.9375 38.5488 31.0616 38.9624 31.3553 39.2414C31.6491 39.5204 32.0687 39.623 32.458 39.5113L43.271 36.4043C44.0673 37.7407 45.5535 40.7947 45.3997 44.7597C45.3752 45.3903 45.8666 45.9215 46.4974 45.9459C46.5125 45.9465 46.5274 45.9468 46.5425 45.9468C47.1532 45.9468 47.6597 45.4639 47.6836 44.8483C47.8726 39.98 45.9088 36.299 45.0557 34.9425C44.6076 34.2298 43.7284 33.8951 42.9173 34.1279L33.4131 36.8588C33.2226 33.0423 29.9452 29.6121 28.8161 28.5403C28.5138 28.2534 28.1012 28.0998 27.6849 28.1219Z" fill="#0EB3E6"/>
<path d="M77.2394 20.2343L71.9084 16.7819C73.6159 14.8363 73.8973 11.7849 73.9425 10.7404C73.9591 10.3562 73.8156 9.9769 73.5488 9.70005C73.2823 9.42349 72.9058 9.26549 72.5253 9.26853L69.9384 9.28423L68.0952 1.42103C67.9588 0.839734 67.5432 0.368607 66.9833 0.161079C66.4234 -0.0466013 65.8011 0.0397925 65.3186 0.392072L58.7959 5.15455L56.844 3.45669C56.5541 3.20436 56.1681 3.08079 55.7858 3.1166C55.4037 3.15271 55.0484 3.34622 54.8111 3.64776C54.1643 4.46949 52.3884 6.96805 52.4153 9.55697L46.1221 8.70111C45.3921 8.60176 44.6724 9.0025 44.3745 9.67582C44.0963 10.3043 43.602 11.614 43.4169 13.322C43.3489 13.9495 43.8025 14.5133 44.4299 14.5812C45.0584 14.649 45.6212 14.1957 45.6892 13.5683C45.8064 12.4866 46.0712 11.6082 46.2892 11.0305L53.6574 12.0327C54.0587 12.0869 54.4591 11.9251 54.7096 11.6068C54.9601 11.2884 55.0232 10.8611 54.8756 10.4838C54.2673 8.92951 55.3321 6.926 56.0688 5.81157L57.9839 7.47743C58.3863 7.82742 58.9772 7.85256 59.4078 7.53807L66.0457 2.69133L67.9213 10.6933C68.0425 11.2103 68.5035 11.5754 69.0339 11.5754H69.041L71.5791 11.56C71.4115 12.8849 70.9134 15.099 69.4391 15.8814C69.0812 16.0714 68.8506 16.4365 68.833 16.8413C68.8154 17.246 69.0135 17.6298 69.3536 17.85L75.5954 21.8924C74.9358 23.7143 72.7967 27.849 66.8509 28.5657C66.4807 28.6104 66.1554 28.833 65.9797 29.1621C65.804 29.4912 65.7999 29.8853 65.9689 30.2179L66.9474 32.1447C64.7261 32.1862 60.7638 31.847 57.352 29.3896L59.0472 24.8007L67.4498 22.4053C68.0566 22.2323 68.4085 21.6 68.2354 20.9929C68.0624 20.3859 67.4302 20.0339 66.8231 20.2073L60.0283 22.1444L61.8684 17.1627L64.5399 15.8666C65.1078 15.5911 65.3448 14.9074 65.0694 14.3397C64.7939 13.7718 64.1104 13.5352 63.5425 13.8102L61.8617 14.6256L61.5544 12.5154C61.4634 11.8908 60.8828 11.4579 60.2588 11.5492C59.6342 11.6402 59.2017 12.2202 59.2926 12.8448L59.7831 16.212L58.0036 21.0295L54.926 15.0539C54.6371 14.4927 53.9478 14.2722 53.3868 14.5611C52.8256 14.85 52.6051 15.5392 52.894 16.1003L56.9294 23.9366L55.2053 28.604C51.0326 28.2348 47.8196 25.9185 46.1656 24.4424L48.1635 23.6189C48.5083 23.4767 48.7622 23.1752 48.8434 22.8112C48.9246 22.447 48.823 22.0662 48.5711 21.7911C47.4704 20.5878 46.6674 19.2849 46.1847 17.9184C45.9744 17.3233 45.3215 17.0115 44.7265 17.2216C44.1315 17.4319 43.8195 18.0848 44.0297 18.6798C44.4506 19.8707 45.0651 21.0146 45.8634 22.0949L44.0593 22.8386C43.6285 23.0163 43.3134 23.3941 43.2165 23.8497C43.1196 24.3049 43.2531 24.778 43.5738 25.1152C44.7277 26.3286 48.7087 30.0768 54.3891 30.8135L52.0212 37.2238C51.8024 37.8158 52.1052 38.4731 52.6973 38.6918C52.8279 38.7401 52.9615 38.7629 53.0931 38.7629C53.5579 38.7629 53.9947 38.4772 54.1652 38.0159L56.5347 31.6011C60.1582 33.989 64.1717 34.4314 66.6359 34.4314C67.4321 34.4314 68.0667 34.3853 68.4741 34.3442C68.937 34.2976 69.3468 34.0259 69.5698 33.6176C69.7932 33.2087 69.8008 32.7167 69.5898 32.3012L68.7071 30.563C75.3218 29.0663 77.4228 23.7917 77.9296 22.1124C78.1423 21.4072 77.8583 20.635 77.2394 20.2343Z" fill="#0EB3E6"/>
<path d="M70.1895 49.7705H68.5255C67.8944 49.7705 67.3827 50.2822 67.3827 50.9133C67.3827 51.5444 67.8944 52.0561 68.5255 52.0561H70.1895C71.2719 52.0561 72.1525 52.9368 72.1525 54.0192C72.1525 55.1016 71.2719 55.9822 70.1895 55.9822H55.1701C54.539 55.9822 54.0273 56.4938 54.0273 57.125C54.0273 57.7561 54.539 58.2677 55.1701 58.2677H70.1895C72.5322 58.2677 74.438 56.3619 74.438 54.0192C74.438 51.6765 72.5322 49.7705 70.1895 49.7705Z" fill="#0EB3E6"/>
<path d="M65.2273 63.9209H51.0822C50.4511 63.9209 49.9395 64.4326 49.9395 65.0637C49.9395 65.6948 50.4511 66.2064 51.0822 66.2064H65.2273C65.6499 66.2064 65.9936 66.5502 65.9936 66.9727C65.9936 67.3952 65.6499 67.739 65.2273 67.739H64.0413C63.4102 67.739 62.8985 68.2506 62.8985 68.8818C62.8985 69.5129 63.4102 70.0245 64.0413 70.0245H65.2275C66.9103 70.0245 68.2793 68.6555 68.2793 66.9727C68.2793 65.2899 66.9101 63.9209 65.2273 63.9209Z" fill="#0EB3E6"/>
<path d="M8.8083 12.5404H26.9289C27.56 12.5404 28.0717 12.0288 28.0717 11.3977C28.0717 10.7665 27.56 10.2549 26.9289 10.2549H8.8083C8.17719 10.2549 7.66553 10.7665 7.66553 11.3977C7.66553 12.0288 8.17719 12.5404 8.8083 12.5404Z" fill="#0EB3E6"/>
<path d="M32.9821 12.5404H34.2508C34.8819 12.5404 35.3935 12.0288 35.3935 11.3977C35.3935 10.7665 34.8819 10.2549 34.2508 10.2549H32.9821C32.351 10.2549 31.8394 10.7665 31.8394 11.3977C31.8394 12.0288 32.351 12.5404 32.9821 12.5404Z" fill="#0EB3E6"/>
<path d="M4.68428 19.9135H20.5954C21.2265 19.9135 21.7381 19.4018 21.7381 18.7707C21.7381 18.1396 21.2265 17.6279 20.5954 17.6279H4.68428C4.05316 17.6279 3.5415 18.1396 3.5415 18.7707C3.5415 19.4018 4.05316 19.9135 4.68428 19.9135Z" fill="#0EB3E6"/>
<path d="M6.50726 70.042H1.14277C0.511658 70.042 0 70.5537 0 71.1848C0 71.8159 0.511658 72.3276 1.14277 72.3276H6.50726C7.13838 72.3276 7.65004 71.8159 7.65004 71.1848C7.65004 70.5537 7.13838 70.042 6.50726 70.042Z" fill="#0EB3E6"/>
</svg>
